M48
; DRILL file {KiCad (6.0.0)} date Fri Jan  7 11:58:40 2022
; FORMAT={-:-/ absolute / metric / decimal}
; #@! TF.CreationDate,2022-01-07T11:58:40+01:00
; #@! TF.GenerationSoftware,Kicad,Pcbnew,(6.0.0)
; #@! TF.FileFunction,Plated,1,4,PTH
FMAT,2
METRIC
; #@! TA.AperFunction,Plated,PTH,ViaDrill
T1C0.300
; #@! TA.AperFunction,Plated,PTH,ComponentDrill
T2C0.650
; #@! TA.AperFunction,Plated,PTH,ComponentDrill
T3C0.760
; #@! TA.AperFunction,Plated,PTH,ComponentDrill
T4C0.890
; #@! TA.AperFunction,Plated,PTH,ComponentDrill
T5C0.900
; #@! TA.AperFunction,Plated,PTH,ComponentDrill
T6C1.000
; #@! TA.AperFunction,Plated,PTH,ComponentDrill
T7C1.520
; #@! TA.AperFunction,Plated,PTH,ComponentDrill
T8C1.570
%
G90
G05
T1
X110.998Y-96.52
X111.506Y-88.646
X114.046Y-103.365
X117.602Y-93.472
X121.158Y-94.488
X123.444Y-115.824
X123.735Y-108.167
X124.51Y-73.864
X125.639Y-73.864
X126.746Y-109.22
X127.508Y-114.554
X127.762Y-70.612
X127.762Y-71.628
X127.762Y-73.872
X128.27Y-112.014
X129.794Y-103.136
X132.423Y-115.405
X132.588Y-108.458
X133.35Y-92.71
X134.112Y-93.98
X135.215Y-91.353
X136.352Y-94.95
X136.398Y-114.554
X136.906Y-107.442
X137.922Y-104.14
X139.954Y-110.998
X141.732Y-108.712
X141.732Y-115.824
X144.526Y-108.966
X145.796Y-97.536
X146.05Y-114.808
X146.558Y-88.138
X146.812Y-103.124
X148.336Y-92.202
X148.844Y-110.744
X149.606Y-108.966
X150.876Y-116.078
X152.908Y-106.426
X154.94Y-115.062
X155.702Y-110.236
X156.21Y-93.472
X156.678Y-74.943
X157.988Y-112.776
X158.242Y-75.692
X162.558Y-72.831
X164.338Y-68.58
X164.338Y-78.232
X165.311Y-72.956
X169.672Y-83.566
X171.704Y-74.168
X173.228Y-101.092
T2
X103.378Y-94.488
X103.378Y-95.758
X113.792Y-88.392
X113.792Y-89.662
X178.816Y-80.01
X178.816Y-81.28
X178.816Y-82.55
X178.816Y-83.82
X178.816Y-87.884
X178.816Y-89.154
X178.816Y-90.424
X178.816Y-91.694
X178.816Y-92.964
X178.816Y-94.234
X178.816Y-98.176
X178.816Y-99.446
X178.816Y-100.716
X178.816Y-101.986
T3
X163.426Y-108.58
X163.426Y-111.12
X163.426Y-113.66
X165.966Y-107.31
X165.966Y-109.85
X165.966Y-112.39
T4
X109.853Y-74.68
X109.853Y-76.712
X109.853Y-78.744
X109.853Y-80.776
X109.853Y-105.414
X109.853Y-107.446
X109.853Y-109.478
X109.853Y-111.51
X111.633Y-73.664
X111.633Y-75.696
X111.633Y-77.728
X111.633Y-79.76
X111.633Y-104.398
X111.633Y-106.43
X111.633Y-108.462
X111.633Y-110.494
T5
X121.539Y-84.836
X121.539Y-100.076
X124.079Y-84.836
X124.079Y-100.076
X126.619Y-84.836
X126.619Y-100.076
X129.159Y-84.836
X129.159Y-100.076
X131.699Y-84.836
X131.699Y-100.076
X134.239Y-84.836
X134.239Y-100.076
X136.779Y-84.836
X136.779Y-100.076
X139.319Y-84.836
X139.319Y-100.076
X141.859Y-84.836
X141.859Y-100.076
X144.399Y-84.836
X144.399Y-100.076
X146.939Y-84.836
X146.939Y-100.076
X149.479Y-84.836
X149.479Y-100.076
X152.019Y-84.836
X152.019Y-100.076
X154.559Y-84.836
X154.559Y-100.076
X157.099Y-84.836
X157.099Y-100.076
X159.639Y-84.836
X159.639Y-100.076
X162.179Y-84.836
X162.179Y-100.076
X164.719Y-84.836
X164.719Y-100.076
X165.989Y-88.646
X165.989Y-91.186
X165.989Y-93.726
X165.989Y-96.266
X167.259Y-84.836
X167.259Y-100.076
X169.799Y-84.836
X169.799Y-100.076
T6
X142.494Y-70.114
X142.494Y-72.654
X142.494Y-75.194
X142.494Y-77.734
X146.304Y-70.114
X146.304Y-72.654
X146.304Y-75.194
X146.304Y-77.734
T7
X176.276Y-70.612
X176.276Y-75.692
T8
X110.743Y-69.086
X110.743Y-85.346
X110.743Y-99.82
X110.743Y-116.08
T0
M30
