%FSLAX45Y45*%
G04 Gerber Fmt 4.5, Leading zero omitted, Abs format (unit mm)*
G04 Created by KiCad (PCBNEW (6.0.0)) date 2022-01-06 20:39:22*
%MOMM*%
%LPD*%
G01*
G04 APERTURE LIST*
%TA.AperFunction,Profile*%
%ADD10C,0.100000*%
%TD*%
%TA.AperFunction,Profile*%
%ADD11C,0.200000*%
%TD*%
%TA.AperFunction,Profile*%
%ADD12C,0.249000*%
%TD*%
%ADD13C,0.200000*%
%ADD14C,0.325000*%
G04 APERTURE END LIST*
D10*
X10300000Y-6700000D02*
G75*
G03*
X10150000Y-6850000I0J-150000D01*
G01*
X10150000Y-6850000D02*
X10150000Y-11650000D01*
D11*
X10539000Y-8915400D02*
G75*
G03*
X10539000Y-8915400I-125000J0D01*
G01*
D10*
X18050000Y-11650000D02*
X18050000Y-6850000D01*
X17900000Y-6700000D02*
X10300000Y-6700000D01*
X10300000Y-11800000D02*
X17900000Y-11800000D01*
D12*
X17857600Y-11400000D02*
G75*
G03*
X17857600Y-11400000I-57600J0D01*
G01*
D10*
X10150000Y-11650000D02*
G75*
G03*
X10300000Y-11800000I150000J0D01*
G01*
D11*
X15619000Y-9144000D02*
G75*
G03*
X15619000Y-9144000I-125000J0D01*
G01*
X17500600Y-7264400D02*
G75*
G03*
X17500600Y-7264400I-100000J0D01*
G01*
X12825000Y-9144000D02*
G75*
G03*
X12825000Y-9144000I-125000J0D01*
G01*
D12*
X10457600Y-7200000D02*
G75*
G03*
X10457600Y-7200000I-57600J0D01*
G01*
D10*
X18050000Y-6850000D02*
G75*
G03*
X17900000Y-6700000I-150000J0D01*
G01*
D12*
X10457600Y-11400000D02*
G75*
G03*
X10457600Y-11400000I-57600J0D01*
G01*
D10*
X17900000Y-11800000D02*
G75*
G03*
X18050000Y-11650000I0J150000D01*
G01*
D13*
D14*
X10568800Y-6924100D02*
X10893800Y-7249100D01*
X10893800Y-6924100D02*
X10568800Y-7249100D01*
X10568800Y-8194100D02*
X10893800Y-8519100D01*
X10893800Y-8194100D02*
X10568800Y-8519100D01*
X10568800Y-9997500D02*
X10893800Y-10322500D01*
X10893800Y-9997500D02*
X10568800Y-10322500D01*
X10568800Y-11267500D02*
X10893800Y-11592500D01*
X10893800Y-11267500D02*
X10568800Y-11592500D01*
X17069100Y-10378500D02*
X17394100Y-10703500D01*
X17394100Y-10378500D02*
X17069100Y-10703500D01*
X17069100Y-11394500D02*
X17394100Y-11719500D01*
X17394100Y-11394500D02*
X17069100Y-11719500D01*
D13*
X10402619Y-12115476D02*
X10402619Y-11915476D01*
X10450238Y-11915476D01*
X10478810Y-11925000D01*
X10497857Y-11944048D01*
X10507381Y-11963095D01*
X10516905Y-12001190D01*
X10516905Y-12029762D01*
X10507381Y-12067857D01*
X10497857Y-12086905D01*
X10478810Y-12105952D01*
X10450238Y-12115476D01*
X10402619Y-12115476D01*
X10602619Y-12115476D02*
X10602619Y-11982143D01*
X10602619Y-12020238D02*
X10612143Y-12001190D01*
X10621667Y-11991667D01*
X10640714Y-11982143D01*
X10659762Y-11982143D01*
X10726429Y-12115476D02*
X10726429Y-11982143D01*
X10726429Y-11915476D02*
X10716905Y-11925000D01*
X10726429Y-11934524D01*
X10735952Y-11925000D01*
X10726429Y-11915476D01*
X10726429Y-11934524D01*
X10850238Y-12115476D02*
X10831190Y-12105952D01*
X10821667Y-12086905D01*
X10821667Y-11915476D01*
X10955000Y-12115476D02*
X10935952Y-12105952D01*
X10926429Y-12086905D01*
X10926429Y-11915476D01*
X11183571Y-12115476D02*
X11183571Y-11915476D01*
X11250238Y-12058333D01*
X11316905Y-11915476D01*
X11316905Y-12115476D01*
X11497857Y-12115476D02*
X11497857Y-12010714D01*
X11488333Y-11991667D01*
X11469286Y-11982143D01*
X11431190Y-11982143D01*
X11412143Y-11991667D01*
X11497857Y-12105952D02*
X11478809Y-12115476D01*
X11431190Y-12115476D01*
X11412143Y-12105952D01*
X11402619Y-12086905D01*
X11402619Y-12067857D01*
X11412143Y-12048809D01*
X11431190Y-12039286D01*
X11478809Y-12039286D01*
X11497857Y-12029762D01*
X11593095Y-11982143D02*
X11593095Y-12182143D01*
X11593095Y-11991667D02*
X11612143Y-11982143D01*
X11650238Y-11982143D01*
X11669286Y-11991667D01*
X11678809Y-12001190D01*
X11688333Y-12020238D01*
X11688333Y-12077381D01*
X11678809Y-12096428D01*
X11669286Y-12105952D01*
X11650238Y-12115476D01*
X11612143Y-12115476D01*
X11593095Y-12105952D01*
X11774048Y-12096428D02*
X11783571Y-12105952D01*
X11774048Y-12115476D01*
X11764524Y-12105952D01*
X11774048Y-12096428D01*
X11774048Y-12115476D01*
X11774048Y-11991667D02*
X11783571Y-12001190D01*
X11774048Y-12010714D01*
X11764524Y-12001190D01*
X11774048Y-11991667D01*
X11774048Y-12010714D01*
X9945000Y-12345000D02*
X10145000Y-12545000D01*
X10145000Y-12345000D02*
X9945000Y-12545000D01*
X10383571Y-12335476D02*
X10507381Y-12335476D01*
X10440714Y-12411667D01*
X10469286Y-12411667D01*
X10488333Y-12421190D01*
X10497857Y-12430714D01*
X10507381Y-12449762D01*
X10507381Y-12497381D01*
X10497857Y-12516428D01*
X10488333Y-12525952D01*
X10469286Y-12535476D01*
X10412143Y-12535476D01*
X10393095Y-12525952D01*
X10383571Y-12516428D01*
X10593095Y-12516428D02*
X10602619Y-12525952D01*
X10593095Y-12535476D01*
X10583571Y-12525952D01*
X10593095Y-12516428D01*
X10593095Y-12535476D01*
X10678810Y-12354524D02*
X10688333Y-12345000D01*
X10707381Y-12335476D01*
X10755000Y-12335476D01*
X10774048Y-12345000D01*
X10783571Y-12354524D01*
X10793095Y-12373571D01*
X10793095Y-12392619D01*
X10783571Y-12421190D01*
X10669286Y-12535476D01*
X10793095Y-12535476D01*
X10974048Y-12335476D02*
X10878810Y-12335476D01*
X10869286Y-12430714D01*
X10878810Y-12421190D01*
X10897857Y-12411667D01*
X10945476Y-12411667D01*
X10964524Y-12421190D01*
X10974048Y-12430714D01*
X10983571Y-12449762D01*
X10983571Y-12497381D01*
X10974048Y-12516428D01*
X10964524Y-12525952D01*
X10945476Y-12535476D01*
X10897857Y-12535476D01*
X10878810Y-12525952D01*
X10869286Y-12516428D01*
X11107381Y-12335476D02*
X11126429Y-12335476D01*
X11145476Y-12345000D01*
X11155000Y-12354524D01*
X11164524Y-12373571D01*
X11174048Y-12411667D01*
X11174048Y-12459286D01*
X11164524Y-12497381D01*
X11155000Y-12516428D01*
X11145476Y-12525952D01*
X11126429Y-12535476D01*
X11107381Y-12535476D01*
X11088333Y-12525952D01*
X11078810Y-12516428D01*
X11069286Y-12497381D01*
X11059762Y-12459286D01*
X11059762Y-12411667D01*
X11069286Y-12373571D01*
X11078810Y-12354524D01*
X11088333Y-12345000D01*
X11107381Y-12335476D01*
X11259762Y-12535476D02*
X11259762Y-12402143D01*
X11259762Y-12421190D02*
X11269286Y-12411667D01*
X11288333Y-12402143D01*
X11316905Y-12402143D01*
X11335952Y-12411667D01*
X11345476Y-12430714D01*
X11345476Y-12535476D01*
X11345476Y-12430714D02*
X11355000Y-12411667D01*
X11374048Y-12402143D01*
X11402619Y-12402143D01*
X11421667Y-12411667D01*
X11431190Y-12430714D01*
X11431190Y-12535476D01*
X11526428Y-12535476D02*
X11526428Y-12402143D01*
X11526428Y-12421190D02*
X11535952Y-12411667D01*
X11555000Y-12402143D01*
X11583571Y-12402143D01*
X11602619Y-12411667D01*
X11612143Y-12430714D01*
X11612143Y-12535476D01*
X11612143Y-12430714D02*
X11621667Y-12411667D01*
X11640714Y-12402143D01*
X11669286Y-12402143D01*
X11688333Y-12411667D01*
X11697857Y-12430714D01*
X11697857Y-12535476D01*
X12088333Y-12325952D02*
X11916905Y-12583095D01*
X12345476Y-12335476D02*
X12364524Y-12335476D01*
X12383571Y-12345000D01*
X12393095Y-12354524D01*
X12402619Y-12373571D01*
X12412143Y-12411667D01*
X12412143Y-12459286D01*
X12402619Y-12497381D01*
X12393095Y-12516428D01*
X12383571Y-12525952D01*
X12364524Y-12535476D01*
X12345476Y-12535476D01*
X12326428Y-12525952D01*
X12316905Y-12516428D01*
X12307381Y-12497381D01*
X12297857Y-12459286D01*
X12297857Y-12411667D01*
X12307381Y-12373571D01*
X12316905Y-12354524D01*
X12326428Y-12345000D01*
X12345476Y-12335476D01*
X12497857Y-12516428D02*
X12507381Y-12525952D01*
X12497857Y-12535476D01*
X12488333Y-12525952D01*
X12497857Y-12516428D01*
X12497857Y-12535476D01*
X12697857Y-12535476D02*
X12583571Y-12535476D01*
X12640714Y-12535476D02*
X12640714Y-12335476D01*
X12621667Y-12364048D01*
X12602619Y-12383095D01*
X12583571Y-12392619D01*
X12774048Y-12354524D02*
X12783571Y-12345000D01*
X12802619Y-12335476D01*
X12850238Y-12335476D01*
X12869286Y-12345000D01*
X12878809Y-12354524D01*
X12888333Y-12373571D01*
X12888333Y-12392619D01*
X12878809Y-12421190D01*
X12764524Y-12535476D01*
X12888333Y-12535476D01*
X13002619Y-12421190D02*
X12983571Y-12411667D01*
X12974048Y-12402143D01*
X12964524Y-12383095D01*
X12964524Y-12373571D01*
X12974048Y-12354524D01*
X12983571Y-12345000D01*
X13002619Y-12335476D01*
X13040714Y-12335476D01*
X13059762Y-12345000D01*
X13069286Y-12354524D01*
X13078809Y-12373571D01*
X13078809Y-12383095D01*
X13069286Y-12402143D01*
X13059762Y-12411667D01*
X13040714Y-12421190D01*
X13002619Y-12421190D01*
X12983571Y-12430714D01*
X12974048Y-12440238D01*
X12964524Y-12459286D01*
X12964524Y-12497381D01*
X12974048Y-12516428D01*
X12983571Y-12525952D01*
X13002619Y-12535476D01*
X13040714Y-12535476D01*
X13059762Y-12525952D01*
X13069286Y-12516428D01*
X13078809Y-12497381D01*
X13078809Y-12459286D01*
X13069286Y-12440238D01*
X13059762Y-12430714D01*
X13040714Y-12421190D01*
X13202619Y-12335476D02*
X13221667Y-12335476D01*
X13240714Y-12345000D01*
X13250238Y-12354524D01*
X13259762Y-12373571D01*
X13269286Y-12411667D01*
X13269286Y-12459286D01*
X13259762Y-12497381D01*
X13250238Y-12516428D01*
X13240714Y-12525952D01*
X13221667Y-12535476D01*
X13202619Y-12535476D01*
X13183571Y-12525952D01*
X13174048Y-12516428D01*
X13164524Y-12497381D01*
X13155000Y-12459286D01*
X13155000Y-12411667D01*
X13164524Y-12373571D01*
X13174048Y-12354524D01*
X13183571Y-12345000D01*
X13202619Y-12335476D01*
X13345476Y-12335476D02*
X13345476Y-12373571D01*
X13421667Y-12335476D02*
X13421667Y-12373571D01*
X13716905Y-12611667D02*
X13707381Y-12602143D01*
X13688333Y-12573571D01*
X13678809Y-12554524D01*
X13669286Y-12525952D01*
X13659762Y-12478333D01*
X13659762Y-12440238D01*
X13669286Y-12392619D01*
X13678809Y-12364048D01*
X13688333Y-12345000D01*
X13707381Y-12316428D01*
X13716905Y-12306905D01*
X13878809Y-12335476D02*
X13840714Y-12335476D01*
X13821667Y-12345000D01*
X13812143Y-12354524D01*
X13793095Y-12383095D01*
X13783571Y-12421190D01*
X13783571Y-12497381D01*
X13793095Y-12516428D01*
X13802619Y-12525952D01*
X13821667Y-12535476D01*
X13859762Y-12535476D01*
X13878809Y-12525952D01*
X13888333Y-12516428D01*
X13897857Y-12497381D01*
X13897857Y-12449762D01*
X13888333Y-12430714D01*
X13878809Y-12421190D01*
X13859762Y-12411667D01*
X13821667Y-12411667D01*
X13802619Y-12421190D01*
X13793095Y-12430714D01*
X13783571Y-12449762D01*
X14135952Y-12535476D02*
X14135952Y-12335476D01*
X14221667Y-12535476D02*
X14221667Y-12430714D01*
X14212143Y-12411667D01*
X14193095Y-12402143D01*
X14164524Y-12402143D01*
X14145476Y-12411667D01*
X14135952Y-12421190D01*
X14345476Y-12535476D02*
X14326428Y-12525952D01*
X14316905Y-12516428D01*
X14307381Y-12497381D01*
X14307381Y-12440238D01*
X14316905Y-12421190D01*
X14326428Y-12411667D01*
X14345476Y-12402143D01*
X14374048Y-12402143D01*
X14393095Y-12411667D01*
X14402619Y-12421190D01*
X14412143Y-12440238D01*
X14412143Y-12497381D01*
X14402619Y-12516428D01*
X14393095Y-12525952D01*
X14374048Y-12535476D01*
X14345476Y-12535476D01*
X14526428Y-12535476D02*
X14507381Y-12525952D01*
X14497857Y-12506905D01*
X14497857Y-12335476D01*
X14678809Y-12525952D02*
X14659762Y-12535476D01*
X14621667Y-12535476D01*
X14602619Y-12525952D01*
X14593095Y-12506905D01*
X14593095Y-12430714D01*
X14602619Y-12411667D01*
X14621667Y-12402143D01*
X14659762Y-12402143D01*
X14678809Y-12411667D01*
X14688333Y-12430714D01*
X14688333Y-12449762D01*
X14593095Y-12468809D01*
X14764524Y-12525952D02*
X14783571Y-12535476D01*
X14821667Y-12535476D01*
X14840714Y-12525952D01*
X14850238Y-12506905D01*
X14850238Y-12497381D01*
X14840714Y-12478333D01*
X14821667Y-12468809D01*
X14793095Y-12468809D01*
X14774048Y-12459286D01*
X14764524Y-12440238D01*
X14764524Y-12430714D01*
X14774048Y-12411667D01*
X14793095Y-12402143D01*
X14821667Y-12402143D01*
X14840714Y-12411667D01*
X14916905Y-12611667D02*
X14926428Y-12602143D01*
X14945476Y-12573571D01*
X14955000Y-12554524D01*
X14964524Y-12525952D01*
X14974048Y-12478333D01*
X14974048Y-12440238D01*
X14964524Y-12392619D01*
X14955000Y-12364048D01*
X14945476Y-12345000D01*
X14926428Y-12316428D01*
X14916905Y-12306905D01*
X15278809Y-12611667D02*
X15269286Y-12602143D01*
X15250238Y-12573571D01*
X15240714Y-12554524D01*
X15231190Y-12525952D01*
X15221667Y-12478333D01*
X15221667Y-12440238D01*
X15231190Y-12392619D01*
X15240714Y-12364048D01*
X15250238Y-12345000D01*
X15269286Y-12316428D01*
X15278809Y-12306905D01*
X15355000Y-12402143D02*
X15355000Y-12535476D01*
X15355000Y-12421190D02*
X15364524Y-12411667D01*
X15383571Y-12402143D01*
X15412143Y-12402143D01*
X15431190Y-12411667D01*
X15440714Y-12430714D01*
X15440714Y-12535476D01*
X15564524Y-12535476D02*
X15545476Y-12525952D01*
X15535952Y-12516428D01*
X15526428Y-12497381D01*
X15526428Y-12440238D01*
X15535952Y-12421190D01*
X15545476Y-12411667D01*
X15564524Y-12402143D01*
X15593095Y-12402143D01*
X15612143Y-12411667D01*
X15621667Y-12421190D01*
X15631190Y-12440238D01*
X15631190Y-12497381D01*
X15621667Y-12516428D01*
X15612143Y-12525952D01*
X15593095Y-12535476D01*
X15564524Y-12535476D01*
X15688333Y-12402143D02*
X15764524Y-12402143D01*
X15716905Y-12335476D02*
X15716905Y-12506905D01*
X15726428Y-12525952D01*
X15745476Y-12535476D01*
X15764524Y-12535476D01*
X15983571Y-12402143D02*
X15983571Y-12602143D01*
X15983571Y-12411667D02*
X16002619Y-12402143D01*
X16040714Y-12402143D01*
X16059762Y-12411667D01*
X16069286Y-12421190D01*
X16078809Y-12440238D01*
X16078809Y-12497381D01*
X16069286Y-12516428D01*
X16059762Y-12525952D01*
X16040714Y-12535476D01*
X16002619Y-12535476D01*
X15983571Y-12525952D01*
X16193095Y-12535476D02*
X16174048Y-12525952D01*
X16164524Y-12506905D01*
X16164524Y-12335476D01*
X16355000Y-12535476D02*
X16355000Y-12430714D01*
X16345476Y-12411667D01*
X16326428Y-12402143D01*
X16288333Y-12402143D01*
X16269286Y-12411667D01*
X16355000Y-12525952D02*
X16335952Y-12535476D01*
X16288333Y-12535476D01*
X16269286Y-12525952D01*
X16259762Y-12506905D01*
X16259762Y-12487857D01*
X16269286Y-12468809D01*
X16288333Y-12459286D01*
X16335952Y-12459286D01*
X16355000Y-12449762D01*
X16421667Y-12402143D02*
X16497857Y-12402143D01*
X16450238Y-12335476D02*
X16450238Y-12506905D01*
X16459762Y-12525952D01*
X16478809Y-12535476D01*
X16497857Y-12535476D01*
X16640714Y-12525952D02*
X16621667Y-12535476D01*
X16583571Y-12535476D01*
X16564524Y-12525952D01*
X16555000Y-12506905D01*
X16555000Y-12430714D01*
X16564524Y-12411667D01*
X16583571Y-12402143D01*
X16621667Y-12402143D01*
X16640714Y-12411667D01*
X16650238Y-12430714D01*
X16650238Y-12449762D01*
X16555000Y-12468809D01*
X16821667Y-12535476D02*
X16821667Y-12335476D01*
X16821667Y-12525952D02*
X16802619Y-12535476D01*
X16764524Y-12535476D01*
X16745476Y-12525952D01*
X16735952Y-12516428D01*
X16726428Y-12497381D01*
X16726428Y-12440238D01*
X16735952Y-12421190D01*
X16745476Y-12411667D01*
X16764524Y-12402143D01*
X16802619Y-12402143D01*
X16821667Y-12411667D01*
X16897857Y-12611667D02*
X16907381Y-12602143D01*
X16926429Y-12573571D01*
X16935952Y-12554524D01*
X16945476Y-12525952D01*
X16955000Y-12478333D01*
X16955000Y-12440238D01*
X16945476Y-12392619D01*
X16935952Y-12364048D01*
X16926429Y-12345000D01*
X16907381Y-12316428D01*
X16897857Y-12306905D01*
M02*
