G04 #@! TF.GenerationSoftware,KiCad,Pcbnew,(6.0.0)*
G04 #@! TF.CreationDate,2022-01-07T11:58:26+01:00*
G04 #@! TF.ProjectId,soar_audio,736f6172-5f61-4756-9469-6f2e6b696361,v1.1*
G04 #@! TF.SameCoordinates,Original*
G04 #@! TF.FileFunction,Soldermask,Top*
G04 #@! TF.FilePolarity,Negative*
%FSLAX46Y46*%
G04 Gerber Fmt 4.6, Leading zero omitted, Abs format (unit mm)*
G04 Created by KiCad (PCBNEW (6.0.0)) date 2022-01-07 11:58:26*
%MOMM*%
%LPD*%
G01*
G04 APERTURE LIST*
G04 Aperture macros list*
%AMRoundRect*
0 Rectangle with rounded corners*
0 $1 Rounding radius*
0 $2 $3 $4 $5 $6 $7 $8 $9 X,Y pos of 4 corners*
0 Add a 4 corners polygon primitive as box body*
4,1,4,$2,$3,$4,$5,$6,$7,$8,$9,$2,$3,0*
0 Add four circle primitives for the rounded corners*
1,1,$1+$1,$2,$3*
1,1,$1+$1,$4,$5*
1,1,$1+$1,$6,$7*
1,1,$1+$1,$8,$9*
0 Add four rect primitives between the rounded corners*
20,1,$1+$1,$2,$3,$4,$5,0*
20,1,$1+$1,$4,$5,$6,$7,0*
20,1,$1+$1,$6,$7,$8,$9,0*
20,1,$1+$1,$8,$9,$2,$3,0*%
G04 Aperture macros list end*
%ADD10R,1.950000X3.000000*%
%ADD11R,1.500000X1.500000*%
%ADD12C,1.500000*%
%ADD13C,3.250000*%
%ADD14C,2.300000*%
%ADD15RoundRect,0.250000X-0.650000X0.325000X-0.650000X-0.325000X0.650000X-0.325000X0.650000X0.325000X0*%
%ADD16RoundRect,0.200000X-0.200000X-0.275000X0.200000X-0.275000X0.200000X0.275000X-0.200000X0.275000X0*%
%ADD17RoundRect,0.250000X-0.325000X-0.650000X0.325000X-0.650000X0.325000X0.650000X-0.325000X0.650000X0*%
%ADD18RoundRect,0.225000X0.225000X0.250000X-0.225000X0.250000X-0.225000X-0.250000X0.225000X-0.250000X0*%
%ADD19R,1.000000X1.000000*%
%ADD20O,1.000000X1.000000*%
%ADD21RoundRect,0.100000X0.675000X0.100000X-0.675000X0.100000X-0.675000X-0.100000X0.675000X-0.100000X0*%
%ADD22R,3.000000X3.000000*%
%ADD23R,1.000000X1.500000*%
%ADD24RoundRect,0.225000X0.250000X-0.225000X0.250000X0.225000X-0.250000X0.225000X-0.250000X-0.225000X0*%
%ADD25R,0.900000X1.200000*%
%ADD26RoundRect,0.225000X-0.250000X0.225000X-0.250000X-0.225000X0.250000X-0.225000X0.250000X0.225000X0*%
%ADD27RoundRect,0.200000X-0.275000X0.200000X-0.275000X-0.200000X0.275000X-0.200000X0.275000X0.200000X0*%
%ADD28RoundRect,0.150000X0.825000X0.150000X-0.825000X0.150000X-0.825000X-0.150000X0.825000X-0.150000X0*%
%ADD29RoundRect,0.250000X0.262500X0.450000X-0.262500X0.450000X-0.262500X-0.450000X0.262500X-0.450000X0*%
%ADD30R,0.450000X0.600000*%
%ADD31R,1.700000X1.700000*%
%ADD32O,1.700000X1.700000*%
%ADD33RoundRect,0.250000X-0.250000X-0.475000X0.250000X-0.475000X0.250000X0.475000X-0.250000X0.475000X0*%
%ADD34RoundRect,0.250000X-0.475000X0.250000X-0.475000X-0.250000X0.475000X-0.250000X0.475000X0.250000X0*%
%ADD35RoundRect,0.250000X-0.262500X-0.450000X0.262500X-0.450000X0.262500X0.450000X-0.262500X0.450000X0*%
%ADD36RoundRect,0.200000X0.275000X-0.200000X0.275000X0.200000X-0.275000X0.200000X-0.275000X-0.200000X0*%
%ADD37RoundRect,0.225000X-0.225000X-0.250000X0.225000X-0.250000X0.225000X0.250000X-0.225000X0.250000X0*%
%ADD38C,3.000000*%
%ADD39C,1.524000*%
%ADD40RoundRect,0.100000X-0.712500X-0.100000X0.712500X-0.100000X0.712500X0.100000X-0.712500X0.100000X0*%
%ADD41R,0.600000X0.450000*%
%ADD42RoundRect,0.218750X-0.218750X-0.381250X0.218750X-0.381250X0.218750X0.381250X-0.218750X0.381250X0*%
%ADD43RoundRect,0.200000X0.200000X0.275000X-0.200000X0.275000X-0.200000X-0.275000X0.200000X-0.275000X0*%
%ADD44RoundRect,0.250000X0.250000X0.475000X-0.250000X0.475000X-0.250000X-0.475000X0.250000X-0.475000X0*%
%ADD45RoundRect,0.150000X-0.150000X0.512500X-0.150000X-0.512500X0.150000X-0.512500X0.150000X0.512500X0*%
%ADD46RoundRect,0.150000X0.587500X0.150000X-0.587500X0.150000X-0.587500X-0.150000X0.587500X-0.150000X0*%
%ADD47R,1.200000X0.900000*%
%ADD48R,1.520000X1.520000*%
%ADD49C,1.520000*%
G04 APERTURE END LIST*
D10*
X130829000Y-75184000D03*
X136379000Y-75184000D03*
D11*
X109853000Y-80776000D03*
D12*
X109853000Y-78744000D03*
X109853000Y-76712000D03*
X109853000Y-74680000D03*
X111633000Y-79760000D03*
X111633000Y-77728000D03*
X111633000Y-75696000D03*
X111633000Y-73664000D03*
D13*
X107313000Y-83566000D03*
X107313000Y-70866000D03*
D14*
X110743000Y-69086000D03*
X110743000Y-85346000D03*
D11*
X109853000Y-111510000D03*
D12*
X109853000Y-109478000D03*
X109853000Y-107446000D03*
X109853000Y-105414000D03*
X111633000Y-110494000D03*
X111633000Y-108462000D03*
X111633000Y-106430000D03*
X111633000Y-104398000D03*
D13*
X107313000Y-114300000D03*
X107313000Y-101600000D03*
D14*
X110743000Y-99820000D03*
X110743000Y-116080000D03*
D15*
X130810000Y-79600000D03*
X130810000Y-82550000D03*
D16*
X123572000Y-75438000D03*
X125222000Y-75438000D03*
D17*
X133096000Y-80010000D03*
X136046000Y-80010000D03*
D18*
X125730000Y-70866000D03*
X124180000Y-70866000D03*
D19*
X103378000Y-94488000D03*
D20*
X103378000Y-95758000D03*
D21*
X143083000Y-93969000D03*
X143083000Y-93319000D03*
X143083000Y-92669000D03*
X143083000Y-92019000D03*
X143083000Y-91369000D03*
X143083000Y-90719000D03*
X143083000Y-90069000D03*
X143083000Y-89419000D03*
X137333000Y-89419000D03*
X137333000Y-90069000D03*
X137333000Y-90719000D03*
X137333000Y-91369000D03*
X137333000Y-92019000D03*
X137333000Y-92669000D03*
X137333000Y-93319000D03*
X137333000Y-93969000D03*
D22*
X140208000Y-91694000D03*
D23*
X153020000Y-72644000D03*
X154320000Y-72644000D03*
D24*
X143002000Y-115596000D03*
X143002000Y-114046000D03*
D25*
X166496000Y-68580000D03*
X163196000Y-68580000D03*
D26*
X170688000Y-72631000D03*
X170688000Y-74181000D03*
D27*
X121920000Y-95632000D03*
X121920000Y-97282000D03*
D24*
X133350000Y-70612000D03*
X133350000Y-69062000D03*
D28*
X119315000Y-95885000D03*
X119315000Y-94615000D03*
X119315000Y-93345000D03*
X119315000Y-92075000D03*
X114365000Y-92075000D03*
X114365000Y-93345000D03*
X114365000Y-94615000D03*
X114365000Y-95885000D03*
D24*
X124968000Y-108167000D03*
X124968000Y-106617000D03*
D27*
X144526000Y-106617000D03*
X144526000Y-108267000D03*
D16*
X151384000Y-112205000D03*
X153034000Y-112205000D03*
D29*
X152701000Y-105156000D03*
X150876000Y-105156000D03*
D30*
X122936000Y-108683000D03*
X122936000Y-106583000D03*
D31*
X146304000Y-70114000D03*
D32*
X146304000Y-72654000D03*
X146304000Y-75194000D03*
X146304000Y-77734000D03*
D33*
X108082000Y-88646000D03*
X109982000Y-88646000D03*
D30*
X140970000Y-116112000D03*
X140970000Y-114012000D03*
D18*
X129273000Y-70104000D03*
X130823000Y-70104000D03*
D34*
X126492000Y-78994000D03*
X126492000Y-80894000D03*
D26*
X145034000Y-87884000D03*
X145034000Y-89434000D03*
D35*
X121158000Y-104839000D03*
X122983000Y-104839000D03*
D36*
X157226000Y-82042000D03*
X157226000Y-80392000D03*
D30*
X159004000Y-112810000D03*
X159004000Y-110710000D03*
D26*
X135128000Y-69062000D03*
X135128000Y-70612000D03*
D23*
X119350000Y-81788000D03*
X120650000Y-81788000D03*
D16*
X142368000Y-104965000D03*
X144018000Y-104965000D03*
D27*
X153670000Y-113983000D03*
X153670000Y-115633000D03*
D18*
X148336000Y-93472000D03*
X146786000Y-93472000D03*
D19*
X113792000Y-89662000D03*
D20*
X113792000Y-88392000D03*
D27*
X135382000Y-113729000D03*
X135382000Y-115379000D03*
D29*
X160829000Y-108966000D03*
X159004000Y-108966000D03*
D37*
X126238000Y-77216000D03*
X127788000Y-77216000D03*
D19*
X178816000Y-80010000D03*
D20*
X178816000Y-81280000D03*
X178816000Y-82550000D03*
X178816000Y-83820000D03*
D27*
X147066000Y-80329000D03*
X147066000Y-81979000D03*
D22*
X176276000Y-75692000D03*
D38*
X176276000Y-70612000D03*
D16*
X133478000Y-104902000D03*
X135128000Y-104902000D03*
D39*
X165989000Y-96266000D03*
X169799000Y-100076000D03*
X126619000Y-84836000D03*
X164719000Y-100076000D03*
X167259000Y-100076000D03*
X165989000Y-88646000D03*
X121539000Y-84836000D03*
X124079000Y-84836000D03*
X129159000Y-84836000D03*
X159639000Y-84836000D03*
X157099000Y-84836000D03*
X154559000Y-84836000D03*
X152019000Y-84836000D03*
X149479000Y-84836000D03*
X146939000Y-84836000D03*
X144399000Y-84836000D03*
X141859000Y-84836000D03*
X131699000Y-100076000D03*
X134239000Y-100076000D03*
X136779000Y-100076000D03*
X139319000Y-100076000D03*
X141859000Y-100076000D03*
X144399000Y-100076000D03*
X139319000Y-84836000D03*
X136779000Y-84836000D03*
X146939000Y-100076000D03*
X149479000Y-100076000D03*
X152019000Y-100076000D03*
X154559000Y-100076000D03*
X157099000Y-100076000D03*
X159639000Y-100076000D03*
X162179000Y-100076000D03*
X134239000Y-84836000D03*
X131699000Y-84836000D03*
X121539000Y-100076000D03*
X124079000Y-100076000D03*
X126619000Y-100076000D03*
X129159000Y-100076000D03*
X167259000Y-84836000D03*
X164719000Y-84836000D03*
X162179000Y-84836000D03*
X165989000Y-91186000D03*
X165989000Y-93726000D03*
X169799000Y-84836000D03*
D24*
X156972000Y-112281000D03*
X156972000Y-110731000D03*
X148590000Y-108484000D03*
X148590000Y-106934000D03*
D27*
X144526000Y-80392000D03*
X144526000Y-82042000D03*
D40*
X159732000Y-72431000D03*
X159732000Y-73081000D03*
X159732000Y-73731000D03*
X159732000Y-74381000D03*
X163957000Y-74381000D03*
X163957000Y-73731000D03*
X163957000Y-73081000D03*
X163957000Y-72431000D03*
D41*
X173448000Y-102108000D03*
X175548000Y-102108000D03*
D18*
X157747000Y-72644000D03*
X156197000Y-72644000D03*
D16*
X147702000Y-105156000D03*
X149352000Y-105156000D03*
D27*
X126492000Y-113920000D03*
X126492000Y-115570000D03*
X159766000Y-80392000D03*
X159766000Y-82042000D03*
D31*
X142494000Y-70114000D03*
D32*
X142494000Y-72654000D03*
X142494000Y-75194000D03*
X142494000Y-77734000D03*
D36*
X154432000Y-78486000D03*
X154432000Y-76836000D03*
D25*
X171322000Y-78232000D03*
X168022000Y-78232000D03*
D34*
X128524000Y-78994000D03*
X128524000Y-80894000D03*
D42*
X165908500Y-70866000D03*
X168033500Y-70866000D03*
D43*
X125830000Y-69342000D03*
X124180000Y-69342000D03*
D29*
X141017000Y-112268000D03*
X139192000Y-112268000D03*
D37*
X156184000Y-74422000D03*
X157734000Y-74422000D03*
D36*
X171958000Y-100710000D03*
X171958000Y-99060000D03*
D23*
X150906000Y-72644000D03*
X149606000Y-72644000D03*
D30*
X149860000Y-116049000D03*
X149860000Y-113949000D03*
D16*
X124206000Y-112268000D03*
X125856000Y-112268000D03*
D27*
X141986000Y-80392000D03*
X141986000Y-82042000D03*
D24*
X133604000Y-115405000D03*
X133604000Y-113855000D03*
D35*
X138938000Y-104965000D03*
X140763000Y-104965000D03*
D27*
X151892000Y-80392000D03*
X151892000Y-82042000D03*
D16*
X142622000Y-112268000D03*
X144272000Y-112268000D03*
D43*
X109728000Y-96520000D03*
X108078000Y-96520000D03*
D26*
X145034000Y-92684000D03*
X145034000Y-94234000D03*
D30*
X131826000Y-108746000D03*
X131826000Y-106646000D03*
D26*
X135382000Y-93726000D03*
X135382000Y-95276000D03*
D43*
X160891500Y-70612000D03*
X159241500Y-70612000D03*
D30*
X150622000Y-109000000D03*
X150622000Y-106900000D03*
D25*
X108078000Y-90932000D03*
X111378000Y-90932000D03*
D19*
X178816000Y-98176000D03*
D20*
X178816000Y-99446000D03*
X178816000Y-100716000D03*
X178816000Y-101986000D03*
D24*
X165908500Y-74194000D03*
X165908500Y-72644000D03*
D44*
X138806000Y-70358000D03*
X136906000Y-70358000D03*
D24*
X124714000Y-115570000D03*
X124714000Y-114020000D03*
D27*
X154432000Y-80392000D03*
X154432000Y-82042000D03*
D30*
X122682000Y-116112000D03*
X122682000Y-114012000D03*
D26*
X146812000Y-89636000D03*
X146812000Y-91186000D03*
D27*
X149352000Y-80392000D03*
X149352000Y-82042000D03*
D42*
X122589000Y-78994000D03*
X124714000Y-78994000D03*
D24*
X168956500Y-74194000D03*
X168956500Y-72644000D03*
D45*
X128712000Y-72909000D03*
X127762000Y-72909000D03*
X126812000Y-72909000D03*
X126812000Y-75184000D03*
X127762000Y-75184000D03*
X128712000Y-75184000D03*
D35*
X130048000Y-104902000D03*
X131873000Y-104902000D03*
D16*
X170308000Y-102362000D03*
X171958000Y-102362000D03*
D24*
X133858000Y-108204000D03*
X133858000Y-106654000D03*
D30*
X131572000Y-115887000D03*
X131572000Y-113787000D03*
D16*
X155830000Y-108966000D03*
X157480000Y-108966000D03*
D18*
X158268000Y-76962000D03*
X156718000Y-76962000D03*
D24*
X151892000Y-115533000D03*
X151892000Y-113983000D03*
D30*
X140716000Y-108809000D03*
X140716000Y-106709000D03*
D16*
X132970000Y-112077000D03*
X134620000Y-112077000D03*
D41*
X173448000Y-100076000D03*
X175548000Y-100076000D03*
D43*
X122656000Y-69342000D03*
X121006000Y-69342000D03*
D46*
X110411500Y-94930000D03*
X110411500Y-93030000D03*
X108536500Y-93980000D03*
D25*
X171322000Y-68580000D03*
X168022000Y-68580000D03*
D35*
X129540000Y-112077000D03*
X131365000Y-112077000D03*
D47*
X162306000Y-93598000D03*
X162306000Y-90298000D03*
D19*
X178816000Y-87884000D03*
D20*
X178816000Y-89154000D03*
X178816000Y-90424000D03*
X178816000Y-91694000D03*
X178816000Y-92964000D03*
X178816000Y-94234000D03*
D24*
X142748000Y-108293000D03*
X142748000Y-106743000D03*
D29*
X149860000Y-112205000D03*
X148035000Y-112205000D03*
D25*
X166496000Y-78232000D03*
X163196000Y-78232000D03*
D36*
X122682000Y-82676000D03*
X122682000Y-81026000D03*
D42*
X165815500Y-75946000D03*
X167940500Y-75946000D03*
D13*
X172316000Y-115570000D03*
X172316000Y-105410000D03*
D48*
X163426000Y-113660000D03*
D49*
X165966000Y-112390000D03*
X163426000Y-111120000D03*
X165966000Y-109850000D03*
X163426000Y-108580000D03*
X165966000Y-107310000D03*
D27*
X126746000Y-106363000D03*
X126746000Y-108013000D03*
D24*
X167432500Y-74194000D03*
X167432500Y-72644000D03*
D16*
X124714000Y-104839000D03*
X126364000Y-104839000D03*
D27*
X144780000Y-113983000D03*
X144780000Y-115633000D03*
X135636000Y-106680000D03*
X135636000Y-108330000D03*
D35*
X120650000Y-112268000D03*
X122475000Y-112268000D03*
M02*
