G04 #@! TF.GenerationSoftware,KiCad,Pcbnew,(6.0.0)*
G04 #@! TF.CreationDate,2022-01-06T20:39:03+01:00*
G04 #@! TF.ProjectId,soar_audio,736f6172-5f61-4756-9469-6f2e6b696361,v1.0*
G04 #@! TF.SameCoordinates,Original*
G04 #@! TF.FileFunction,Paste,Top*
G04 #@! TF.FilePolarity,Positive*
%FSLAX46Y46*%
G04 Gerber Fmt 4.6, Leading zero omitted, Abs format (unit mm)*
G04 Created by KiCad (PCBNEW (6.0.0)) date 2022-01-06 20:39:03*
%MOMM*%
%LPD*%
G01*
G04 APERTURE LIST*
G04 Aperture macros list*
%AMRoundRect*
0 Rectangle with rounded corners*
0 $1 Rounding radius*
0 $2 $3 $4 $5 $6 $7 $8 $9 X,Y pos of 4 corners*
0 Add a 4 corners polygon primitive as box body*
4,1,4,$2,$3,$4,$5,$6,$7,$8,$9,$2,$3,0*
0 Add four circle primitives for the rounded corners*
1,1,$1+$1,$2,$3*
1,1,$1+$1,$4,$5*
1,1,$1+$1,$6,$7*
1,1,$1+$1,$8,$9*
0 Add four rect primitives between the rounded corners*
20,1,$1+$1,$2,$3,$4,$5,0*
20,1,$1+$1,$4,$5,$6,$7,0*
20,1,$1+$1,$6,$7,$8,$9,0*
20,1,$1+$1,$8,$9,$2,$3,0*%
G04 Aperture macros list end*
%ADD10RoundRect,0.100000X0.675000X0.100000X-0.675000X0.100000X-0.675000X-0.100000X0.675000X-0.100000X0*%
%ADD11RoundRect,0.250001X0.354999X0.354999X-0.354999X0.354999X-0.354999X-0.354999X0.354999X-0.354999X0*%
%ADD12RoundRect,0.225000X-0.250000X0.225000X-0.250000X-0.225000X0.250000X-0.225000X0.250000X0.225000X0*%
%ADD13RoundRect,0.225000X0.225000X0.250000X-0.225000X0.250000X-0.225000X-0.250000X0.225000X-0.250000X0*%
%ADD14RoundRect,0.225000X0.250000X-0.225000X0.250000X0.225000X-0.250000X0.225000X-0.250000X-0.225000X0*%
%ADD15R,0.900000X1.200000*%
%ADD16RoundRect,0.200000X-0.275000X0.200000X-0.275000X-0.200000X0.275000X-0.200000X0.275000X0.200000X0*%
%ADD17RoundRect,0.225000X-0.225000X-0.250000X0.225000X-0.250000X0.225000X0.250000X-0.225000X0.250000X0*%
%ADD18RoundRect,0.150000X0.825000X0.150000X-0.825000X0.150000X-0.825000X-0.150000X0.825000X-0.150000X0*%
%ADD19RoundRect,0.200000X-0.200000X-0.275000X0.200000X-0.275000X0.200000X0.275000X-0.200000X0.275000X0*%
%ADD20RoundRect,0.250000X0.262500X0.450000X-0.262500X0.450000X-0.262500X-0.450000X0.262500X-0.450000X0*%
%ADD21R,0.450000X0.600000*%
%ADD22RoundRect,0.250000X-0.250000X-0.475000X0.250000X-0.475000X0.250000X0.475000X-0.250000X0.475000X0*%
%ADD23RoundRect,0.250000X-0.475000X0.250000X-0.475000X-0.250000X0.475000X-0.250000X0.475000X0.250000X0*%
%ADD24RoundRect,0.250000X-0.262500X-0.450000X0.262500X-0.450000X0.262500X0.450000X-0.262500X0.450000X0*%
%ADD25RoundRect,0.200000X0.275000X-0.200000X0.275000X0.200000X-0.275000X0.200000X-0.275000X-0.200000X0*%
%ADD26RoundRect,0.100000X-0.712500X-0.100000X0.712500X-0.100000X0.712500X0.100000X-0.712500X0.100000X0*%
%ADD27R,0.600000X0.450000*%
%ADD28RoundRect,0.218750X-0.218750X-0.381250X0.218750X-0.381250X0.218750X0.381250X-0.218750X0.381250X0*%
%ADD29RoundRect,0.200000X0.200000X0.275000X-0.200000X0.275000X-0.200000X-0.275000X0.200000X-0.275000X0*%
%ADD30RoundRect,0.250000X0.250000X0.475000X-0.250000X0.475000X-0.250000X-0.475000X0.250000X-0.475000X0*%
%ADD31RoundRect,0.218750X0.381250X-0.218750X0.381250X0.218750X-0.381250X0.218750X-0.381250X-0.218750X0*%
%ADD32RoundRect,0.150000X-0.150000X0.512500X-0.150000X-0.512500X0.150000X-0.512500X0.150000X0.512500X0*%
%ADD33R,1.500000X2.500000*%
%ADD34RoundRect,0.150000X0.587500X0.150000X-0.587500X0.150000X-0.587500X-0.150000X0.587500X-0.150000X0*%
%ADD35R,1.200000X0.900000*%
G04 APERTURE END LIST*
D10*
X143083000Y-93969000D03*
X143083000Y-93319000D03*
X143083000Y-92669000D03*
X143083000Y-92019000D03*
X143083000Y-91369000D03*
X143083000Y-90719000D03*
X143083000Y-90069000D03*
X143083000Y-89419000D03*
X137333000Y-89419000D03*
X137333000Y-90069000D03*
X137333000Y-90719000D03*
X137333000Y-91369000D03*
X137333000Y-92019000D03*
X137333000Y-92669000D03*
X137333000Y-93319000D03*
X137333000Y-93969000D03*
D11*
X140958000Y-92444000D03*
X140958000Y-90944000D03*
X139458000Y-92444000D03*
X139458000Y-90944000D03*
D12*
X145034000Y-87884000D03*
X145034000Y-89434000D03*
D13*
X148336000Y-93472000D03*
X146786000Y-93472000D03*
D12*
X146812000Y-89636000D03*
X146812000Y-91186000D03*
X135382000Y-93726000D03*
X135382000Y-95276000D03*
X145034000Y-92684000D03*
X145034000Y-94234000D03*
D14*
X143002000Y-115596000D03*
X143002000Y-114046000D03*
D15*
X166496000Y-68580000D03*
X163196000Y-68580000D03*
D12*
X170688000Y-72631000D03*
X170688000Y-74181000D03*
D16*
X121920000Y-95632000D03*
X121920000Y-97282000D03*
D17*
X133337000Y-78486000D03*
X134887000Y-78486000D03*
D18*
X119315000Y-95885000D03*
X119315000Y-94615000D03*
X119315000Y-93345000D03*
X119315000Y-92075000D03*
X114365000Y-92075000D03*
X114365000Y-93345000D03*
X114365000Y-94615000D03*
X114365000Y-95885000D03*
D14*
X124968000Y-108167000D03*
X124968000Y-106617000D03*
D16*
X144526000Y-106617000D03*
X144526000Y-108267000D03*
D19*
X151384000Y-112205000D03*
X153034000Y-112205000D03*
D20*
X152701000Y-105156000D03*
X150876000Y-105156000D03*
D21*
X122936000Y-108683000D03*
X122936000Y-106583000D03*
D22*
X108082000Y-88646000D03*
X109982000Y-88646000D03*
D21*
X140970000Y-116112000D03*
X140970000Y-114012000D03*
D13*
X134125000Y-69850000D03*
X132575000Y-69850000D03*
D23*
X125730000Y-71694000D03*
X125730000Y-73594000D03*
D24*
X121158000Y-104839000D03*
X122983000Y-104839000D03*
D25*
X157226000Y-82042000D03*
X157226000Y-80392000D03*
D15*
X131190000Y-75438000D03*
X127890000Y-75438000D03*
D21*
X159004000Y-112810000D03*
X159004000Y-110710000D03*
D13*
X134887000Y-80010000D03*
X133337000Y-80010000D03*
D19*
X142368000Y-104965000D03*
X144018000Y-104965000D03*
D16*
X153670000Y-113983000D03*
X153670000Y-115633000D03*
X135382000Y-113729000D03*
X135382000Y-115379000D03*
D20*
X160829000Y-108966000D03*
X159004000Y-108966000D03*
D14*
X127508000Y-73485000D03*
X127508000Y-71935000D03*
D16*
X147066000Y-80329000D03*
X147066000Y-81979000D03*
D19*
X133478000Y-104902000D03*
X135128000Y-104902000D03*
D14*
X156972000Y-112281000D03*
X156972000Y-110731000D03*
X148590000Y-108484000D03*
X148590000Y-106934000D03*
D16*
X144526000Y-80392000D03*
X144526000Y-82042000D03*
D26*
X159732000Y-72431000D03*
X159732000Y-73081000D03*
X159732000Y-73731000D03*
X159732000Y-74381000D03*
X163957000Y-74381000D03*
X163957000Y-73731000D03*
X163957000Y-73081000D03*
X163957000Y-72431000D03*
D27*
X173448000Y-102108000D03*
X175548000Y-102108000D03*
D13*
X157747000Y-72644000D03*
X156197000Y-72644000D03*
D19*
X147702000Y-105156000D03*
X149352000Y-105156000D03*
D16*
X126492000Y-113920000D03*
X126492000Y-115570000D03*
X159766000Y-80392000D03*
X159766000Y-82042000D03*
D25*
X154432000Y-78486000D03*
X154432000Y-76836000D03*
D15*
X171322000Y-78232000D03*
X168022000Y-78232000D03*
D23*
X123698000Y-71694000D03*
X123698000Y-73594000D03*
D28*
X165908500Y-70866000D03*
X168033500Y-70866000D03*
D16*
X125984000Y-68580000D03*
X125984000Y-70230000D03*
D20*
X141017000Y-112268000D03*
X139192000Y-112268000D03*
D17*
X156184000Y-74422000D03*
X157734000Y-74422000D03*
D25*
X171958000Y-100710000D03*
X171958000Y-99060000D03*
D21*
X149860000Y-116049000D03*
X149860000Y-113949000D03*
D19*
X124206000Y-112268000D03*
X125856000Y-112268000D03*
D16*
X141986000Y-80392000D03*
X141986000Y-82042000D03*
D14*
X133604000Y-115405000D03*
X133604000Y-113855000D03*
D24*
X138938000Y-104965000D03*
X140763000Y-104965000D03*
D16*
X151892000Y-80392000D03*
X151892000Y-82042000D03*
D19*
X142622000Y-112268000D03*
X144272000Y-112268000D03*
D29*
X109728000Y-96520000D03*
X108078000Y-96520000D03*
D21*
X131826000Y-108746000D03*
X131826000Y-106646000D03*
D29*
X160891500Y-70612000D03*
X159241500Y-70612000D03*
D21*
X150622000Y-109000000D03*
X150622000Y-106900000D03*
D15*
X108078000Y-90932000D03*
X111378000Y-90932000D03*
D14*
X165908500Y-74194000D03*
X165908500Y-72644000D03*
D30*
X135128000Y-76708000D03*
X133228000Y-76708000D03*
D14*
X124714000Y-115570000D03*
X124714000Y-114020000D03*
D16*
X154432000Y-80392000D03*
X154432000Y-82042000D03*
D21*
X122682000Y-116112000D03*
X122682000Y-114012000D03*
D16*
X149352000Y-80392000D03*
X149352000Y-82042000D03*
D31*
X121666000Y-73726000D03*
X121666000Y-71601000D03*
D14*
X168956500Y-74194000D03*
X168956500Y-72644000D03*
D32*
X130998000Y-70998500D03*
X130048000Y-70998500D03*
X129098000Y-70998500D03*
X129098000Y-73273500D03*
X130048000Y-73273500D03*
X130998000Y-73273500D03*
D24*
X130048000Y-104902000D03*
X131873000Y-104902000D03*
D19*
X170308000Y-102362000D03*
X171958000Y-102362000D03*
D14*
X133858000Y-108204000D03*
X133858000Y-106654000D03*
D33*
X132952000Y-73152000D03*
X136652000Y-73152000D03*
D21*
X131572000Y-115887000D03*
X131572000Y-113787000D03*
D19*
X155830000Y-108966000D03*
X157480000Y-108966000D03*
D13*
X158268000Y-76962000D03*
X156718000Y-76962000D03*
D14*
X151892000Y-115533000D03*
X151892000Y-113983000D03*
D21*
X140716000Y-108809000D03*
X140716000Y-106709000D03*
D19*
X132970000Y-112077000D03*
X134620000Y-112077000D03*
D27*
X173448000Y-100076000D03*
X175548000Y-100076000D03*
D25*
X127508000Y-70358000D03*
X127508000Y-68708000D03*
D34*
X110411500Y-94930000D03*
X110411500Y-93030000D03*
X108536500Y-93980000D03*
D15*
X171322000Y-68580000D03*
X168022000Y-68580000D03*
D24*
X129540000Y-112077000D03*
X131365000Y-112077000D03*
D35*
X162306000Y-93598000D03*
X162306000Y-90298000D03*
D14*
X142748000Y-108293000D03*
X142748000Y-106743000D03*
D20*
X149860000Y-112205000D03*
X148035000Y-112205000D03*
D15*
X166496000Y-78232000D03*
X163196000Y-78232000D03*
D25*
X122682000Y-82676000D03*
X122682000Y-81026000D03*
D28*
X165815500Y-75946000D03*
X167940500Y-75946000D03*
D16*
X126746000Y-106363000D03*
X126746000Y-108013000D03*
D14*
X167432500Y-74194000D03*
X167432500Y-72644000D03*
D19*
X124714000Y-104839000D03*
X126364000Y-104839000D03*
D16*
X144780000Y-113983000D03*
X144780000Y-115633000D03*
X135636000Y-106680000D03*
X135636000Y-108330000D03*
D24*
X120650000Y-112268000D03*
X122475000Y-112268000D03*
M02*
