G04 #@! TF.GenerationSoftware,KiCad,Pcbnew,(6.0.0)*
G04 #@! TF.CreationDate,2022-01-06T20:39:03+01:00*
G04 #@! TF.ProjectId,soar_audio,736f6172-5f61-4756-9469-6f2e6b696361,v1.0*
G04 #@! TF.SameCoordinates,Original*
G04 #@! TF.FileFunction,Soldermask,Bot*
G04 #@! TF.FilePolarity,Negative*
%FSLAX46Y46*%
G04 Gerber Fmt 4.6, Leading zero omitted, Abs format (unit mm)*
G04 Created by KiCad (PCBNEW (6.0.0)) date 2022-01-06 20:39:03*
%MOMM*%
%LPD*%
G01*
G04 APERTURE LIST*
%ADD10R,1.500000X1.500000*%
%ADD11C,1.500000*%
%ADD12C,3.250000*%
%ADD13C,2.300000*%
%ADD14R,1.000000X1.000000*%
%ADD15O,1.000000X1.000000*%
%ADD16R,1.700000X1.700000*%
%ADD17O,1.700000X1.700000*%
%ADD18R,3.000000X3.000000*%
%ADD19C,3.000000*%
%ADD20C,1.524000*%
%ADD21R,1.520000X1.520000*%
%ADD22C,1.520000*%
G04 APERTURE END LIST*
D10*
X109853000Y-80776000D03*
D11*
X109853000Y-78744000D03*
X109853000Y-76712000D03*
X109853000Y-74680000D03*
X111633000Y-79760000D03*
X111633000Y-77728000D03*
X111633000Y-75696000D03*
X111633000Y-73664000D03*
D12*
X107313000Y-83566000D03*
X107313000Y-70866000D03*
D13*
X110743000Y-69086000D03*
X110743000Y-85346000D03*
D10*
X109853000Y-111510000D03*
D11*
X109853000Y-109478000D03*
X109853000Y-107446000D03*
X109853000Y-105414000D03*
X111633000Y-110494000D03*
X111633000Y-108462000D03*
X111633000Y-106430000D03*
X111633000Y-104398000D03*
D12*
X107313000Y-114300000D03*
X107313000Y-101600000D03*
D13*
X110743000Y-99820000D03*
X110743000Y-116080000D03*
D14*
X103378000Y-94488000D03*
D15*
X103378000Y-95758000D03*
D16*
X143510000Y-69860000D03*
D17*
X143510000Y-72400000D03*
X143510000Y-74940000D03*
X143510000Y-77480000D03*
D14*
X113792000Y-89662000D03*
D15*
X113792000Y-88392000D03*
D14*
X178816000Y-80010000D03*
D15*
X178816000Y-81280000D03*
X178816000Y-82550000D03*
X178816000Y-83820000D03*
D18*
X176276000Y-75692000D03*
D19*
X176276000Y-70612000D03*
D20*
X165989000Y-96266000D03*
X169799000Y-100076000D03*
X126619000Y-84836000D03*
X164719000Y-100076000D03*
X167259000Y-100076000D03*
X165989000Y-88646000D03*
X121539000Y-84836000D03*
X124079000Y-84836000D03*
X129159000Y-84836000D03*
X159639000Y-84836000D03*
X157099000Y-84836000D03*
X154559000Y-84836000D03*
X152019000Y-84836000D03*
X149479000Y-84836000D03*
X146939000Y-84836000D03*
X144399000Y-84836000D03*
X141859000Y-84836000D03*
X131699000Y-100076000D03*
X134239000Y-100076000D03*
X136779000Y-100076000D03*
X139319000Y-100076000D03*
X141859000Y-100076000D03*
X144399000Y-100076000D03*
X139319000Y-84836000D03*
X136779000Y-84836000D03*
X146939000Y-100076000D03*
X149479000Y-100076000D03*
X152019000Y-100076000D03*
X154559000Y-100076000D03*
X157099000Y-100076000D03*
X159639000Y-100076000D03*
X162179000Y-100076000D03*
X134239000Y-84836000D03*
X131699000Y-84836000D03*
X121539000Y-100076000D03*
X124079000Y-100076000D03*
X126619000Y-100076000D03*
X129159000Y-100076000D03*
X167259000Y-84836000D03*
X164719000Y-84836000D03*
X162179000Y-84836000D03*
X165989000Y-91186000D03*
X165989000Y-93726000D03*
X169799000Y-84836000D03*
D16*
X139700000Y-69860000D03*
D17*
X139700000Y-72400000D03*
X139700000Y-74940000D03*
X139700000Y-77480000D03*
D14*
X178816000Y-98176000D03*
D15*
X178816000Y-99446000D03*
X178816000Y-100716000D03*
X178816000Y-101986000D03*
D14*
X178816000Y-87884000D03*
D15*
X178816000Y-89154000D03*
X178816000Y-90424000D03*
X178816000Y-91694000D03*
X178816000Y-92964000D03*
X178816000Y-94234000D03*
D12*
X172316000Y-115570000D03*
X172316000Y-105410000D03*
D21*
X163426000Y-113660000D03*
D22*
X165966000Y-112390000D03*
X163426000Y-111120000D03*
X165966000Y-109850000D03*
X163426000Y-108580000D03*
X165966000Y-107310000D03*
M02*
