G04 #@! TF.GenerationSoftware,KiCad,Pcbnew,(6.0.0)*
G04 #@! TF.CreationDate,2022-01-06T20:39:02+01:00*
G04 #@! TF.ProjectId,soar_audio,736f6172-5f61-4756-9469-6f2e6b696361,v1.0*
G04 #@! TF.SameCoordinates,Original*
G04 #@! TF.FileFunction,Copper,L1,Top*
G04 #@! TF.FilePolarity,Positive*
%FSLAX46Y46*%
G04 Gerber Fmt 4.6, Leading zero omitted, Abs format (unit mm)*
G04 Created by KiCad (PCBNEW (6.0.0)) date 2022-01-06 20:39:02*
%MOMM*%
%LPD*%
G01*
G04 APERTURE LIST*
G04 Aperture macros list*
%AMRoundRect*
0 Rectangle with rounded corners*
0 $1 Rounding radius*
0 $2 $3 $4 $5 $6 $7 $8 $9 X,Y pos of 4 corners*
0 Add a 4 corners polygon primitive as box body*
4,1,4,$2,$3,$4,$5,$6,$7,$8,$9,$2,$3,0*
0 Add four circle primitives for the rounded corners*
1,1,$1+$1,$2,$3*
1,1,$1+$1,$4,$5*
1,1,$1+$1,$6,$7*
1,1,$1+$1,$8,$9*
0 Add four rect primitives between the rounded corners*
20,1,$1+$1,$2,$3,$4,$5,0*
20,1,$1+$1,$4,$5,$6,$7,0*
20,1,$1+$1,$6,$7,$8,$9,0*
20,1,$1+$1,$8,$9,$2,$3,0*%
G04 Aperture macros list end*
G04 #@! TA.AperFunction,ComponentPad*
%ADD10R,1.500000X1.500000*%
G04 #@! TD*
G04 #@! TA.AperFunction,ComponentPad*
%ADD11C,1.500000*%
G04 #@! TD*
G04 #@! TA.AperFunction,ComponentPad*
%ADD12C,2.300000*%
G04 #@! TD*
G04 #@! TA.AperFunction,SMDPad,CuDef*
%ADD13RoundRect,0.100000X0.675000X0.100000X-0.675000X0.100000X-0.675000X-0.100000X0.675000X-0.100000X0*%
G04 #@! TD*
G04 #@! TA.AperFunction,SMDPad,CuDef*
%ADD14R,3.000000X3.000000*%
G04 #@! TD*
G04 #@! TA.AperFunction,SMDPad,CuDef*
%ADD15RoundRect,0.225000X-0.250000X0.225000X-0.250000X-0.225000X0.250000X-0.225000X0.250000X0.225000X0*%
G04 #@! TD*
G04 #@! TA.AperFunction,SMDPad,CuDef*
%ADD16RoundRect,0.225000X0.225000X0.250000X-0.225000X0.250000X-0.225000X-0.250000X0.225000X-0.250000X0*%
G04 #@! TD*
G04 #@! TA.AperFunction,ComponentPad*
%ADD17R,1.000000X1.000000*%
G04 #@! TD*
G04 #@! TA.AperFunction,ComponentPad*
%ADD18O,1.000000X1.000000*%
G04 #@! TD*
G04 #@! TA.AperFunction,SMDPad,CuDef*
%ADD19R,1.000000X1.500000*%
G04 #@! TD*
G04 #@! TA.AperFunction,SMDPad,CuDef*
%ADD20RoundRect,0.225000X0.250000X-0.225000X0.250000X0.225000X-0.250000X0.225000X-0.250000X-0.225000X0*%
G04 #@! TD*
G04 #@! TA.AperFunction,SMDPad,CuDef*
%ADD21R,0.900000X1.200000*%
G04 #@! TD*
G04 #@! TA.AperFunction,SMDPad,CuDef*
%ADD22RoundRect,0.200000X-0.275000X0.200000X-0.275000X-0.200000X0.275000X-0.200000X0.275000X0.200000X0*%
G04 #@! TD*
G04 #@! TA.AperFunction,SMDPad,CuDef*
%ADD23RoundRect,0.225000X-0.225000X-0.250000X0.225000X-0.250000X0.225000X0.250000X-0.225000X0.250000X0*%
G04 #@! TD*
G04 #@! TA.AperFunction,SMDPad,CuDef*
%ADD24RoundRect,0.150000X0.825000X0.150000X-0.825000X0.150000X-0.825000X-0.150000X0.825000X-0.150000X0*%
G04 #@! TD*
G04 #@! TA.AperFunction,SMDPad,CuDef*
%ADD25RoundRect,0.200000X-0.200000X-0.275000X0.200000X-0.275000X0.200000X0.275000X-0.200000X0.275000X0*%
G04 #@! TD*
G04 #@! TA.AperFunction,SMDPad,CuDef*
%ADD26RoundRect,0.250000X0.262500X0.450000X-0.262500X0.450000X-0.262500X-0.450000X0.262500X-0.450000X0*%
G04 #@! TD*
G04 #@! TA.AperFunction,SMDPad,CuDef*
%ADD27R,0.450000X0.600000*%
G04 #@! TD*
G04 #@! TA.AperFunction,ComponentPad*
%ADD28R,1.700000X1.700000*%
G04 #@! TD*
G04 #@! TA.AperFunction,ComponentPad*
%ADD29O,1.700000X1.700000*%
G04 #@! TD*
G04 #@! TA.AperFunction,SMDPad,CuDef*
%ADD30RoundRect,0.250000X-0.250000X-0.475000X0.250000X-0.475000X0.250000X0.475000X-0.250000X0.475000X0*%
G04 #@! TD*
G04 #@! TA.AperFunction,SMDPad,CuDef*
%ADD31RoundRect,0.250000X-0.475000X0.250000X-0.475000X-0.250000X0.475000X-0.250000X0.475000X0.250000X0*%
G04 #@! TD*
G04 #@! TA.AperFunction,SMDPad,CuDef*
%ADD32RoundRect,0.250000X-0.262500X-0.450000X0.262500X-0.450000X0.262500X0.450000X-0.262500X0.450000X0*%
G04 #@! TD*
G04 #@! TA.AperFunction,SMDPad,CuDef*
%ADD33RoundRect,0.200000X0.275000X-0.200000X0.275000X0.200000X-0.275000X0.200000X-0.275000X-0.200000X0*%
G04 #@! TD*
G04 #@! TA.AperFunction,ComponentPad*
%ADD34R,3.000000X3.000000*%
G04 #@! TD*
G04 #@! TA.AperFunction,ComponentPad*
%ADD35C,3.000000*%
G04 #@! TD*
G04 #@! TA.AperFunction,ComponentPad*
%ADD36C,1.524000*%
G04 #@! TD*
G04 #@! TA.AperFunction,SMDPad,CuDef*
%ADD37RoundRect,0.100000X-0.712500X-0.100000X0.712500X-0.100000X0.712500X0.100000X-0.712500X0.100000X0*%
G04 #@! TD*
G04 #@! TA.AperFunction,SMDPad,CuDef*
%ADD38R,0.600000X0.450000*%
G04 #@! TD*
G04 #@! TA.AperFunction,SMDPad,CuDef*
%ADD39RoundRect,0.218750X-0.218750X-0.381250X0.218750X-0.381250X0.218750X0.381250X-0.218750X0.381250X0*%
G04 #@! TD*
G04 #@! TA.AperFunction,SMDPad,CuDef*
%ADD40RoundRect,0.200000X0.200000X0.275000X-0.200000X0.275000X-0.200000X-0.275000X0.200000X-0.275000X0*%
G04 #@! TD*
G04 #@! TA.AperFunction,SMDPad,CuDef*
%ADD41RoundRect,0.250000X0.250000X0.475000X-0.250000X0.475000X-0.250000X-0.475000X0.250000X-0.475000X0*%
G04 #@! TD*
G04 #@! TA.AperFunction,SMDPad,CuDef*
%ADD42RoundRect,0.218750X0.381250X-0.218750X0.381250X0.218750X-0.381250X0.218750X-0.381250X-0.218750X0*%
G04 #@! TD*
G04 #@! TA.AperFunction,SMDPad,CuDef*
%ADD43RoundRect,0.150000X-0.150000X0.512500X-0.150000X-0.512500X0.150000X-0.512500X0.150000X0.512500X0*%
G04 #@! TD*
G04 #@! TA.AperFunction,SMDPad,CuDef*
%ADD44R,1.500000X2.500000*%
G04 #@! TD*
G04 #@! TA.AperFunction,SMDPad,CuDef*
%ADD45RoundRect,0.150000X0.587500X0.150000X-0.587500X0.150000X-0.587500X-0.150000X0.587500X-0.150000X0*%
G04 #@! TD*
G04 #@! TA.AperFunction,SMDPad,CuDef*
%ADD46R,1.200000X0.900000*%
G04 #@! TD*
G04 #@! TA.AperFunction,ComponentPad*
%ADD47R,1.520000X1.520000*%
G04 #@! TD*
G04 #@! TA.AperFunction,ComponentPad*
%ADD48C,1.520000*%
G04 #@! TD*
G04 #@! TA.AperFunction,ViaPad*
%ADD49C,0.900000*%
G04 #@! TD*
G04 #@! TA.AperFunction,Conductor*
%ADD50C,0.250000*%
G04 #@! TD*
G04 #@! TA.AperFunction,Conductor*
%ADD51C,0.500000*%
G04 #@! TD*
G04 #@! TA.AperFunction,Conductor*
%ADD52C,0.750000*%
G04 #@! TD*
G04 APERTURE END LIST*
G36*
X153920000Y-72944000D02*
G01*
X153420000Y-72944000D01*
X153420000Y-72344000D01*
X153920000Y-72344000D01*
X153920000Y-72944000D01*
G37*
D10*
X109853000Y-80776000D03*
D11*
X109853000Y-78744000D03*
X109853000Y-76712000D03*
X109853000Y-74680000D03*
X111633000Y-79760000D03*
X111633000Y-77728000D03*
X111633000Y-75696000D03*
X111633000Y-73664000D03*
D12*
X110743000Y-69086000D03*
X110743000Y-85346000D03*
D10*
X109853000Y-111510000D03*
D11*
X109853000Y-109478000D03*
X109853000Y-107446000D03*
X109853000Y-105414000D03*
X111633000Y-110494000D03*
X111633000Y-108462000D03*
X111633000Y-106430000D03*
X111633000Y-104398000D03*
D12*
X110743000Y-99820000D03*
X110743000Y-116080000D03*
D13*
X143083000Y-93969000D03*
X143083000Y-93319000D03*
X143083000Y-92669000D03*
X143083000Y-92019000D03*
X143083000Y-91369000D03*
X143083000Y-90719000D03*
X143083000Y-90069000D03*
X143083000Y-89419000D03*
X137333000Y-89419000D03*
X137333000Y-90069000D03*
X137333000Y-90719000D03*
X137333000Y-91369000D03*
X137333000Y-92019000D03*
X137333000Y-92669000D03*
X137333000Y-93319000D03*
X137333000Y-93969000D03*
D14*
X140208000Y-91694000D03*
D15*
X145034000Y-87884000D03*
X145034000Y-89434000D03*
D16*
X148336000Y-93472000D03*
X146786000Y-93472000D03*
D15*
X146812000Y-89636000D03*
X146812000Y-91186000D03*
X135382000Y-93726000D03*
X135382000Y-95276000D03*
X145034000Y-92684000D03*
X145034000Y-94234000D03*
D17*
X103378000Y-94488000D03*
D18*
X103378000Y-95758000D03*
D19*
X153020000Y-72644000D03*
X154320000Y-72644000D03*
D20*
X143002000Y-115596000D03*
X143002000Y-114046000D03*
D21*
X166496000Y-68580000D03*
X163196000Y-68580000D03*
D15*
X170688000Y-72631000D03*
X170688000Y-74181000D03*
D22*
X121920000Y-95632000D03*
X121920000Y-97282000D03*
D23*
X133337000Y-78486000D03*
X134887000Y-78486000D03*
D24*
X119315000Y-95885000D03*
X119315000Y-94615000D03*
X119315000Y-93345000D03*
X119315000Y-92075000D03*
X114365000Y-92075000D03*
X114365000Y-93345000D03*
X114365000Y-94615000D03*
X114365000Y-95885000D03*
D20*
X124968000Y-108167000D03*
X124968000Y-106617000D03*
D22*
X144526000Y-106617000D03*
X144526000Y-108267000D03*
D25*
X151384000Y-112205000D03*
X153034000Y-112205000D03*
D26*
X152701000Y-105156000D03*
X150876000Y-105156000D03*
D27*
X122936000Y-108683000D03*
X122936000Y-106583000D03*
D28*
X143510000Y-69860000D03*
D29*
X143510000Y-72400000D03*
X143510000Y-74940000D03*
X143510000Y-77480000D03*
D30*
X108082000Y-88646000D03*
X109982000Y-88646000D03*
D27*
X140970000Y-116112000D03*
X140970000Y-114012000D03*
D16*
X134125000Y-69850000D03*
X132575000Y-69850000D03*
D31*
X125730000Y-71694000D03*
X125730000Y-73594000D03*
D32*
X121158000Y-104839000D03*
X122983000Y-104839000D03*
D33*
X157226000Y-82042000D03*
X157226000Y-80392000D03*
D21*
X131190000Y-75438000D03*
X127890000Y-75438000D03*
D27*
X159004000Y-112810000D03*
X159004000Y-110710000D03*
D16*
X134887000Y-80010000D03*
X133337000Y-80010000D03*
D19*
X119350000Y-81788000D03*
X120650000Y-81788000D03*
D25*
X142368000Y-104965000D03*
X144018000Y-104965000D03*
D22*
X153670000Y-113983000D03*
X153670000Y-115633000D03*
D17*
X113792000Y-89662000D03*
D18*
X113792000Y-88392000D03*
D22*
X135382000Y-113729000D03*
X135382000Y-115379000D03*
D26*
X160829000Y-108966000D03*
X159004000Y-108966000D03*
D20*
X127508000Y-73485000D03*
X127508000Y-71935000D03*
D17*
X178816000Y-80010000D03*
D18*
X178816000Y-81280000D03*
X178816000Y-82550000D03*
X178816000Y-83820000D03*
D22*
X147066000Y-80329000D03*
X147066000Y-81979000D03*
D34*
X176276000Y-75692000D03*
D35*
X176276000Y-70612000D03*
D25*
X133478000Y-104902000D03*
X135128000Y-104902000D03*
D36*
X165989000Y-96266000D03*
X169799000Y-100076000D03*
X126619000Y-84836000D03*
X164719000Y-100076000D03*
X167259000Y-100076000D03*
X165989000Y-88646000D03*
X121539000Y-84836000D03*
X124079000Y-84836000D03*
X129159000Y-84836000D03*
X159639000Y-84836000D03*
X157099000Y-84836000D03*
X154559000Y-84836000D03*
X152019000Y-84836000D03*
X149479000Y-84836000D03*
X146939000Y-84836000D03*
X144399000Y-84836000D03*
X141859000Y-84836000D03*
X131699000Y-100076000D03*
X134239000Y-100076000D03*
X136779000Y-100076000D03*
X139319000Y-100076000D03*
X141859000Y-100076000D03*
X144399000Y-100076000D03*
X139319000Y-84836000D03*
X136779000Y-84836000D03*
X146939000Y-100076000D03*
X149479000Y-100076000D03*
X152019000Y-100076000D03*
X154559000Y-100076000D03*
X157099000Y-100076000D03*
X159639000Y-100076000D03*
X162179000Y-100076000D03*
X134239000Y-84836000D03*
X131699000Y-84836000D03*
X121539000Y-100076000D03*
X124079000Y-100076000D03*
X126619000Y-100076000D03*
X129159000Y-100076000D03*
X167259000Y-84836000D03*
X164719000Y-84836000D03*
X162179000Y-84836000D03*
X165989000Y-91186000D03*
X165989000Y-93726000D03*
X169799000Y-84836000D03*
D20*
X156972000Y-112281000D03*
X156972000Y-110731000D03*
X148590000Y-108484000D03*
X148590000Y-106934000D03*
D22*
X144526000Y-80392000D03*
X144526000Y-82042000D03*
D37*
X159732000Y-72431000D03*
X159732000Y-73081000D03*
X159732000Y-73731000D03*
X159732000Y-74381000D03*
X163957000Y-74381000D03*
X163957000Y-73731000D03*
X163957000Y-73081000D03*
X163957000Y-72431000D03*
D38*
X173448000Y-102108000D03*
X175548000Y-102108000D03*
D16*
X157747000Y-72644000D03*
X156197000Y-72644000D03*
D25*
X147702000Y-105156000D03*
X149352000Y-105156000D03*
D22*
X126492000Y-113920000D03*
X126492000Y-115570000D03*
X159766000Y-80392000D03*
X159766000Y-82042000D03*
D28*
X139700000Y-69860000D03*
D29*
X139700000Y-72400000D03*
X139700000Y-74940000D03*
X139700000Y-77480000D03*
D33*
X154432000Y-78486000D03*
X154432000Y-76836000D03*
D21*
X171322000Y-78232000D03*
X168022000Y-78232000D03*
D31*
X123698000Y-71694000D03*
X123698000Y-73594000D03*
D39*
X165908500Y-70866000D03*
X168033500Y-70866000D03*
D22*
X125984000Y-68580000D03*
X125984000Y-70230000D03*
D26*
X141017000Y-112268000D03*
X139192000Y-112268000D03*
D23*
X156184000Y-74422000D03*
X157734000Y-74422000D03*
D33*
X171958000Y-100710000D03*
X171958000Y-99060000D03*
D19*
X150906000Y-72644000D03*
X149606000Y-72644000D03*
D27*
X149860000Y-116049000D03*
X149860000Y-113949000D03*
D25*
X124206000Y-112268000D03*
X125856000Y-112268000D03*
D22*
X141986000Y-80392000D03*
X141986000Y-82042000D03*
D20*
X133604000Y-115405000D03*
X133604000Y-113855000D03*
D32*
X138938000Y-104965000D03*
X140763000Y-104965000D03*
D22*
X151892000Y-80392000D03*
X151892000Y-82042000D03*
D25*
X142622000Y-112268000D03*
X144272000Y-112268000D03*
D40*
X109728000Y-96520000D03*
X108078000Y-96520000D03*
D27*
X131826000Y-108746000D03*
X131826000Y-106646000D03*
D40*
X160891500Y-70612000D03*
X159241500Y-70612000D03*
D27*
X150622000Y-109000000D03*
X150622000Y-106900000D03*
D21*
X108078000Y-90932000D03*
X111378000Y-90932000D03*
D17*
X178816000Y-98176000D03*
D18*
X178816000Y-99446000D03*
X178816000Y-100716000D03*
X178816000Y-101986000D03*
D20*
X165908500Y-74194000D03*
X165908500Y-72644000D03*
D41*
X135128000Y-76708000D03*
X133228000Y-76708000D03*
D20*
X124714000Y-115570000D03*
X124714000Y-114020000D03*
D22*
X154432000Y-80392000D03*
X154432000Y-82042000D03*
D27*
X122682000Y-116112000D03*
X122682000Y-114012000D03*
D22*
X149352000Y-80392000D03*
X149352000Y-82042000D03*
D42*
X121666000Y-73726000D03*
X121666000Y-71601000D03*
D20*
X168956500Y-74194000D03*
X168956500Y-72644000D03*
D43*
X130998000Y-70998500D03*
X130048000Y-70998500D03*
X129098000Y-70998500D03*
X129098000Y-73273500D03*
X130048000Y-73273500D03*
X130998000Y-73273500D03*
D32*
X130048000Y-104902000D03*
X131873000Y-104902000D03*
D25*
X170308000Y-102362000D03*
X171958000Y-102362000D03*
D20*
X133858000Y-108204000D03*
X133858000Y-106654000D03*
D44*
X132952000Y-73152000D03*
X136652000Y-73152000D03*
D27*
X131572000Y-115887000D03*
X131572000Y-113787000D03*
D25*
X155830000Y-108966000D03*
X157480000Y-108966000D03*
D16*
X158268000Y-76962000D03*
X156718000Y-76962000D03*
D20*
X151892000Y-115533000D03*
X151892000Y-113983000D03*
D27*
X140716000Y-108809000D03*
X140716000Y-106709000D03*
D25*
X132970000Y-112077000D03*
X134620000Y-112077000D03*
D38*
X173448000Y-100076000D03*
X175548000Y-100076000D03*
D33*
X127508000Y-70358000D03*
X127508000Y-68708000D03*
D45*
X110411500Y-94930000D03*
X110411500Y-93030000D03*
X108536500Y-93980000D03*
D21*
X171322000Y-68580000D03*
X168022000Y-68580000D03*
D32*
X129540000Y-112077000D03*
X131365000Y-112077000D03*
D46*
X162306000Y-93598000D03*
X162306000Y-90298000D03*
D17*
X178816000Y-87884000D03*
D18*
X178816000Y-89154000D03*
X178816000Y-90424000D03*
X178816000Y-91694000D03*
X178816000Y-92964000D03*
X178816000Y-94234000D03*
D20*
X142748000Y-108293000D03*
X142748000Y-106743000D03*
D26*
X149860000Y-112205000D03*
X148035000Y-112205000D03*
D21*
X166496000Y-78232000D03*
X163196000Y-78232000D03*
D33*
X122682000Y-82676000D03*
X122682000Y-81026000D03*
D39*
X165815500Y-75946000D03*
X167940500Y-75946000D03*
D47*
X163426000Y-113660000D03*
D48*
X165966000Y-112390000D03*
X163426000Y-111120000D03*
X165966000Y-109850000D03*
X163426000Y-108580000D03*
X165966000Y-107310000D03*
D22*
X126746000Y-106363000D03*
X126746000Y-108013000D03*
D20*
X167432500Y-74194000D03*
X167432500Y-72644000D03*
D25*
X124714000Y-104839000D03*
X126364000Y-104839000D03*
D22*
X144780000Y-113983000D03*
X144780000Y-115633000D03*
X135636000Y-106680000D03*
X135636000Y-108330000D03*
D32*
X120650000Y-112268000D03*
X122475000Y-112268000D03*
D49*
X135215345Y-91352655D03*
X133350000Y-92710000D03*
X146558000Y-88138000D03*
X148336000Y-92202000D03*
X136352000Y-94950000D03*
X134112000Y-93980000D03*
X158242000Y-75692000D03*
X132588000Y-108458000D03*
X149606000Y-108966000D03*
X157988000Y-112776000D03*
X162557877Y-72831500D03*
X132969000Y-77597000D03*
X141732000Y-115824000D03*
X110998000Y-96520000D03*
X121158000Y-94488000D03*
X123444000Y-115824000D03*
X171704000Y-74168000D03*
X150876000Y-116078000D03*
X164338000Y-78232000D03*
X141732000Y-108712000D03*
X133858000Y-76708000D03*
X132423000Y-115405000D03*
X111506000Y-88646000D03*
X173228000Y-101092000D03*
X156677606Y-74943175D03*
X165310662Y-72956500D03*
X132080000Y-76708000D03*
X132842000Y-75946000D03*
X123735000Y-108167000D03*
X164338000Y-68580000D03*
X126746000Y-109220000D03*
X136906000Y-107442000D03*
X136398000Y-114554000D03*
X154940000Y-115062000D03*
X169672000Y-83566000D03*
X144526000Y-108966000D03*
X117602000Y-93472000D03*
X146050000Y-114808000D03*
X127508000Y-114554000D03*
X145796000Y-97536000D03*
X128270000Y-112014000D03*
X137922000Y-104140000D03*
X148844000Y-110744000D03*
X114046000Y-103365500D03*
X129794000Y-103136500D03*
X139954000Y-110998000D03*
X156210000Y-93472000D03*
X155702000Y-110236000D03*
X146812000Y-103124000D03*
X152908000Y-106426000D03*
D50*
X136327000Y-91369000D02*
X137333000Y-91369000D01*
X133391000Y-92669000D02*
X133350000Y-92710000D01*
X137333000Y-92669000D02*
X133391000Y-92669000D01*
X135881690Y-92019000D02*
X135215345Y-91352655D01*
X137333000Y-92019000D02*
X135881690Y-92019000D01*
X136327000Y-91369000D02*
X131699000Y-86741000D01*
X131699000Y-84836000D02*
X131699000Y-86741000D01*
X134112000Y-87884000D02*
X134112000Y-84963000D01*
X137333000Y-90719000D02*
X136607639Y-90719000D01*
X136607639Y-90719000D02*
X134112000Y-88223361D01*
X134112000Y-88223361D02*
X134112000Y-87884000D01*
X134112000Y-84963000D02*
X134239000Y-84836000D01*
X146304000Y-87884000D02*
X146558000Y-88138000D01*
X145034000Y-87884000D02*
X146304000Y-87884000D01*
X148336000Y-93472000D02*
X148336000Y-92202000D01*
X145034000Y-90424000D02*
X145034000Y-89434000D01*
X144739000Y-90719000D02*
X145034000Y-90424000D01*
X143083000Y-90719000D02*
X144739000Y-90719000D01*
X144144283Y-91186000D02*
X143961283Y-91369000D01*
X145542000Y-91186000D02*
X144144283Y-91186000D01*
X146812000Y-89916000D02*
X145542000Y-91186000D01*
X143961283Y-91369000D02*
X143083000Y-91369000D01*
X146812000Y-89636000D02*
X146812000Y-89916000D01*
X146304000Y-91694000D02*
X146812000Y-91186000D01*
X144272000Y-91694000D02*
X146304000Y-91694000D01*
X143947000Y-92019000D02*
X144272000Y-91694000D01*
X143083000Y-92019000D02*
X143947000Y-92019000D01*
X143098000Y-92684000D02*
X143083000Y-92669000D01*
X145034000Y-92684000D02*
X143098000Y-92684000D01*
X146773480Y-93459480D02*
X146786000Y-93472000D01*
X143083000Y-93319000D02*
X144416862Y-93319000D01*
X144416862Y-93319000D02*
X144557342Y-93459480D01*
X144557342Y-93459480D02*
X146773480Y-93459480D01*
X143348000Y-94234000D02*
X143083000Y-93969000D01*
X145034000Y-94234000D02*
X143348000Y-94234000D01*
X136026000Y-95276000D02*
X136352000Y-94950000D01*
X135382000Y-95276000D02*
X136026000Y-95276000D01*
X136352000Y-94950000D02*
X137333000Y-93969000D01*
X134366000Y-93726000D02*
X134112000Y-93980000D01*
X135382000Y-93726000D02*
X134366000Y-93726000D01*
X135789000Y-93319000D02*
X135382000Y-93726000D01*
X137333000Y-93319000D02*
X135789000Y-93319000D01*
X121539000Y-92075000D02*
X119315000Y-92075000D01*
X127000000Y-97536000D02*
X121539000Y-92075000D01*
X142748000Y-97536000D02*
X127000000Y-97536000D01*
X144272000Y-96012000D02*
X142748000Y-97536000D01*
X147574000Y-96012000D02*
X144272000Y-96012000D01*
X149098000Y-97536000D02*
X147574000Y-96012000D01*
X161543282Y-97536000D02*
X149098000Y-97536000D01*
X163322000Y-99314718D02*
X161543282Y-97536000D01*
X162814000Y-101346000D02*
X163322000Y-100838000D01*
X163322000Y-100838000D02*
X163322000Y-99314718D01*
X159639000Y-100076000D02*
X160909000Y-101346000D01*
X160909000Y-101346000D02*
X162814000Y-101346000D01*
X160655000Y-98552000D02*
X162179000Y-100076000D01*
X148590000Y-98552000D02*
X160655000Y-98552000D01*
X146799489Y-96761489D02*
X148590000Y-98552000D01*
X145046511Y-96761489D02*
X146799489Y-96761489D01*
X143256000Y-98552000D02*
X145046511Y-96761489D01*
X124406783Y-98552000D02*
X143256000Y-98552000D01*
X122412263Y-96557480D02*
X124406783Y-98552000D01*
X119987480Y-96557480D02*
X122412263Y-96557480D01*
X119315000Y-95885000D02*
X119987480Y-96557480D01*
D51*
X110744000Y-71120000D02*
X104394000Y-77470000D01*
X108082000Y-88646000D02*
X108082000Y-88270000D01*
X104394000Y-84582000D02*
X104394000Y-77470000D01*
X121666000Y-73726000D02*
X116398000Y-73726000D01*
X116398000Y-73726000D02*
X113792000Y-71120000D01*
X108078000Y-88650000D02*
X108082000Y-88646000D01*
X110176000Y-93030000D02*
X108078000Y-90932000D01*
X108078000Y-90932000D02*
X108078000Y-88650000D01*
X113792000Y-71120000D02*
X110744000Y-71120000D01*
X110411500Y-93030000D02*
X110176000Y-93030000D01*
X108082000Y-88270000D02*
X104394000Y-84582000D01*
D50*
X156972000Y-112281000D02*
X157493000Y-112281000D01*
X119315000Y-94615000D02*
X120903000Y-94615000D01*
D51*
X165908500Y-72644000D02*
X168956500Y-72644000D01*
D50*
X124714000Y-115570000D02*
X123224000Y-115570000D01*
D52*
X134930511Y-71176511D02*
X135382000Y-70725022D01*
D50*
X142748000Y-108293000D02*
X142151000Y-108293000D01*
D51*
X170688000Y-74181000D02*
X170493500Y-74181000D01*
D52*
X135128000Y-71374000D02*
X135128000Y-74930000D01*
D50*
X149640000Y-109000000D02*
X149606000Y-108966000D01*
X156184000Y-74422000D02*
X156184000Y-74449569D01*
X141732000Y-108712000D02*
X140813000Y-108712000D01*
D52*
X127890000Y-74296000D02*
X127890000Y-75438000D01*
D50*
X157493000Y-112281000D02*
X157988000Y-112776000D01*
X122936000Y-108683000D02*
X123219000Y-108683000D01*
X132300000Y-108746000D02*
X132588000Y-108458000D01*
X158475000Y-112281000D02*
X159004000Y-112810000D01*
D52*
X133337000Y-76817000D02*
X133228000Y-76708000D01*
D50*
X150622000Y-109000000D02*
X149640000Y-109000000D01*
D51*
X163196000Y-78232000D02*
X164338000Y-78232000D01*
D52*
X133228000Y-76068000D02*
X134620000Y-74676000D01*
D50*
X131572000Y-115887000D02*
X131941000Y-115887000D01*
X156972000Y-112281000D02*
X158475000Y-112281000D01*
D52*
X134620000Y-75324953D02*
X134620000Y-74676000D01*
D50*
X141960000Y-115596000D02*
X141732000Y-115824000D01*
X121920000Y-95632000D02*
X121920000Y-95250000D01*
X162807377Y-73081000D02*
X162557877Y-72831500D01*
D52*
X134563692Y-68683000D02*
X131534546Y-68683000D01*
D50*
X121920000Y-95250000D02*
X121158000Y-94488000D01*
X131941000Y-115887000D02*
X132423000Y-115405000D01*
D51*
X170688000Y-74181000D02*
X171691000Y-74181000D01*
D50*
X123156000Y-116112000D02*
X123444000Y-115824000D01*
X133604000Y-115405000D02*
X132423000Y-115405000D01*
D52*
X134620000Y-71487022D02*
X134930511Y-71176511D01*
D50*
X158268000Y-76962000D02*
X158268000Y-75718000D01*
X151892000Y-115533000D02*
X151421000Y-115533000D01*
D52*
X133858000Y-76086953D02*
X134620000Y-75324953D01*
D50*
X163957000Y-73081000D02*
X162807377Y-73081000D01*
X173448000Y-100872000D02*
X173228000Y-101092000D01*
X122682000Y-116112000D02*
X123156000Y-116112000D01*
X156184000Y-74449569D02*
X156677606Y-74943175D01*
D52*
X134930511Y-71176511D02*
X135128000Y-71374000D01*
D50*
X140813000Y-108712000D02*
X140716000Y-108809000D01*
D52*
X133337000Y-77965000D02*
X132969000Y-77597000D01*
X123698000Y-73594000D02*
X127188000Y-73594000D01*
D50*
X165471500Y-73081000D02*
X163957000Y-73081000D01*
X173448000Y-100076000D02*
X173448000Y-100872000D01*
X173448000Y-102108000D02*
X173448000Y-101312000D01*
X131826000Y-108746000D02*
X132300000Y-108746000D01*
X163957000Y-73081000D02*
X165186162Y-73081000D01*
X173448000Y-101312000D02*
X173228000Y-101092000D01*
D51*
X171691000Y-74181000D02*
X171704000Y-74168000D01*
D50*
X158268000Y-75718000D02*
X158242000Y-75692000D01*
D52*
X132969000Y-77597000D02*
X132080000Y-76708000D01*
D50*
X150376000Y-115533000D02*
X149860000Y-116049000D01*
D52*
X133228000Y-76708000D02*
X132080000Y-76708000D01*
D50*
X109728000Y-96520000D02*
X110998000Y-96520000D01*
D52*
X133337000Y-78486000D02*
X133337000Y-77965000D01*
X133337000Y-80010000D02*
X133337000Y-76817000D01*
X127188000Y-73594000D02*
X127890000Y-74296000D01*
D51*
X163196000Y-68580000D02*
X164338000Y-68580000D01*
D50*
X151421000Y-115533000D02*
X150876000Y-116078000D01*
D51*
X109982000Y-88646000D02*
X111506000Y-88646000D01*
D50*
X132080000Y-76708000D02*
X132842000Y-75946000D01*
D52*
X134620000Y-74676000D02*
X134620000Y-71487022D01*
D50*
X123224000Y-115570000D02*
X122682000Y-116112000D01*
X120903000Y-94615000D02*
X121920000Y-95632000D01*
X151892000Y-115533000D02*
X150376000Y-115533000D01*
X150106000Y-108484000D02*
X150622000Y-109000000D01*
D52*
X134733047Y-75324953D02*
X134620000Y-75324953D01*
D51*
X170493500Y-74181000D02*
X168956500Y-72644000D01*
D50*
X143002000Y-115596000D02*
X141960000Y-115596000D01*
D52*
X131534546Y-68683000D02*
X130048000Y-70169546D01*
D50*
X165186162Y-73081000D02*
X165310662Y-72956500D01*
X127399000Y-73594000D02*
X127508000Y-73485000D01*
X124968000Y-108167000D02*
X123735000Y-108167000D01*
X142151000Y-108293000D02*
X141732000Y-108712000D01*
D52*
X127508000Y-68708000D02*
X128586454Y-68708000D01*
D50*
X148590000Y-108484000D02*
X150106000Y-108484000D01*
X133228000Y-76708000D02*
X133858000Y-76708000D01*
D52*
X135382000Y-70725022D02*
X135382000Y-69501308D01*
X128586454Y-68708000D02*
X130048000Y-70169546D01*
X132080000Y-76708000D02*
X129160000Y-76708000D01*
X129160000Y-76708000D02*
X127890000Y-75438000D01*
X133858000Y-76708000D02*
X133858000Y-76086953D01*
D50*
X141486000Y-115596000D02*
X140970000Y-116112000D01*
D52*
X130048000Y-70998500D02*
X130048000Y-70169546D01*
D50*
X133858000Y-76708000D02*
X132969000Y-77597000D01*
X165908500Y-72644000D02*
X165471500Y-73081000D01*
X133858000Y-108204000D02*
X132368000Y-108204000D01*
X123219000Y-108683000D02*
X123735000Y-108167000D01*
X132368000Y-108204000D02*
X131826000Y-108746000D01*
X143002000Y-115596000D02*
X141486000Y-115596000D01*
D52*
X133228000Y-76708000D02*
X133228000Y-76068000D01*
X135128000Y-74930000D02*
X134733047Y-75324953D01*
X135382000Y-69501308D02*
X134563692Y-68683000D01*
D50*
X123605000Y-71601000D02*
X123698000Y-71694000D01*
D52*
X130048000Y-73273500D02*
X129098000Y-73273500D01*
D50*
X127267000Y-71694000D02*
X127508000Y-71935000D01*
X127508000Y-71935000D02*
X127759500Y-71935000D01*
D52*
X121666000Y-71601000D02*
X127174000Y-71601000D01*
X127711658Y-71935000D02*
X127508000Y-71935000D01*
X127174000Y-71601000D02*
X127508000Y-71935000D01*
X129050158Y-73273500D02*
X127711658Y-71935000D01*
X129098000Y-73273500D02*
X129050158Y-73273500D01*
D50*
X133096000Y-71374000D02*
X133096000Y-73406000D01*
D52*
X131190000Y-74042000D02*
X131826000Y-73406000D01*
X130998000Y-73273500D02*
X131693500Y-73273500D01*
D50*
X134125000Y-70345000D02*
X134125000Y-69850000D01*
X133096000Y-71374000D02*
X134125000Y-70345000D01*
D52*
X131693500Y-73273500D02*
X131826000Y-73406000D01*
X131190000Y-75438000D02*
X131190000Y-74042000D01*
X131826000Y-73406000D02*
X133096000Y-73406000D01*
D50*
X132588000Y-70358000D02*
X132588000Y-69863000D01*
X132588000Y-69863000D02*
X132575000Y-69850000D01*
X131947500Y-70998500D02*
X132588000Y-70358000D01*
X131947500Y-70998500D02*
X130998000Y-70998500D01*
D51*
X171322000Y-68198000D02*
X170434000Y-67310000D01*
X160528000Y-68326000D02*
X160528000Y-69342000D01*
X145288000Y-68072000D02*
X146304000Y-69088000D01*
X170942000Y-86868000D02*
X165100000Y-86868000D01*
X161406489Y-71126989D02*
X161406489Y-73268489D01*
X161798000Y-73660000D02*
X161798000Y-80010000D01*
X172466000Y-84074000D02*
X172466000Y-85344000D01*
X163390511Y-88577489D02*
X163390511Y-89213489D01*
D52*
X134887000Y-80010000D02*
X134887000Y-76949000D01*
D51*
X170434000Y-82042000D02*
X171322000Y-81154000D01*
D50*
X126580520Y-67983480D02*
X138595480Y-67983480D01*
D51*
X163830000Y-82042000D02*
X170434000Y-82042000D01*
X139700000Y-77480000D02*
X139700000Y-74940000D01*
X138684000Y-68072000D02*
X145288000Y-68072000D01*
D52*
X136146000Y-73406000D02*
X136146000Y-75690000D01*
D51*
X161036000Y-69850000D02*
X161036000Y-70467500D01*
X172466000Y-85344000D02*
X170942000Y-86868000D01*
X138166000Y-74940000D02*
X139700000Y-74940000D01*
X162052000Y-73660000D02*
X162123000Y-73731000D01*
X171322000Y-68580000D02*
X171322000Y-68198000D01*
X161036000Y-70467500D02*
X160891500Y-70612000D01*
D50*
X138595480Y-67983480D02*
X138684000Y-68072000D01*
D51*
X163390511Y-89213489D02*
X162306000Y-90298000D01*
X136146000Y-75690000D02*
X136896000Y-74940000D01*
X161798000Y-73660000D02*
X162052000Y-73660000D01*
X165100000Y-86868000D02*
X163390511Y-88577489D01*
X170434000Y-82042000D02*
X172466000Y-84074000D01*
D50*
X125984000Y-68580000D02*
X126580520Y-67983480D01*
D51*
X138166000Y-74940000D02*
X138166000Y-68590000D01*
X160891500Y-70612000D02*
X161406489Y-71126989D01*
D52*
X136146000Y-75690000D02*
X135128000Y-76708000D01*
D51*
X146304000Y-69088000D02*
X146304000Y-69342000D01*
X138166000Y-68590000D02*
X138684000Y-68072000D01*
X167432500Y-74194000D02*
X165908500Y-74194000D01*
X162123000Y-73731000D02*
X163957000Y-73731000D01*
D52*
X134887000Y-76949000D02*
X135128000Y-76708000D01*
D51*
X161798000Y-80010000D02*
X163830000Y-82042000D01*
X136896000Y-74940000D02*
X138166000Y-74940000D01*
X161544000Y-67310000D02*
X160528000Y-68326000D01*
X161406489Y-73268489D02*
X161798000Y-73660000D01*
X146304000Y-69342000D02*
X160528000Y-69342000D01*
D50*
X163957000Y-73731000D02*
X165445500Y-73731000D01*
X165445500Y-73731000D02*
X165908500Y-74194000D01*
D51*
X160528000Y-69342000D02*
X161036000Y-69850000D01*
X170434000Y-67310000D02*
X161544000Y-67310000D01*
X171322000Y-81154000D02*
X171322000Y-78232000D01*
D50*
X119315000Y-93345000D02*
X117729000Y-93345000D01*
X117729000Y-93345000D02*
X117602000Y-93472000D01*
X154369000Y-115633000D02*
X154940000Y-115062000D01*
X170433000Y-100710000D02*
X169799000Y-100076000D01*
X136018000Y-108330000D02*
X136906000Y-107442000D01*
X145225000Y-115633000D02*
X146050000Y-114808000D01*
X135573000Y-115379000D02*
X136398000Y-114554000D01*
X126746000Y-108013000D02*
X126746000Y-109220000D01*
X153670000Y-115633000D02*
X154369000Y-115633000D01*
X135382000Y-115379000D02*
X135573000Y-115379000D01*
X144526000Y-108267000D02*
X144526000Y-108966000D01*
X135636000Y-108330000D02*
X136018000Y-108330000D01*
X169799000Y-84836000D02*
X169799000Y-83693000D01*
X144780000Y-115633000D02*
X145225000Y-115633000D01*
X170308000Y-100585000D02*
X169799000Y-100076000D01*
X170308000Y-102362000D02*
X170308000Y-100585000D01*
X126492000Y-115570000D02*
X127508000Y-114554000D01*
X171958000Y-100710000D02*
X170433000Y-100710000D01*
X157775000Y-74381000D02*
X157734000Y-74422000D01*
X159732000Y-74381000D02*
X157775000Y-74381000D01*
X158834000Y-73731000D02*
X157747000Y-72644000D01*
X159732000Y-73731000D02*
X158834000Y-73731000D01*
X154320000Y-72644000D02*
X156197000Y-72644000D01*
X111064000Y-94930000D02*
X111760000Y-94234000D01*
X108078000Y-96138000D02*
X109286000Y-94930000D01*
X111760000Y-91314000D02*
X111378000Y-90932000D01*
X109286000Y-94930000D02*
X110411500Y-94930000D01*
X111760000Y-94234000D02*
X111760000Y-91314000D01*
X110411500Y-94930000D02*
X111064000Y-94930000D01*
X108078000Y-96520000D02*
X108078000Y-96138000D01*
X122936000Y-104886000D02*
X122983000Y-104839000D01*
X122936000Y-106583000D02*
X122936000Y-104886000D01*
X122983000Y-104839000D02*
X124714000Y-104839000D01*
X153020000Y-72644000D02*
X150906000Y-72644000D01*
X154432000Y-76836000D02*
X156592000Y-76836000D01*
X153020000Y-75424000D02*
X154432000Y-76836000D01*
X153020000Y-72644000D02*
X153020000Y-75424000D01*
X156592000Y-76836000D02*
X156718000Y-76962000D01*
D51*
X163957000Y-71501000D02*
X164592000Y-70866000D01*
X163957000Y-72431000D02*
X163957000Y-71501000D01*
X168022000Y-68580000D02*
X166496000Y-68580000D01*
X165908500Y-70866000D02*
X165908500Y-69167500D01*
X165908500Y-69167500D02*
X166496000Y-68580000D01*
X164592000Y-70866000D02*
X165908500Y-70866000D01*
X106758500Y-95758000D02*
X108536500Y-93980000D01*
X103378000Y-95758000D02*
X106758500Y-95758000D01*
D50*
X121666000Y-83312000D02*
X115316000Y-83312000D01*
X109220000Y-82550000D02*
X111506000Y-82550000D01*
X116840000Y-92964000D02*
X116840000Y-89662000D01*
X114365000Y-94615000D02*
X115189000Y-94615000D01*
X112522000Y-83566000D02*
X111506000Y-82550000D01*
X115189000Y-94615000D02*
X116840000Y-92964000D01*
X108708000Y-78744000D02*
X107950000Y-79502000D01*
X115316000Y-83312000D02*
X113792000Y-84836000D01*
X113792000Y-88392000D02*
X113792000Y-84836000D01*
X116840000Y-89662000D02*
X115570000Y-88392000D01*
X122682000Y-82676000D02*
X122302000Y-82676000D01*
X107950000Y-81280000D02*
X109220000Y-82550000D01*
X122302000Y-82676000D02*
X121666000Y-83312000D01*
X115570000Y-88392000D02*
X113792000Y-88392000D01*
X113792000Y-84836000D02*
X112522000Y-83566000D01*
X109853000Y-78744000D02*
X108708000Y-78744000D01*
X107950000Y-79502000D02*
X107950000Y-81280000D01*
X114365000Y-93345000D02*
X115443000Y-93345000D01*
X119350000Y-81788000D02*
X115693000Y-81788000D01*
X116078000Y-92710000D02*
X116078000Y-90424000D01*
X115316000Y-89662000D02*
X113792000Y-89662000D01*
X116078000Y-90424000D02*
X115316000Y-89662000D01*
X115693000Y-81788000D02*
X111633000Y-77728000D01*
X115443000Y-93345000D02*
X116078000Y-92710000D01*
X174532000Y-103124000D02*
X175548000Y-102108000D01*
X175670000Y-101986000D02*
X175548000Y-102108000D01*
X171958000Y-102362000D02*
X172720000Y-103124000D01*
X172720000Y-103124000D02*
X174532000Y-103124000D01*
X178816000Y-101986000D02*
X175670000Y-101986000D01*
X174532000Y-99060000D02*
X175548000Y-100076000D01*
X177038000Y-100076000D02*
X177678000Y-100716000D01*
X177678000Y-100716000D02*
X178816000Y-100716000D01*
X171958000Y-99060000D02*
X174532000Y-99060000D01*
X175548000Y-100076000D02*
X177038000Y-100076000D01*
X159766000Y-80392000D02*
X141986000Y-80392000D01*
X154432000Y-80392000D02*
X154432000Y-78486000D01*
X149352000Y-80392000D02*
X149606000Y-80138000D01*
X149606000Y-80138000D02*
X149606000Y-72644000D01*
X121920000Y-81788000D02*
X122682000Y-81026000D01*
X120650000Y-81788000D02*
X121920000Y-81788000D01*
X125984000Y-70230000D02*
X127380000Y-70230000D01*
X128148500Y-70998500D02*
X127508000Y-70358000D01*
X127380000Y-70230000D02*
X127508000Y-70358000D01*
X129098000Y-70998500D02*
X128148500Y-70998500D01*
X121920000Y-97282000D02*
X115762000Y-97282000D01*
X115762000Y-97282000D02*
X114365000Y-95885000D01*
D51*
X165815500Y-75946000D02*
X164300020Y-74430520D01*
X166496000Y-76626500D02*
X165815500Y-75946000D01*
X164300020Y-74430520D02*
X163957000Y-74430520D01*
X166496000Y-78232000D02*
X168022000Y-78232000D01*
X166496000Y-78232000D02*
X166496000Y-76626500D01*
D50*
X144399000Y-100076000D02*
X144399000Y-98933000D01*
X144399000Y-98933000D02*
X145796000Y-97536000D01*
X159732000Y-72431000D02*
X159732000Y-71102500D01*
X159732000Y-71102500D02*
X159241500Y-70612000D01*
X114431000Y-101600000D02*
X111633000Y-104398000D01*
X121158000Y-103124000D02*
X119634000Y-101600000D01*
X119634000Y-101600000D02*
X114431000Y-101600000D01*
X121158000Y-104839000D02*
X121158000Y-103124000D01*
X128333000Y-112077000D02*
X128270000Y-112014000D01*
X129540000Y-112077000D02*
X128333000Y-112077000D01*
X138938000Y-104965000D02*
X138747000Y-104965000D01*
X138747000Y-104965000D02*
X137922000Y-104140000D01*
X149860000Y-112205000D02*
X149860000Y-111760000D01*
X149860000Y-111760000D02*
X148844000Y-110744000D01*
X113407000Y-112268000D02*
X111633000Y-110494000D01*
X120650000Y-112268000D02*
X113407000Y-112268000D01*
X130048000Y-103390500D02*
X129794000Y-103136500D01*
X114046000Y-106049000D02*
X111633000Y-108462000D01*
X114046000Y-106049000D02*
X114046000Y-103365500D01*
X130048000Y-104902000D02*
X130048000Y-103390500D01*
X141017000Y-112061000D02*
X139954000Y-110998000D01*
X141017000Y-112268000D02*
X141017000Y-112061000D01*
X126302000Y-104839000D02*
X121539000Y-100076000D01*
X124968000Y-106617000D02*
X126492000Y-106617000D01*
X126364000Y-104839000D02*
X126302000Y-104839000D01*
X126746000Y-106363000D02*
X126746000Y-105221000D01*
X126492000Y-106617000D02*
X126746000Y-106363000D01*
X126746000Y-105221000D02*
X126364000Y-104839000D01*
X129794000Y-110490000D02*
X134112000Y-110490000D01*
X135382000Y-112839000D02*
X134620000Y-112077000D01*
X135256000Y-113855000D02*
X135382000Y-113729000D01*
X128778000Y-109474000D02*
X129794000Y-110490000D01*
X135382000Y-113729000D02*
X135382000Y-112839000D01*
X134620000Y-110998000D02*
X134620000Y-112077000D01*
X134112000Y-110490000D02*
X134620000Y-110998000D01*
X128778000Y-102235000D02*
X128778000Y-109474000D01*
X126619000Y-100076000D02*
X128778000Y-102235000D01*
X133604000Y-113855000D02*
X135256000Y-113855000D01*
X124714000Y-114020000D02*
X126392000Y-114020000D01*
X126492000Y-112904000D02*
X125856000Y-112268000D01*
X125856000Y-112268000D02*
X128016000Y-110108000D01*
X128016000Y-104013000D02*
X124079000Y-100076000D01*
X126492000Y-113920000D02*
X126492000Y-112904000D01*
X128016000Y-110108000D02*
X128016000Y-104013000D01*
X126392000Y-114020000D02*
X126492000Y-113920000D01*
X135636000Y-105410000D02*
X135128000Y-104902000D01*
X135128000Y-104902000D02*
X134988440Y-104902000D01*
X135636000Y-106680000D02*
X135636000Y-105410000D01*
X135610000Y-106654000D02*
X135636000Y-106680000D01*
X132715000Y-103632000D02*
X129159000Y-100076000D01*
X134988440Y-104902000D02*
X133718440Y-103632000D01*
X133858000Y-106654000D02*
X135610000Y-106654000D01*
X133718440Y-103632000D02*
X132715000Y-103632000D01*
X144526000Y-105473000D02*
X144018000Y-104965000D01*
X142874000Y-106617000D02*
X142748000Y-106743000D01*
X144526000Y-106617000D02*
X144526000Y-105473000D01*
X144018000Y-104394000D02*
X144018000Y-104965000D01*
X134747000Y-103124000D02*
X142748000Y-103124000D01*
X144526000Y-106617000D02*
X142874000Y-106617000D01*
X142748000Y-103124000D02*
X144018000Y-104394000D01*
X131699000Y-100076000D02*
X134747000Y-103124000D01*
X135636000Y-102616000D02*
X144272000Y-102616000D01*
X144780000Y-113983000D02*
X144780000Y-112776000D01*
X144717000Y-114046000D02*
X144780000Y-113983000D01*
X144272000Y-102616000D02*
X145542000Y-103886000D01*
X134239000Y-101219000D02*
X135636000Y-102616000D01*
X134239000Y-100076000D02*
X134239000Y-101219000D01*
X143002000Y-114046000D02*
X144717000Y-114046000D01*
X145542000Y-110998000D02*
X144272000Y-112268000D01*
X145542000Y-103886000D02*
X145542000Y-110998000D01*
X144780000Y-112776000D02*
X144272000Y-112268000D01*
X131572000Y-112284000D02*
X131365000Y-112077000D01*
X132970000Y-112077000D02*
X131365000Y-112077000D01*
X131572000Y-113787000D02*
X131572000Y-112284000D01*
X122682000Y-112475000D02*
X122475000Y-112268000D01*
X124206000Y-112268000D02*
X122475000Y-112268000D01*
X122682000Y-114012000D02*
X122682000Y-112475000D01*
X133478000Y-104902000D02*
X131873000Y-104902000D01*
X131826000Y-104949000D02*
X131873000Y-104902000D01*
X131826000Y-106646000D02*
X131826000Y-104949000D01*
X140716000Y-105012000D02*
X140763000Y-104965000D01*
X142368000Y-104965000D02*
X140763000Y-104965000D01*
X140716000Y-106709000D02*
X140716000Y-105012000D01*
X140970000Y-113920000D02*
X142622000Y-112268000D01*
X139226000Y-112268000D02*
X140970000Y-114012000D01*
X140970000Y-114012000D02*
X140970000Y-113920000D01*
X139192000Y-112268000D02*
X139226000Y-112268000D01*
X149860000Y-113949000D02*
X151384000Y-112425000D01*
X148116000Y-112205000D02*
X149860000Y-113949000D01*
X148035000Y-112205000D02*
X148116000Y-112205000D01*
X151384000Y-112425000D02*
X151384000Y-112205000D01*
X149860000Y-104140000D02*
X148336000Y-104140000D01*
X147702000Y-104774000D02*
X147702000Y-105156000D01*
X148336000Y-104140000D02*
X147702000Y-104774000D01*
X150876000Y-106646000D02*
X150622000Y-106900000D01*
X150876000Y-105156000D02*
X149860000Y-104140000D01*
X150876000Y-105156000D02*
X150876000Y-106646000D01*
X168956500Y-74930000D02*
X167940500Y-75946000D01*
D51*
X170180000Y-75692000D02*
X176276000Y-75692000D01*
X168956500Y-74194000D02*
X168956500Y-74468500D01*
X168956500Y-74468500D02*
X170180000Y-75692000D01*
D50*
X168956500Y-74194000D02*
X168956500Y-74930000D01*
X164338000Y-91948000D02*
X157734000Y-91948000D01*
X178816000Y-91694000D02*
X167894000Y-91694000D01*
X164846000Y-92456000D02*
X164338000Y-91948000D01*
X167894000Y-91694000D02*
X167132000Y-92456000D01*
X167132000Y-92456000D02*
X164846000Y-92456000D01*
X157734000Y-91948000D02*
X156210000Y-93472000D01*
X179832000Y-95504000D02*
X179832000Y-93472000D01*
X168402000Y-98298000D02*
X169164000Y-97536000D01*
X150565511Y-101162511D02*
X152216511Y-101162511D01*
X179324000Y-92964000D02*
X178816000Y-92964000D01*
X154432000Y-103378000D02*
X166370000Y-103378000D01*
X166370000Y-103378000D02*
X168402000Y-101346000D01*
X173736000Y-97536000D02*
X175260000Y-96012000D01*
X175260000Y-96012000D02*
X179324000Y-96012000D01*
X168402000Y-101346000D02*
X168402000Y-98298000D01*
X152216511Y-101162511D02*
X154432000Y-103378000D01*
X149479000Y-100076000D02*
X150565511Y-101162511D01*
X179324000Y-96012000D02*
X179832000Y-95504000D01*
X179832000Y-93472000D02*
X179324000Y-92964000D01*
X169164000Y-97536000D02*
X173736000Y-97536000D01*
X164846000Y-102362000D02*
X165862000Y-101346000D01*
X165862000Y-99314000D02*
X168656000Y-96520000D01*
X168656000Y-96520000D02*
X172720000Y-96520000D01*
X152019000Y-100076000D02*
X154305000Y-102362000D01*
X172720000Y-96520000D02*
X175006000Y-94234000D01*
X154305000Y-102362000D02*
X164846000Y-102362000D01*
X175006000Y-94234000D02*
X178816000Y-94234000D01*
X165862000Y-101346000D02*
X165862000Y-99314000D01*
X156731000Y-110490000D02*
X156972000Y-110731000D01*
X156972000Y-109474000D02*
X157480000Y-108966000D01*
X156972000Y-110731000D02*
X156972000Y-109474000D01*
X155702000Y-110490000D02*
X156731000Y-110490000D01*
X136779000Y-100076000D02*
X136779000Y-101219000D01*
X153034000Y-113347000D02*
X153670000Y-113983000D01*
X154432000Y-104394000D02*
X154432000Y-110807000D01*
X154432000Y-110807000D02*
X153034000Y-112205000D01*
X151892000Y-101854000D02*
X154432000Y-104394000D01*
X151892000Y-113983000D02*
X153670000Y-113983000D01*
X153034000Y-112205000D02*
X153034000Y-113347000D01*
X137414000Y-101854000D02*
X151892000Y-101854000D01*
X136779000Y-101219000D02*
X137414000Y-101854000D01*
X147320000Y-106934000D02*
X146304000Y-105918000D01*
X148590000Y-106934000D02*
X147320000Y-106934000D01*
X146304000Y-103632000D02*
X146304000Y-105918000D01*
X146812000Y-103124000D02*
X146304000Y-103632000D01*
X148590000Y-106934000D02*
X148590000Y-105918000D01*
X148590000Y-105918000D02*
X149352000Y-105156000D01*
X155702000Y-108838000D02*
X155830000Y-108966000D01*
X155702000Y-108204000D02*
X155702000Y-108838000D01*
X159004000Y-108966000D02*
X159004000Y-108204000D01*
X159004000Y-108204000D02*
X158496000Y-107696000D01*
X156210000Y-107696000D02*
X155702000Y-108204000D01*
X159004000Y-110710000D02*
X159004000Y-108966000D01*
X158496000Y-107696000D02*
X156210000Y-107696000D01*
X152908000Y-105363000D02*
X152701000Y-105156000D01*
X152908000Y-106426000D02*
X152908000Y-105363000D01*
X161272000Y-108966000D02*
X160829000Y-108966000D01*
X163426000Y-111120000D02*
X161272000Y-108966000D01*
X159639000Y-82169000D02*
X159766000Y-82042000D01*
X159639000Y-84836000D02*
X159639000Y-82169000D01*
X157099000Y-84836000D02*
X157099000Y-82169000D01*
X157099000Y-82169000D02*
X157226000Y-82042000D01*
X154559000Y-82169000D02*
X154432000Y-82042000D01*
X154559000Y-84836000D02*
X154559000Y-82169000D01*
X152019000Y-82169000D02*
X151892000Y-82042000D01*
X152019000Y-84836000D02*
X152019000Y-82169000D01*
X149479000Y-82169000D02*
X149352000Y-82042000D01*
X149479000Y-84836000D02*
X149479000Y-82169000D01*
X146939000Y-82106000D02*
X147066000Y-81979000D01*
X146939000Y-84836000D02*
X146939000Y-82106000D01*
X144399000Y-82169000D02*
X144526000Y-82042000D01*
X144399000Y-84836000D02*
X144399000Y-82169000D01*
X141859000Y-84836000D02*
X141859000Y-82169000D01*
X141859000Y-82169000D02*
X141986000Y-82042000D01*
D51*
X170688000Y-72631000D02*
X170688000Y-71882000D01*
X169418000Y-70866000D02*
X168033500Y-70866000D01*
X171958000Y-70612000D02*
X176276000Y-70612000D01*
X170688000Y-72631000D02*
X170688000Y-72136000D01*
X170688000Y-71882000D02*
X171958000Y-70612000D01*
X170688000Y-72136000D02*
X169418000Y-70866000D01*
X164719000Y-100076000D02*
X164719000Y-98679000D01*
X162306000Y-96266000D02*
X162306000Y-93598000D01*
X164719000Y-98679000D02*
X162306000Y-96266000D01*
M02*
