%TF.GenerationSoftware,KiCad,Pcbnew,(6.0.0)*%
%TF.CreationDate,2022-01-05T18:10:33+01:00*%
%TF.ProjectId,soar_audio,736f6172-5f61-4756-9469-6f2e6b696361,rev?*%
%TF.SameCoordinates,Original*%
%TF.FileFunction,Copper,L1,Top*%
%TF.FilePolarity,Positive*%
%FSLAX46Y46*%
G04 Gerber Fmt 4.6, Leading zero omitted, Abs format (unit mm)*
G04 Created by KiCad (PCBNEW (6.0.0)) date 2022-01-05 18:10:33*
%MOMM*%
%LPD*%
G01*
G04 APERTURE LIST*
G04 Aperture macros list*
%AMRoundRect*
0 Rectangle with rounded corners*
0 $1 Rounding radius*
0 $2 $3 $4 $5 $6 $7 $8 $9 X,Y pos of 4 corners*
0 Add a 4 corners polygon primitive as box body*
4,1,4,$2,$3,$4,$5,$6,$7,$8,$9,$2,$3,0*
0 Add four circle primitives for the rounded corners*
1,1,$1+$1,$2,$3*
1,1,$1+$1,$4,$5*
1,1,$1+$1,$6,$7*
1,1,$1+$1,$8,$9*
0 Add four rect primitives between the rounded corners*
20,1,$1+$1,$2,$3,$4,$5,0*
20,1,$1+$1,$4,$5,$6,$7,0*
20,1,$1+$1,$6,$7,$8,$9,0*
20,1,$1+$1,$8,$9,$2,$3,0*%
G04 Aperture macros list end*
%TA.AperFunction,ComponentPad*%
%ADD10R,1.500000X1.500000*%
%TD*%
%TA.AperFunction,ComponentPad*%
%ADD11C,1.500000*%
%TD*%
%TA.AperFunction,ComponentPad*%
%ADD12C,2.300000*%
%TD*%
%TA.AperFunction,SMDPad,CuDef*%
%ADD13R,1.500000X2.500000*%
%TD*%
%TA.AperFunction,ComponentPad*%
%ADD14R,1.700000X1.700000*%
%TD*%
%TA.AperFunction,ComponentPad*%
%ADD15O,1.700000X1.700000*%
%TD*%
%TA.AperFunction,SMDPad,CuDef*%
%ADD16RoundRect,0.225000X-0.225000X-0.250000X0.225000X-0.250000X0.225000X0.250000X-0.225000X0.250000X0*%
%TD*%
%TA.AperFunction,SMDPad,CuDef*%
%ADD17RoundRect,0.225000X0.225000X0.250000X-0.225000X0.250000X-0.225000X-0.250000X0.225000X-0.250000X0*%
%TD*%
%TA.AperFunction,SMDPad,CuDef*%
%ADD18RoundRect,0.200000X-0.275000X0.200000X-0.275000X-0.200000X0.275000X-0.200000X0.275000X0.200000X0*%
%TD*%
%TA.AperFunction,ComponentPad*%
%ADD19R,1.000000X1.000000*%
%TD*%
%TA.AperFunction,ComponentPad*%
%ADD20O,1.000000X1.000000*%
%TD*%
%TA.AperFunction,SMDPad,CuDef*%
%ADD21R,1.000000X1.500000*%
%TD*%
%TA.AperFunction,SMDPad,CuDef*%
%ADD22RoundRect,0.225000X0.250000X-0.225000X0.250000X0.225000X-0.250000X0.225000X-0.250000X-0.225000X0*%
%TD*%
%TA.AperFunction,SMDPad,CuDef*%
%ADD23RoundRect,0.225000X-0.250000X0.225000X-0.250000X-0.225000X0.250000X-0.225000X0.250000X0.225000X0*%
%TD*%
%TA.AperFunction,SMDPad,CuDef*%
%ADD24RoundRect,0.150000X0.825000X0.150000X-0.825000X0.150000X-0.825000X-0.150000X0.825000X-0.150000X0*%
%TD*%
%TA.AperFunction,SMDPad,CuDef*%
%ADD25RoundRect,0.200000X-0.200000X-0.275000X0.200000X-0.275000X0.200000X0.275000X-0.200000X0.275000X0*%
%TD*%
%TA.AperFunction,SMDPad,CuDef*%
%ADD26RoundRect,0.250000X0.262500X0.450000X-0.262500X0.450000X-0.262500X-0.450000X0.262500X-0.450000X0*%
%TD*%
%TA.AperFunction,SMDPad,CuDef*%
%ADD27R,0.450000X0.600000*%
%TD*%
%TA.AperFunction,SMDPad,CuDef*%
%ADD28RoundRect,0.250000X-0.250000X-0.475000X0.250000X-0.475000X0.250000X0.475000X-0.250000X0.475000X0*%
%TD*%
%TA.AperFunction,SMDPad,CuDef*%
%ADD29RoundRect,0.250000X-0.475000X0.250000X-0.475000X-0.250000X0.475000X-0.250000X0.475000X0.250000X0*%
%TD*%
%TA.AperFunction,SMDPad,CuDef*%
%ADD30RoundRect,0.250000X-0.262500X-0.450000X0.262500X-0.450000X0.262500X0.450000X-0.262500X0.450000X0*%
%TD*%
%TA.AperFunction,SMDPad,CuDef*%
%ADD31RoundRect,0.200000X0.275000X-0.200000X0.275000X0.200000X-0.275000X0.200000X-0.275000X-0.200000X0*%
%TD*%
%TA.AperFunction,SMDPad,CuDef*%
%ADD32R,0.900000X1.200000*%
%TD*%
%TA.AperFunction,ComponentPad*%
%ADD33R,3.000000X3.000000*%
%TD*%
%TA.AperFunction,ComponentPad*%
%ADD34C,3.000000*%
%TD*%
%TA.AperFunction,ComponentPad*%
%ADD35C,1.524000*%
%TD*%
%TA.AperFunction,SMDPad,CuDef*%
%ADD36RoundRect,0.100000X-0.712500X-0.100000X0.712500X-0.100000X0.712500X0.100000X-0.712500X0.100000X0*%
%TD*%
%TA.AperFunction,SMDPad,CuDef*%
%ADD37RoundRect,0.218750X-0.218750X-0.381250X0.218750X-0.381250X0.218750X0.381250X-0.218750X0.381250X0*%
%TD*%
%TA.AperFunction,SMDPad,CuDef*%
%ADD38RoundRect,0.200000X0.200000X0.275000X-0.200000X0.275000X-0.200000X-0.275000X0.200000X-0.275000X0*%
%TD*%
%TA.AperFunction,SMDPad,CuDef*%
%ADD39RoundRect,0.250000X0.250000X0.475000X-0.250000X0.475000X-0.250000X-0.475000X0.250000X-0.475000X0*%
%TD*%
%TA.AperFunction,SMDPad,CuDef*%
%ADD40RoundRect,0.218750X0.381250X-0.218750X0.381250X0.218750X-0.381250X0.218750X-0.381250X-0.218750X0*%
%TD*%
%TA.AperFunction,SMDPad,CuDef*%
%ADD41RoundRect,0.150000X-0.150000X0.512500X-0.150000X-0.512500X0.150000X-0.512500X0.150000X0.512500X0*%
%TD*%
%TA.AperFunction,SMDPad,CuDef*%
%ADD42RoundRect,0.150000X0.587500X0.150000X-0.587500X0.150000X-0.587500X-0.150000X0.587500X-0.150000X0*%
%TD*%
%TA.AperFunction,SMDPad,CuDef*%
%ADD43R,1.200000X0.900000*%
%TD*%
%TA.AperFunction,ComponentPad*%
%ADD44R,1.520000X1.520000*%
%TD*%
%TA.AperFunction,ComponentPad*%
%ADD45C,1.520000*%
%TD*%
%TA.AperFunction,ViaPad*%
%ADD46C,0.900000*%
%TD*%
%TA.AperFunction,Conductor*%
%ADD47C,0.750000*%
%TD*%
%TA.AperFunction,Conductor*%
%ADD48C,0.250000*%
%TD*%
%TA.AperFunction,Conductor*%
%ADD49C,0.500000*%
%TD*%
G04 APERTURE END LIST*
%TO.C,JP1*%
G36*
X147376500Y-73038000D02*
G01*
X146876500Y-73038000D01*
X146876500Y-72438000D01*
X147376500Y-72438000D01*
X147376500Y-73038000D01*
G37*
%TO.C,JP4*%
G36*
X174352000Y-101646000D02*
G01*
X173852000Y-101646000D01*
X173852000Y-101046000D01*
X174352000Y-101046000D01*
X174352000Y-101646000D01*
G37*
%TO.C,JP3*%
G36*
X174352000Y-98852000D02*
G01*
X173852000Y-98852000D01*
X173852000Y-98252000D01*
X174352000Y-98252000D01*
X174352000Y-98852000D01*
G37*
%TD*%
D10*
%TO.P,J5,1*%
%TO.N,GND*%
X109853000Y-80776000D03*
D11*
%TO.P,J5,3*%
%TO.N,CAN_H*%
X109853000Y-78744000D03*
%TO.P,J5,5*%
%TO.N,unconnected-(J5-Pad5)*%
X109853000Y-76712000D03*
%TO.P,J5,7*%
%TO.N,VSUPPLY_IN*%
X109853000Y-74680000D03*
%TO.P,J5,2*%
%TO.N,GND*%
X111633000Y-79760000D03*
%TO.P,J5,4*%
%TO.N,CAN_L*%
X111633000Y-77728000D03*
%TO.P,J5,6*%
%TO.N,unconnected-(J5-Pad6)*%
X111633000Y-75696000D03*
%TO.P,J5,8*%
%TO.N,VSUPPLY_IN*%
X111633000Y-73664000D03*
D12*
%TO.P,J5,SH*%
%TO.N,N/C*%
X110743000Y-69086000D03*
X110743000Y-85346000D03*
%TD*%
D10*
%TO.P,J1,1*%
%TO.N,GND*%
X109853000Y-111510000D03*
D11*
%TO.P,J1,3*%
%TO.N,Flaps_Input3*%
X109853000Y-109478000D03*
%TO.P,J1,5*%
%TO.N,Flaps_Input5*%
X109853000Y-107446000D03*
%TO.P,J1,7*%
%TO.N,Flaps_Input7*%
X109853000Y-105414000D03*
%TO.P,J1,2*%
%TO.N,Flaps_Input2*%
X111633000Y-110494000D03*
%TO.P,J1,4*%
%TO.N,Flaps_Input4*%
X111633000Y-108462000D03*
%TO.P,J1,6*%
%TO.N,Flaps_Input6*%
X111633000Y-106430000D03*
%TO.P,J1,8*%
%TO.N,Flaps_Input1*%
X111633000Y-104398000D03*
D12*
%TO.P,J1,SH*%
%TO.N,N/C*%
X110743000Y-99820000D03*
X110743000Y-116080000D03*
%TD*%
D13*
%TO.P,L1,1*%
%TO.N,Net-(C7-Pad1)*%
X132952000Y-73152000D03*
%TO.P,L1,2*%
%TO.N,+5V*%
X136652000Y-73152000D03*
%TD*%
D14*
%TO.P,J9,1*%
%TO.N,GND*%
X143510000Y-69860000D03*
D15*
%TO.P,J9,2*%
X143510000Y-72400000D03*
%TO.P,J9,3*%
%TO.N,+3V3*%
X143510000Y-74940000D03*
%TO.P,J9,4*%
X143510000Y-77480000D03*
%TD*%
D14*
%TO.P,J8,1*%
%TO.N,GND*%
X139700000Y-69860000D03*
D15*
%TO.P,J8,2*%
X139700000Y-72400000D03*
%TO.P,J8,3*%
%TO.N,+5V*%
X139700000Y-74940000D03*
%TO.P,J8,4*%
X139700000Y-77480000D03*
%TD*%
D16*
%TO.P,C10,1*%
%TO.N,GND*%
X133337000Y-78486000D03*
%TO.P,C10,2*%
%TO.N,+5V*%
X134887000Y-78486000D03*
%TD*%
D17*
%TO.P,C8,1*%
%TO.N,+5V*%
X134887000Y-80010000D03*
%TO.P,C8,2*%
%TO.N,GND*%
X133337000Y-80010000D03*
%TD*%
D18*
%TO.P,R16,2*%
%TO.N,SDA*%
X178816000Y-96012000D03*
%TO.P,R16,1*%
%TO.N,+3V3*%
X178816000Y-94362000D03*
%TD*%
D19*
%TO.P,J6,1*%
%TO.N,GND*%
X178816000Y-98176000D03*
D20*
%TO.P,J6,2*%
%TO.N,+3V3*%
X178816000Y-99446000D03*
%TO.P,J6,3*%
%TO.N,SCL*%
X178816000Y-100716000D03*
%TO.P,J6,4*%
%TO.N,SDA*%
X178816000Y-101986000D03*
%TD*%
D19*
%TO.P,J7,1*%
%TO.N,GND*%
X105156000Y-92314000D03*
D20*
%TO.P,J7,2*%
%TO.N,VSUPPLY_IN*%
X105156000Y-93584000D03*
%TD*%
D21*
%TO.P,JP1,1,A*%
%TO.N,AIN+*%
X146476500Y-72738000D03*
%TO.P,JP1,2,B*%
%TO.N,Net-(C12-Pad2)*%
X147776500Y-72738000D03*
%TD*%
D22*
%TO.P,C21,1*%
%TO.N,GND*%
X143002000Y-115596000D03*
%TO.P,C21,2*%
%TO.N,Flaps_In6*%
X143002000Y-114046000D03*
%TD*%
D23*
%TO.P,C16,1*%
%TO.N,Net-(C16-Pad1)*%
X169718500Y-69596000D03*
%TO.P,C16,2*%
%TO.N,GND*%
X169718500Y-71146000D03*
%TD*%
D21*
%TO.P,JP4,1,A*%
%TO.N,Net-(D6-Pad2)*%
X173452000Y-101346000D03*
%TO.P,JP4,2,B*%
%TO.N,SDA*%
X174752000Y-101346000D03*
%TD*%
%TO.P,JP3,2,B*%
%TO.N,Net-(D5-Pad2)*%
X173452000Y-98552000D03*
%TO.P,JP3,1,A*%
%TO.N,SCL*%
X174752000Y-98552000D03*
%TD*%
D18*
%TO.P,R10,1*%
%TO.N,GND*%
X121920000Y-95632000D03*
%TO.P,R10,2*%
%TO.N,Net-(R10-Pad2)*%
X121920000Y-97282000D03*
%TD*%
D24*
%TO.P,U3,1,D*%
%TO.N,CAN_TX*%
X119315000Y-95885000D03*
%TO.P,U3,2,GND*%
%TO.N,GND*%
X119315000Y-94615000D03*
%TO.P,U3,3,VCC*%
%TO.N,+3V3*%
X119315000Y-93345000D03*
%TO.P,U3,4,R*%
%TO.N,CAN_RX*%
X119315000Y-92075000D03*
%TO.P,U3,5,Vref*%
%TO.N,unconnected-(U3-Pad5)*%
X114365000Y-92075000D03*
%TO.P,U3,6,CANL*%
%TO.N,CAN_L*%
X114365000Y-93345000D03*
%TO.P,U3,7,CANH*%
%TO.N,CAN_H*%
X114365000Y-94615000D03*
%TO.P,U3,8,Rs*%
%TO.N,Net-(R10-Pad2)*%
X114365000Y-95885000D03*
%TD*%
D22*
%TO.P,C6,1*%
%TO.N,GND*%
X124968000Y-108167000D03*
%TO.P,C6,2*%
%TO.N,Flaps_In1*%
X124968000Y-106617000D03*
%TD*%
D18*
%TO.P,R28,1*%
%TO.N,Flaps_In5*%
X144526000Y-106617000D03*
%TO.P,R28,2*%
%TO.N,+3V3*%
X144526000Y-108267000D03*
%TD*%
D25*
%TO.P,R33,1*%
%TO.N,Net-(D17-Pad2)*%
X151384000Y-112205000D03*
%TO.P,R33,2*%
%TO.N,Flaps_In7*%
X153034000Y-112205000D03*
%TD*%
%TO.P,R12,1*%
%TO.N,Net-(C11-Pad2)*%
X156193500Y-74422000D03*
%TO.P,R12,2*%
%TO.N,Net-(R12-Pad2)*%
X157843500Y-74422000D03*
%TD*%
D26*
%TO.P,R44,1*%
%TO.N,ADC_Input1*%
X152701000Y-105156000D03*
%TO.P,R44,2*%
%TO.N,Net-(D21-Pad2)*%
X150876000Y-105156000D03*
%TD*%
D27*
%TO.P,D2,1,A1*%
%TO.N,GND*%
X122936000Y-108683000D03*
%TO.P,D2,2,A2*%
%TO.N,Net-(D2-Pad2)*%
X122936000Y-106583000D03*
%TD*%
D28*
%TO.P,C1,1*%
%TO.N,VSUPPLY*%
X108082000Y-88646000D03*
%TO.P,C1,2*%
%TO.N,GND*%
X109982000Y-88646000D03*
%TD*%
D27*
%TO.P,D16,1,A1*%
%TO.N,GND*%
X140970000Y-116112000D03*
%TO.P,D16,2,A2*%
%TO.N,Net-(D16-Pad2)*%
X140970000Y-114012000D03*
%TD*%
D17*
%TO.P,C7,1*%
%TO.N,Net-(C7-Pad1)*%
X134125000Y-69850000D03*
%TO.P,C7,2*%
%TO.N,Net-(C7-Pad2)*%
X132575000Y-69850000D03*
%TD*%
D29*
%TO.P,C4,1*%
%TO.N,Net-(C2-Pad1)*%
X125730000Y-71694000D03*
%TO.P,C4,2*%
%TO.N,GND*%
X125730000Y-73594000D03*
%TD*%
D30*
%TO.P,R2,1*%
%TO.N,Flaps_Input1*%
X121158000Y-104839000D03*
%TO.P,R2,2*%
%TO.N,Net-(D2-Pad2)*%
X122983000Y-104839000D03*
%TD*%
D31*
%TO.P,R36,1*%
%TO.N,PWM_B*%
X157226000Y-82042000D03*
%TO.P,R36,2*%
%TO.N,AIN+*%
X157226000Y-80392000D03*
%TD*%
D32*
%TO.P,D3,1,K*%
%TO.N,Net-(C7-Pad1)*%
X131190000Y-75438000D03*
%TO.P,D3,2,A*%
%TO.N,GND*%
X127890000Y-75438000D03*
%TD*%
D27*
%TO.P,D4,1,A1*%
%TO.N,GND*%
X159004000Y-112810000D03*
%TO.P,D4,2,A2*%
%TO.N,Net-(D4-Pad2)*%
X159004000Y-110710000D03*
%TD*%
D21*
%TO.P,JP2,1,A*%
%TO.N,CAN_L*%
X119664000Y-89662000D03*
%TO.P,JP2,2,B*%
%TO.N,Net-(JP2-Pad2)*%
X118364000Y-89662000D03*
%TD*%
D25*
%TO.P,R27,1*%
%TO.N,Net-(D15-Pad2)*%
X142368000Y-104965000D03*
%TO.P,R27,2*%
%TO.N,Flaps_In5*%
X144018000Y-104965000D03*
%TD*%
D18*
%TO.P,R34,1*%
%TO.N,Flaps_In7*%
X153670000Y-113983000D03*
%TO.P,R34,2*%
%TO.N,+3V3*%
X153670000Y-115633000D03*
%TD*%
%TO.P,R19,1*%
%TO.N,Flaps_In3*%
X135382000Y-113729000D03*
%TO.P,R19,2*%
%TO.N,+3V3*%
X135382000Y-115379000D03*
%TD*%
D26*
%TO.P,R7,1*%
%TO.N,ADC_Input2*%
X160829000Y-108966000D03*
%TO.P,R7,2*%
%TO.N,Net-(D4-Pad2)*%
X159004000Y-108966000D03*
%TD*%
D22*
%TO.P,C3,1*%
%TO.N,GND*%
X127508000Y-73485000D03*
%TO.P,C3,2*%
%TO.N,Net-(C2-Pad1)*%
X127508000Y-71935000D03*
%TD*%
D20*
%TO.P,J3,4*%
%TO.N,SDA2*%
X178816000Y-83820000D03*
%TO.P,J3,3*%
%TO.N,SCL2*%
X178816000Y-82550000D03*
%TO.P,J3,2*%
%TO.N,+3V3*%
X178816000Y-81280000D03*
D19*
%TO.P,J3,1*%
%TO.N,GND*%
X178816000Y-80010000D03*
%TD*%
D18*
%TO.P,R40,1*%
%TO.N,AIN+*%
X147066000Y-80329000D03*
%TO.P,R40,2*%
%TO.N,ATTN_4*%
X147066000Y-81979000D03*
%TD*%
D33*
%TO.P,J4,1,Pin_1*%
%TO.N,Net-(C15-Pad1)*%
X176276000Y-75692000D03*
D34*
%TO.P,J4,2,Pin_2*%
%TO.N,Net-(C16-Pad1)*%
X176276000Y-70612000D03*
%TD*%
D25*
%TO.P,R23,1*%
%TO.N,Net-(D14-Pad2)*%
X133478000Y-104902000D03*
%TO.P,R23,2*%
%TO.N,Flaps_In4*%
X135128000Y-104902000D03*
%TD*%
D35*
%TO.P,U6,VBAT,Vbat*%
%TO.N,+3V3*%
X169799000Y-84836000D03*
%TO.P,U6,SWO*%
%TO.N,N/C*%
X165989000Y-93726000D03*
%TO.P,U6,SWCLK*%
X165989000Y-91186000D03*
%TO.P,U6,PC15,PC15*%
%TO.N,unconnected-(U6-PadPC15)*%
X162179000Y-84836000D03*
%TO.P,U6,PC14,PC14*%
%TO.N,unconnected-(U6-PadPC14)*%
X164719000Y-84836000D03*
%TO.P,U6,PC13,PC13*%
%TO.N,unconnected-(U6-PadPC13)*%
X167259000Y-84836000D03*
%TO.P,U6,PB15,PB15*%
%TO.N,Flaps_In4*%
X129159000Y-100076000D03*
%TO.P,U6,PB14,PB14*%
%TO.N,Flaps_In3*%
X126619000Y-100076000D03*
%TO.P,U6,PB13,PB13*%
%TO.N,Flaps_In2*%
X124079000Y-100076000D03*
%TO.P,U6,PB12,PB12*%
%TO.N,Flaps_In1*%
X121539000Y-100076000D03*
%TO.P,U6,PB11,PB11*%
%TO.N,SDA2*%
X131699000Y-84836000D03*
%TO.P,U6,PB10,PB10*%
%TO.N,SCL2*%
X134239000Y-84836000D03*
%TO.P,U6,PB9,PB9*%
%TO.N,CAN_TX*%
X162179000Y-100076000D03*
%TO.P,U6,PB8,PB8*%
%TO.N,CAN_RX*%
X159639000Y-100076000D03*
%TO.P,U6,PB7,PB7*%
%TO.N,SDA*%
X157099000Y-100076000D03*
%TO.P,U6,PB6,PB6*%
%TO.N,SCL*%
X154559000Y-100076000D03*
%TO.P,U6,PB5,PB5*%
%TO.N,unconnected-(U6-PadPB5)*%
X152019000Y-100076000D03*
%TO.P,U6,PB4,PB4*%
%TO.N,unconnected-(U6-PadPB4)*%
X149479000Y-100076000D03*
%TO.P,U6,PB3,PB3*%
%TO.N,unconnected-(U6-PadPB3)*%
X146939000Y-100076000D03*
%TO.P,U6,PB1,PB1*%
%TO.N,ADC_In2*%
X136779000Y-84836000D03*
%TO.P,U6,PB0,PB0*%
%TO.N,ADC_In1*%
X139319000Y-84836000D03*
%TO.P,U6,PA15,PA15*%
%TO.N,unconnected-(U6-PadPA15)*%
X144399000Y-100076000D03*
%TO.P,U6,PA12,PA12*%
%TO.N,unconnected-(U6-PadPA12)*%
X141859000Y-100076000D03*
%TO.P,U6,PA11,PA11*%
%TO.N,unconnected-(U6-PadPA11)*%
X139319000Y-100076000D03*
%TO.P,U6,PA10,PA10*%
%TO.N,Flaps_In7*%
X136779000Y-100076000D03*
%TO.P,U6,PA9,PA9*%
%TO.N,Flaps_In6*%
X134239000Y-100076000D03*
%TO.P,U6,PA8,PA8*%
%TO.N,Flaps_In5*%
X131699000Y-100076000D03*
%TO.P,U6,PA7,PA7*%
%TO.N,ATTN_6*%
X141859000Y-84836000D03*
%TO.P,U6,PA6,PA6*%
%TO.N,ATTN_5*%
X144399000Y-84836000D03*
%TO.P,U6,PA5,PA5*%
%TO.N,ATTN_4*%
X146939000Y-84836000D03*
%TO.P,U6,PA4,PA4*%
%TO.N,ATTN_3*%
X149479000Y-84836000D03*
%TO.P,U6,PA3,PA3*%
%TO.N,ATTN_2*%
X152019000Y-84836000D03*
%TO.P,U6,PA2,PA2*%
%TO.N,ATTN_1*%
X154559000Y-84836000D03*
%TO.P,U6,PA1,PA1*%
%TO.N,PWM_B*%
X157099000Y-84836000D03*
%TO.P,U6,PA0,PA0*%
%TO.N,PWM_A*%
X159639000Y-84836000D03*
%TO.P,U6,NRST,RESET*%
%TO.N,unconnected-(U6-PadNRST)*%
X129159000Y-84836000D03*
%TO.P,U6,G,GND*%
%TO.N,GND*%
X124079000Y-84836000D03*
X121539000Y-84836000D03*
X165989000Y-88646000D03*
X167259000Y-100076000D03*
%TO.P,U6,5V,5V*%
%TO.N,Net-(D7-Pad1)*%
X164719000Y-100076000D03*
%TO.P,U6,3V3,3.3V*%
%TO.N,+3V3*%
X126619000Y-84836000D03*
X169799000Y-100076000D03*
X165989000Y-96266000D03*
%TD*%
D22*
%TO.P,C5,1*%
%TO.N,GND*%
X156972000Y-112281000D03*
%TO.P,C5,2*%
%TO.N,ADC_In2*%
X156972000Y-110731000D03*
%TD*%
%TO.P,C26,1*%
%TO.N,GND*%
X148590000Y-108484000D03*
%TO.P,C26,2*%
%TO.N,ADC_In1*%
X148590000Y-106934000D03*
%TD*%
D18*
%TO.P,R41,1*%
%TO.N,AIN+*%
X144526000Y-80392000D03*
%TO.P,R41,2*%
%TO.N,ATTN_5*%
X144526000Y-82042000D03*
%TD*%
D36*
%TO.P,U4,1,~{SD}*%
%TO.N,Net-(R13-Pad2)*%
X159732000Y-72431000D03*
%TO.P,U4,2,NC*%
%TO.N,unconnected-(U4-Pad2)*%
X159732000Y-73081000D03*
%TO.P,U4,3,IN+*%
%TO.N,Net-(R11-Pad2)*%
X159732000Y-73731000D03*
%TO.P,U4,4,IN-*%
%TO.N,Net-(R12-Pad2)*%
X159732000Y-74381000D03*
%TO.P,U4,5,OUT+*%
%TO.N,Net-(FB3-Pad1)*%
X163957000Y-74381000D03*
%TO.P,U4,6,VDD*%
%TO.N,+5V*%
X163957000Y-73731000D03*
%TO.P,U4,7,GND*%
%TO.N,GND*%
X163957000Y-73081000D03*
%TO.P,U4,8,OUT-*%
%TO.N,Net-(FB4-Pad1)*%
X163957000Y-72431000D03*
%TD*%
D27*
%TO.P,D6,2,A2*%
%TO.N,Net-(D6-Pad2)*%
X172466000Y-96300000D03*
%TO.P,D6,1,A1*%
%TO.N,GND*%
X172466000Y-94200000D03*
%TD*%
D18*
%TO.P,R46,1*%
%TO.N,+3V3*%
X174752000Y-82424000D03*
%TO.P,R46,2*%
%TO.N,SDA2*%
X174752000Y-84074000D03*
%TD*%
D17*
%TO.P,C12,1*%
%TO.N,Net-(C12-Pad1)*%
X154566500Y-72688000D03*
%TO.P,C12,2*%
%TO.N,Net-(C12-Pad2)*%
X153016500Y-72688000D03*
%TD*%
D25*
%TO.P,R45,1*%
%TO.N,Net-(D21-Pad2)*%
X147702000Y-105156000D03*
%TO.P,R45,2*%
%TO.N,ADC_In1*%
X149352000Y-105156000D03*
%TD*%
D18*
%TO.P,R24,1*%
%TO.N,Flaps_In2*%
X126492000Y-113920000D03*
%TO.P,R24,2*%
%TO.N,+3V3*%
X126492000Y-115570000D03*
%TD*%
%TO.P,R35,1*%
%TO.N,AIN+*%
X159766000Y-80392000D03*
%TO.P,R35,2*%
%TO.N,PWM_A*%
X159766000Y-82042000D03*
%TD*%
D29*
%TO.P,C2,1*%
%TO.N,Net-(C2-Pad1)*%
X123698000Y-71694000D03*
%TO.P,C2,2*%
%TO.N,GND*%
X123698000Y-73594000D03*
%TD*%
D37*
%TO.P,FB4,1*%
%TO.N,Net-(FB4-Pad1)*%
X165908500Y-70866000D03*
%TO.P,FB4,2*%
%TO.N,Net-(C16-Pad1)*%
X168033500Y-70866000D03*
%TD*%
D18*
%TO.P,R5,1*%
%TO.N,+5V*%
X125984000Y-68580000D03*
%TO.P,R5,2*%
%TO.N,Net-(R5-Pad2)*%
X125984000Y-70230000D03*
%TD*%
D26*
%TO.P,R29,1*%
%TO.N,Flaps_Input6*%
X141017000Y-112268000D03*
%TO.P,R29,2*%
%TO.N,Net-(D16-Pad2)*%
X139192000Y-112268000D03*
%TD*%
D16*
%TO.P,C11,1*%
%TO.N,GND*%
X153182500Y-74422000D03*
%TO.P,C11,2*%
%TO.N,Net-(C11-Pad2)*%
X154732500Y-74422000D03*
%TD*%
D18*
%TO.P,R15,2*%
%TO.N,SCL*%
X176784000Y-96012000D03*
%TO.P,R15,1*%
%TO.N,+3V3*%
X176784000Y-94362000D03*
%TD*%
D27*
%TO.P,D17,1,A1*%
%TO.N,GND*%
X149860000Y-116049000D03*
%TO.P,D17,2,A2*%
%TO.N,Net-(D17-Pad2)*%
X149860000Y-113949000D03*
%TD*%
D18*
%TO.P,R9,1*%
%TO.N,Net-(C12-Pad2)*%
X149606000Y-74758000D03*
%TO.P,R9,2*%
%TO.N,GND*%
X149606000Y-76408000D03*
%TD*%
D25*
%TO.P,R22,1*%
%TO.N,Net-(D13-Pad2)*%
X124206000Y-112268000D03*
%TO.P,R22,2*%
%TO.N,Flaps_In2*%
X125856000Y-112268000D03*
%TD*%
D18*
%TO.P,R42,1*%
%TO.N,AIN+*%
X141986000Y-80392000D03*
%TO.P,R42,2*%
%TO.N,ATTN_6*%
X141986000Y-82042000D03*
%TD*%
D22*
%TO.P,C17,1*%
%TO.N,GND*%
X133604000Y-115405000D03*
%TO.P,C17,2*%
%TO.N,Flaps_In3*%
X133604000Y-113855000D03*
%TD*%
D30*
%TO.P,R26,1*%
%TO.N,Flaps_Input5*%
X138938000Y-104965000D03*
%TO.P,R26,2*%
%TO.N,Net-(D15-Pad2)*%
X140763000Y-104965000D03*
%TD*%
D18*
%TO.P,R38,1*%
%TO.N,AIN+*%
X151892000Y-80392000D03*
%TO.P,R38,2*%
%TO.N,ATTN_2*%
X151892000Y-82042000D03*
%TD*%
D21*
%TO.P,JP5,1,A*%
%TO.N,Net-(C12-Pad2)*%
X149901500Y-72763000D03*
%TO.P,JP5,2,B*%
%TO.N,Net-(JP5-Pad2)*%
X151201500Y-72763000D03*
%TD*%
D25*
%TO.P,R30,1*%
%TO.N,Net-(D16-Pad2)*%
X142622000Y-112268000D03*
%TO.P,R30,2*%
%TO.N,Flaps_In6*%
X144272000Y-112268000D03*
%TD*%
D38*
%TO.P,R1,1*%
%TO.N,GND*%
X109728000Y-96520000D03*
%TO.P,R1,2*%
%TO.N,Net-(D1-Pad2)*%
X108078000Y-96520000D03*
%TD*%
D27*
%TO.P,D14,1,A1*%
%TO.N,GND*%
X131826000Y-108746000D03*
%TO.P,D14,2,A2*%
%TO.N,Net-(D14-Pad2)*%
X131826000Y-106646000D03*
%TD*%
D38*
%TO.P,R13,1*%
%TO.N,+5V*%
X160891500Y-70612000D03*
%TO.P,R13,2*%
%TO.N,Net-(R13-Pad2)*%
X159241500Y-70612000D03*
%TD*%
D27*
%TO.P,D21,1,A1*%
%TO.N,GND*%
X150622000Y-109000000D03*
%TO.P,D21,2,A2*%
%TO.N,Net-(D21-Pad2)*%
X150622000Y-106900000D03*
%TD*%
D18*
%TO.P,R47,1*%
%TO.N,Net-(JP5-Pad2)*%
X151638000Y-74738000D03*
%TO.P,R47,2*%
%TO.N,GND*%
X151638000Y-76388000D03*
%TD*%
D32*
%TO.P,D1,1,K*%
%TO.N,VSUPPLY*%
X108078000Y-90932000D03*
%TO.P,D1,2,A*%
%TO.N,Net-(D1-Pad2)*%
X111378000Y-90932000D03*
%TD*%
D22*
%TO.P,C14,1*%
%TO.N,+5V*%
X165908500Y-74194000D03*
%TO.P,C14,2*%
%TO.N,GND*%
X165908500Y-72644000D03*
%TD*%
D39*
%TO.P,C9,1*%
%TO.N,+5V*%
X135128000Y-76708000D03*
%TO.P,C9,2*%
%TO.N,GND*%
X133228000Y-76708000D03*
%TD*%
D22*
%TO.P,C18,1*%
%TO.N,GND*%
X124714000Y-115570000D03*
%TO.P,C18,2*%
%TO.N,Flaps_In2*%
X124714000Y-114020000D03*
%TD*%
D18*
%TO.P,R37,1*%
%TO.N,AIN+*%
X154432000Y-80392000D03*
%TO.P,R37,2*%
%TO.N,ATTN_1*%
X154432000Y-82042000D03*
%TD*%
D25*
%TO.P,R11,1*%
%TO.N,Net-(C12-Pad1)*%
X156016500Y-72688000D03*
%TO.P,R11,2*%
%TO.N,Net-(R11-Pad2)*%
X157666500Y-72688000D03*
%TD*%
D27*
%TO.P,D13,1,A1*%
%TO.N,GND*%
X122682000Y-116112000D03*
%TO.P,D13,2,A2*%
%TO.N,Net-(D13-Pad2)*%
X122682000Y-114012000D03*
%TD*%
D18*
%TO.P,R39,1*%
%TO.N,AIN+*%
X149352000Y-80392000D03*
%TO.P,R39,2*%
%TO.N,ATTN_3*%
X149352000Y-82042000D03*
%TD*%
D40*
%TO.P,FB1,1*%
%TO.N,VSUPPLY*%
X121666000Y-73726000D03*
%TO.P,FB1,2*%
%TO.N,Net-(C2-Pad1)*%
X121666000Y-71601000D03*
%TD*%
D22*
%TO.P,C15,1*%
%TO.N,Net-(C15-Pad1)*%
X168956500Y-74194000D03*
%TO.P,C15,2*%
%TO.N,GND*%
X168956500Y-72644000D03*
%TD*%
D41*
%TO.P,U1,1,CB*%
%TO.N,Net-(C7-Pad2)*%
X130998000Y-70998500D03*
%TO.P,U1,2,GND*%
%TO.N,GND*%
X130048000Y-70998500D03*
%TO.P,U1,3,FB*%
%TO.N,Net-(R5-Pad2)*%
X129098000Y-70998500D03*
%TO.P,U1,4,EN*%
%TO.N,Net-(C2-Pad1)*%
X129098000Y-73273500D03*
%TO.P,U1,5,VIN*%
X130048000Y-73273500D03*
%TO.P,U1,6,SW*%
%TO.N,Net-(C7-Pad1)*%
X130998000Y-73273500D03*
%TD*%
D30*
%TO.P,R21,1*%
%TO.N,Flaps_Input4*%
X130048000Y-104902000D03*
%TO.P,R21,2*%
%TO.N,Net-(D14-Pad2)*%
X131873000Y-104902000D03*
%TD*%
D22*
%TO.P,C19,1*%
%TO.N,GND*%
X133858000Y-108204000D03*
%TO.P,C19,2*%
%TO.N,Flaps_In4*%
X133858000Y-106654000D03*
%TD*%
D27*
%TO.P,D12,1,A1*%
%TO.N,GND*%
X131572000Y-115887000D03*
%TO.P,D12,2,A2*%
%TO.N,Net-(D12-Pad2)*%
X131572000Y-113787000D03*
%TD*%
D25*
%TO.P,R8,1*%
%TO.N,Net-(D4-Pad2)*%
X155830000Y-108966000D03*
%TO.P,R8,2*%
%TO.N,ADC_In2*%
X157480000Y-108966000D03*
%TD*%
D22*
%TO.P,C22,1*%
%TO.N,GND*%
X151892000Y-115533000D03*
%TO.P,C22,2*%
%TO.N,Flaps_In7*%
X151892000Y-113983000D03*
%TD*%
D27*
%TO.P,D15,1,A1*%
%TO.N,GND*%
X140716000Y-108809000D03*
%TO.P,D15,2,A2*%
%TO.N,Net-(D15-Pad2)*%
X140716000Y-106709000D03*
%TD*%
D25*
%TO.P,R18,1*%
%TO.N,Net-(D12-Pad2)*%
X132970000Y-112077000D03*
%TO.P,R18,2*%
%TO.N,Flaps_In3*%
X134620000Y-112077000D03*
%TD*%
D27*
%TO.P,D5,2,A2*%
%TO.N,Net-(D5-Pad2)*%
X174752000Y-96300000D03*
%TO.P,D5,1,A1*%
%TO.N,GND*%
X174752000Y-94200000D03*
%TD*%
D31*
%TO.P,R6,1*%
%TO.N,Net-(R5-Pad2)*%
X127508000Y-70358000D03*
%TO.P,R6,2*%
%TO.N,GND*%
X127508000Y-68708000D03*
%TD*%
D42*
%TO.P,Q1,1,G*%
%TO.N,Net-(D1-Pad2)*%
X110411500Y-94930000D03*
%TO.P,Q1,2,S*%
%TO.N,VSUPPLY*%
X110411500Y-93030000D03*
%TO.P,Q1,3,D*%
%TO.N,VSUPPLY_IN*%
X108536500Y-93980000D03*
%TD*%
D30*
%TO.P,R17,1*%
%TO.N,Flaps_Input3*%
X129540000Y-112077000D03*
%TO.P,R17,2*%
%TO.N,Net-(D12-Pad2)*%
X131365000Y-112077000D03*
%TD*%
D43*
%TO.P,D7,1,K*%
%TO.N,Net-(D7-Pad1)*%
X162306000Y-93598000D03*
%TO.P,D7,2,A*%
%TO.N,+5V*%
X162306000Y-90298000D03*
%TD*%
D18*
%TO.P,R43,1*%
%TO.N,+3V3*%
X174752000Y-79376000D03*
%TO.P,R43,2*%
%TO.N,SCL2*%
X174752000Y-81026000D03*
%TD*%
D22*
%TO.P,C20,1*%
%TO.N,GND*%
X142748000Y-108293000D03*
%TO.P,C20,2*%
%TO.N,Flaps_In5*%
X142748000Y-106743000D03*
%TD*%
D26*
%TO.P,R32,1*%
%TO.N,Flaps_Input7*%
X149860000Y-112205000D03*
%TO.P,R32,2*%
%TO.N,Net-(D17-Pad2)*%
X148035000Y-112205000D03*
%TD*%
D25*
%TO.P,R14,1*%
%TO.N,CAN_H*%
X114428000Y-89662000D03*
%TO.P,R14,2*%
%TO.N,Net-(JP2-Pad2)*%
X116078000Y-89662000D03*
%TD*%
D37*
%TO.P,FB3,1*%
%TO.N,Net-(FB3-Pad1)*%
X165815500Y-75946000D03*
%TO.P,FB3,2*%
%TO.N,Net-(C15-Pad1)*%
X167940500Y-75946000D03*
%TD*%
D44*
%TO.P,J2,1*%
%TO.N,GND*%
X163426000Y-113660000D03*
D45*
%TO.P,J2,2*%
%TO.N,ADC_Input1*%
X165966000Y-112390000D03*
%TO.P,J2,3*%
%TO.N,ADC_Input2*%
X163426000Y-111120000D03*
%TO.P,J2,4*%
%TO.N,Flaps_Input6*%
X165966000Y-109850000D03*
%TO.P,J2,5*%
%TO.N,Flaps_Input7*%
X163426000Y-108580000D03*
%TO.P,J2,6*%
%TO.N,+3V3*%
X165966000Y-107310000D03*
%TD*%
D18*
%TO.P,R4,1*%
%TO.N,Flaps_In1*%
X126746000Y-106363000D03*
%TO.P,R4,2*%
%TO.N,+3V3*%
X126746000Y-108013000D03*
%TD*%
D22*
%TO.P,C13,1*%
%TO.N,+5V*%
X167432500Y-74194000D03*
%TO.P,C13,2*%
%TO.N,GND*%
X167432500Y-72644000D03*
%TD*%
D25*
%TO.P,R3,1*%
%TO.N,Net-(D2-Pad2)*%
X124714000Y-104839000D03*
%TO.P,R3,2*%
%TO.N,Flaps_In1*%
X126364000Y-104839000D03*
%TD*%
D18*
%TO.P,R31,1*%
%TO.N,Flaps_In6*%
X144780000Y-113983000D03*
%TO.P,R31,2*%
%TO.N,+3V3*%
X144780000Y-115633000D03*
%TD*%
%TO.P,R25,1*%
%TO.N,Flaps_In4*%
X135636000Y-106680000D03*
%TO.P,R25,2*%
%TO.N,+3V3*%
X135636000Y-108330000D03*
%TD*%
D30*
%TO.P,R20,1*%
%TO.N,Flaps_Input2*%
X120650000Y-112268000D03*
%TO.P,R20,2*%
%TO.N,Net-(D13-Pad2)*%
X122475000Y-112268000D03*
%TD*%
D46*
%TO.N,+3V3*%
X173482000Y-83058000D03*
X173482000Y-79502000D03*
%TO.N,GND*%
X173448000Y-94200000D03*
X162557877Y-72831500D03*
X165310662Y-72956500D03*
X132842000Y-75946000D03*
X132969000Y-77597000D03*
X132080000Y-76708000D03*
X133858000Y-76708000D03*
%TO.N,+3V3*%
X177800000Y-94234000D03*
%TO.N,GND*%
X174752000Y-95250000D03*
X132588000Y-108458000D03*
X149606000Y-108966000D03*
X157988000Y-112776000D03*
X141732000Y-115824000D03*
X110998000Y-96520000D03*
X121158000Y-94488000D03*
X150622000Y-75692000D03*
X123444000Y-115824000D03*
X150876000Y-116078000D03*
X141732000Y-108712000D03*
X132423000Y-115405000D03*
X111506000Y-88646000D03*
X123735000Y-108167000D03*
%TO.N,+3V3*%
X126746000Y-109220000D03*
X136906000Y-107442000D03*
X136398000Y-114554000D03*
X154940000Y-115062000D03*
X169672000Y-83566000D03*
X144526000Y-108966000D03*
X117602000Y-93472000D03*
X146050000Y-114808000D03*
X127508000Y-114554000D03*
%TO.N,Flaps_Input3*%
X128270000Y-112014000D03*
%TO.N,Flaps_Input5*%
X137922000Y-104140000D03*
%TO.N,Flaps_Input7*%
X148844000Y-110744000D03*
%TO.N,Flaps_Input4*%
X114046000Y-103365500D03*
X129794000Y-103136500D03*
%TO.N,Flaps_Input6*%
X139954000Y-110998000D03*
%TO.N,ADC_In2*%
X155702000Y-110236000D03*
%TO.N,ADC_In1*%
X146812000Y-103124000D03*
%TO.N,ADC_Input1*%
X152908000Y-106426000D03*
%TD*%
D47*
%TO.N,GND*%
X133228000Y-76708000D02*
X133228000Y-76068000D01*
X134620000Y-74676000D02*
X134620000Y-71487022D01*
X134620000Y-75324953D02*
X134620000Y-74676000D01*
X133228000Y-76068000D02*
X134620000Y-74676000D01*
X134733047Y-75324953D02*
X134620000Y-75324953D01*
X135128000Y-74930000D02*
X134733047Y-75324953D01*
X135128000Y-71374000D02*
X135128000Y-74930000D01*
X134930511Y-71176511D02*
X135128000Y-71374000D01*
X134930511Y-71176511D02*
X135382000Y-70725022D01*
X134620000Y-71487022D02*
X134930511Y-71176511D01*
X131534546Y-68683000D02*
X130048000Y-70169546D01*
X135382000Y-69501308D02*
X134563692Y-68683000D01*
X133858000Y-76086953D02*
X134620000Y-75324953D01*
X133858000Y-76708000D02*
X133858000Y-76086953D01*
X135382000Y-70725022D02*
X135382000Y-69501308D01*
X134563692Y-68683000D02*
X131534546Y-68683000D01*
D48*
%TO.N,Net-(C7-Pad1)*%
X134125000Y-70345000D02*
X134125000Y-69850000D01*
X133096000Y-71374000D02*
X134125000Y-70345000D01*
%TO.N,Net-(C7-Pad2)*%
X132588000Y-70358000D02*
X132588000Y-69863000D01*
X131947500Y-70998500D02*
X132588000Y-70358000D01*
X132588000Y-69863000D02*
X132575000Y-69850000D01*
%TO.N,+3V3*%
X174116000Y-82424000D02*
X173482000Y-83058000D01*
X174752000Y-82424000D02*
X174116000Y-82424000D01*
X173608000Y-79376000D02*
X173482000Y-79502000D01*
X174752000Y-79376000D02*
X173608000Y-79376000D01*
%TO.N,SCL2*%
X176276000Y-82550000D02*
X178816000Y-82550000D01*
X174752000Y-81026000D02*
X176276000Y-82550000D01*
%TO.N,SDA2*%
X175006000Y-83820000D02*
X178816000Y-83820000D01*
X174752000Y-84074000D02*
X175006000Y-83820000D01*
%TO.N,SDA*%
X178054000Y-102108000D02*
X178694000Y-102108000D01*
X177292000Y-101346000D02*
X178054000Y-102108000D01*
X178694000Y-102108000D02*
X178816000Y-101986000D01*
X174752000Y-101346000D02*
X177292000Y-101346000D01*
%TO.N,SCL*%
X176784000Y-97536000D02*
X176784000Y-96012000D01*
X175768000Y-98552000D02*
X176784000Y-97536000D01*
X174752000Y-98552000D02*
X175768000Y-98552000D01*
%TO.N,Net-(D5-Pad2)*%
X173452000Y-97600000D02*
X173452000Y-98552000D01*
X174752000Y-96300000D02*
X173452000Y-97600000D01*
%TO.N,Net-(D6-Pad2)*%
X172466000Y-101346000D02*
X173452000Y-101346000D01*
X171958000Y-97028000D02*
X171958000Y-100838000D01*
X171958000Y-100838000D02*
X172466000Y-101346000D01*
X172466000Y-96520000D02*
X171958000Y-97028000D01*
X172466000Y-96300000D02*
X172466000Y-96520000D01*
%TO.N,GND*%
X172466000Y-94200000D02*
X173448000Y-94200000D01*
X174752000Y-94200000D02*
X173448000Y-94200000D01*
D49*
%TO.N,Net-(C15-Pad1)*%
X176276000Y-77470000D02*
X176276000Y-75692000D01*
X168956500Y-76500500D02*
X170434000Y-77978000D01*
X175768000Y-77978000D02*
X176276000Y-77470000D01*
X170434000Y-77978000D02*
X175768000Y-77978000D01*
X168956500Y-74194000D02*
X168956500Y-76500500D01*
%TO.N,Net-(C16-Pad1)*%
X169672000Y-69549500D02*
X169718500Y-69596000D01*
X169672000Y-68580000D02*
X169672000Y-69549500D01*
X170180000Y-68072000D02*
X169672000Y-68580000D01*
X175260000Y-68072000D02*
X170180000Y-68072000D01*
X176276000Y-70612000D02*
X176276000Y-69088000D01*
X176276000Y-69088000D02*
X175260000Y-68072000D01*
D48*
%TO.N,Flaps_Input1*%
X119634000Y-101600000D02*
X114431000Y-101600000D01*
X114431000Y-101600000D02*
X111633000Y-104398000D01*
%TO.N,+5V*%
X138595480Y-67983480D02*
X138684000Y-68072000D01*
X126580520Y-67983480D02*
X138595480Y-67983480D01*
D49*
X161036000Y-70467500D02*
X160891500Y-70612000D01*
X161036000Y-69850000D02*
X161036000Y-70467500D01*
X160528000Y-69342000D02*
X161036000Y-69850000D01*
X146304000Y-69342000D02*
X160528000Y-69342000D01*
X146304000Y-69088000D02*
X146304000Y-69342000D01*
X145288000Y-68072000D02*
X146304000Y-69088000D01*
X138166000Y-74940000D02*
X138166000Y-68590000D01*
X138166000Y-68590000D02*
X138684000Y-68072000D01*
X138166000Y-74940000D02*
X139700000Y-74940000D01*
X138684000Y-68072000D02*
X145288000Y-68072000D01*
X136896000Y-74940000D02*
X138166000Y-74940000D01*
X139700000Y-77480000D02*
X139700000Y-74940000D01*
X136146000Y-75690000D02*
X136896000Y-74940000D01*
D48*
%TO.N,Net-(C15-Pad1)*%
X168956500Y-74930000D02*
X167940500Y-75946000D01*
X168956500Y-74194000D02*
X168956500Y-74930000D01*
D49*
%TO.N,Net-(FB3-Pad1)*%
X164300020Y-74430520D02*
X163957000Y-74430520D01*
X165815500Y-75946000D02*
X164300020Y-74430520D01*
%TO.N,Net-(C16-Pad1)*%
X168910000Y-69596000D02*
X169718500Y-69596000D01*
X168033500Y-70472500D02*
X168910000Y-69596000D01*
X168033500Y-70866000D02*
X168033500Y-70472500D01*
%TO.N,Net-(FB4-Pad1)*%
X164592000Y-70866000D02*
X165908500Y-70866000D01*
X163957000Y-71501000D02*
X164592000Y-70866000D01*
X163957000Y-72431000D02*
X163957000Y-71501000D01*
%TO.N,GND*%
X109982000Y-88646000D02*
X111506000Y-88646000D01*
%TO.N,VSUPPLY_IN*%
X105552000Y-93980000D02*
X105156000Y-93584000D01*
X108536500Y-93980000D02*
X105552000Y-93980000D01*
%TO.N,VSUPPLY*%
X110176000Y-93030000D02*
X108078000Y-90932000D01*
X110411500Y-93030000D02*
X110176000Y-93030000D01*
X108078000Y-88650000D02*
X108082000Y-88646000D01*
X108078000Y-90932000D02*
X108078000Y-88650000D01*
X106172000Y-88646000D02*
X108082000Y-88646000D01*
X110744000Y-71120000D02*
X104394000Y-77470000D01*
X104394000Y-86868000D02*
X106172000Y-88646000D01*
X113792000Y-71120000D02*
X110744000Y-71120000D01*
X104394000Y-77470000D02*
X104394000Y-86868000D01*
X116398000Y-73726000D02*
X113792000Y-71120000D01*
X121666000Y-73726000D02*
X116398000Y-73726000D01*
D48*
%TO.N,+5V*%
X125984000Y-68580000D02*
X126580520Y-67983480D01*
%TO.N,GND*%
X162807377Y-73081000D02*
X162557877Y-72831500D01*
X163957000Y-73081000D02*
X162807377Y-73081000D01*
X165186162Y-73081000D02*
X165310662Y-72956500D01*
X163957000Y-73081000D02*
X165186162Y-73081000D01*
D49*
%TO.N,+5V*%
X166438511Y-77284511D02*
X163390511Y-77284511D01*
X161798000Y-75692000D02*
X161798000Y-73660000D01*
X163390511Y-88577489D02*
X165100000Y-86868000D01*
X165100000Y-86868000D02*
X170688000Y-86868000D01*
X170688000Y-86868000D02*
X171958000Y-85598000D01*
X163390511Y-77284511D02*
X161798000Y-75692000D01*
X171958000Y-85598000D02*
X171958000Y-82804000D01*
X162306000Y-90298000D02*
X163390511Y-89213489D01*
X171958000Y-82804000D02*
X166438511Y-77284511D01*
X163390511Y-89213489D02*
X163390511Y-88577489D01*
%TO.N,Net-(D7-Pad1)*%
X162306000Y-96266000D02*
X162306000Y-93598000D01*
X164719000Y-98679000D02*
X162306000Y-96266000D01*
X164719000Y-100076000D02*
X164719000Y-98679000D01*
%TO.N,+5V*%
X162052000Y-73660000D02*
X162123000Y-73731000D01*
X161798000Y-73660000D02*
X162052000Y-73660000D01*
X161406489Y-73268489D02*
X161798000Y-73660000D01*
X161406489Y-71126989D02*
X161406489Y-73268489D01*
X162123000Y-73731000D02*
X163957000Y-73731000D01*
X160891500Y-70612000D02*
X161406489Y-71126989D01*
D47*
%TO.N,Net-(C7-Pad1)*%
X131693500Y-73273500D02*
X131826000Y-73406000D01*
X130998000Y-73273500D02*
X131693500Y-73273500D01*
X131826000Y-73406000D02*
X133096000Y-73406000D01*
X131190000Y-74042000D02*
X131826000Y-73406000D01*
X131190000Y-75438000D02*
X131190000Y-74042000D01*
D48*
%TO.N,GND*%
X132080000Y-76708000D02*
X132842000Y-75946000D01*
X133858000Y-76708000D02*
X132969000Y-77597000D01*
D47*
X132969000Y-77597000D02*
X132080000Y-76708000D01*
X133337000Y-77965000D02*
X132969000Y-77597000D01*
X128586454Y-68708000D02*
X130048000Y-70169546D01*
X127508000Y-68708000D02*
X128586454Y-68708000D01*
D48*
%TO.N,Net-(R5-Pad2)*%
X127380000Y-70230000D02*
X127508000Y-70358000D01*
X125984000Y-70230000D02*
X127380000Y-70230000D01*
X129098000Y-70998500D02*
X128148500Y-70998500D01*
X128148500Y-70998500D02*
X127508000Y-70358000D01*
D47*
%TO.N,Net-(C2-Pad1)*%
X130048000Y-73273500D02*
X129098000Y-73273500D01*
X127711658Y-71935000D02*
X127508000Y-71935000D01*
X129050158Y-73273500D02*
X127711658Y-71935000D01*
X129098000Y-73273500D02*
X129050158Y-73273500D01*
X127174000Y-71601000D02*
X127508000Y-71935000D01*
X121666000Y-71601000D02*
X127174000Y-71601000D01*
D48*
%TO.N,Net-(C7-Pad2)*%
X131947500Y-70998500D02*
X130998000Y-70998500D01*
%TO.N,Net-(C7-Pad1)*%
X133096000Y-71374000D02*
X133096000Y-73406000D01*
D47*
%TO.N,GND*%
X133337000Y-78486000D02*
X133337000Y-77965000D01*
X133228000Y-76708000D02*
X132080000Y-76708000D01*
X132080000Y-76708000D02*
X129160000Y-76708000D01*
X129160000Y-76708000D02*
X127890000Y-75438000D01*
X130048000Y-70998500D02*
X130048000Y-70169546D01*
%TO.N,+5V*%
X134887000Y-76949000D02*
X135128000Y-76708000D01*
X134887000Y-80010000D02*
X134887000Y-76949000D01*
%TO.N,GND*%
X133337000Y-80010000D02*
X133337000Y-76817000D01*
X133337000Y-76817000D02*
X133228000Y-76708000D01*
X127890000Y-74296000D02*
X127890000Y-75438000D01*
X127188000Y-73594000D02*
X127890000Y-74296000D01*
X123698000Y-73594000D02*
X127188000Y-73594000D01*
%TO.N,+5V*%
X136146000Y-75690000D02*
X135128000Y-76708000D01*
X136146000Y-73406000D02*
X136146000Y-75690000D01*
D48*
%TO.N,GND*%
X133228000Y-76708000D02*
X133858000Y-76708000D01*
%TO.N,Net-(C2-Pad1)*%
X127508000Y-71935000D02*
X127759500Y-71935000D01*
%TO.N,+3V3*%
X177672000Y-94362000D02*
X177800000Y-94234000D01*
X176784000Y-94362000D02*
X177672000Y-94362000D01*
X177928000Y-94362000D02*
X177800000Y-94234000D01*
X178816000Y-94362000D02*
X177928000Y-94362000D01*
%TO.N,SDA*%
X179832000Y-97028000D02*
X178816000Y-96012000D01*
X179832000Y-101600000D02*
X179832000Y-97028000D01*
X179446000Y-101986000D02*
X179832000Y-101600000D01*
X178816000Y-101986000D02*
X179446000Y-101986000D01*
%TO.N,GND*%
X174752000Y-94200000D02*
X174752000Y-95250000D01*
X156972000Y-112281000D02*
X157493000Y-112281000D01*
X119315000Y-94615000D02*
X120903000Y-94615000D01*
X152212000Y-76388000D02*
X153182500Y-75417500D01*
X124714000Y-115570000D02*
X123224000Y-115570000D01*
X142748000Y-108293000D02*
X142151000Y-108293000D01*
X149640000Y-109000000D02*
X149606000Y-108966000D01*
X141732000Y-108712000D02*
X140813000Y-108712000D01*
X157493000Y-112281000D02*
X157988000Y-112776000D01*
X122936000Y-108683000D02*
X123219000Y-108683000D01*
X132300000Y-108746000D02*
X132588000Y-108458000D01*
X158475000Y-112281000D02*
X159004000Y-112810000D01*
X150622000Y-109000000D02*
X149640000Y-109000000D01*
X131572000Y-115887000D02*
X131941000Y-115887000D01*
X151638000Y-76388000D02*
X152212000Y-76388000D01*
X156972000Y-112281000D02*
X158475000Y-112281000D01*
X141960000Y-115596000D02*
X141732000Y-115824000D01*
X121920000Y-95632000D02*
X121920000Y-95250000D01*
X153182500Y-75417500D02*
X153182500Y-74422000D01*
X121920000Y-95250000D02*
X121158000Y-94488000D01*
X131941000Y-115887000D02*
X132423000Y-115405000D01*
X169718500Y-71882000D02*
X168956500Y-72644000D01*
X123156000Y-116112000D02*
X123444000Y-115824000D01*
X133604000Y-115405000D02*
X132423000Y-115405000D01*
X151892000Y-115533000D02*
X151421000Y-115533000D01*
X122682000Y-116112000D02*
X123156000Y-116112000D01*
X168956500Y-72644000D02*
X165908500Y-72644000D01*
X140813000Y-108712000D02*
X140716000Y-108809000D01*
X165471500Y-73081000D02*
X163957000Y-73081000D01*
X151638000Y-76388000D02*
X149626000Y-76388000D01*
X131826000Y-108746000D02*
X132300000Y-108746000D01*
X150376000Y-115533000D02*
X149860000Y-116049000D01*
X149606000Y-76408000D02*
X149906000Y-76408000D01*
X109728000Y-96520000D02*
X110998000Y-96520000D01*
X169718500Y-71146000D02*
X169718500Y-71882000D01*
X151421000Y-115533000D02*
X150876000Y-116078000D01*
X123224000Y-115570000D02*
X122682000Y-116112000D01*
X120903000Y-94615000D02*
X121920000Y-95632000D01*
X151892000Y-115533000D02*
X150376000Y-115533000D01*
X150106000Y-108484000D02*
X150622000Y-109000000D01*
X149906000Y-76408000D02*
X150622000Y-75692000D01*
X149626000Y-76388000D02*
X149606000Y-76408000D01*
X143002000Y-115596000D02*
X141960000Y-115596000D01*
X127399000Y-73594000D02*
X127508000Y-73485000D01*
X124968000Y-108167000D02*
X123735000Y-108167000D01*
X142151000Y-108293000D02*
X141732000Y-108712000D01*
X148590000Y-108484000D02*
X150106000Y-108484000D01*
X141486000Y-115596000D02*
X140970000Y-116112000D01*
X165908500Y-72644000D02*
X165471500Y-73081000D01*
X133858000Y-108204000D02*
X132368000Y-108204000D01*
X123219000Y-108683000D02*
X123735000Y-108167000D01*
X132368000Y-108204000D02*
X131826000Y-108746000D01*
X143002000Y-115596000D02*
X141486000Y-115596000D01*
%TO.N,Net-(C2-Pad1)*%
X123605000Y-71601000D02*
X123698000Y-71694000D01*
X127267000Y-71694000D02*
X127508000Y-71935000D01*
%TO.N,+5V*%
X165908500Y-74194000D02*
X167432500Y-74194000D01*
X163957000Y-73731000D02*
X165445500Y-73731000D01*
X165445500Y-73731000D02*
X165908500Y-74194000D01*
%TO.N,+3V3*%
X119315000Y-93345000D02*
X117729000Y-93345000D01*
X117729000Y-93345000D02*
X117602000Y-93472000D01*
X154369000Y-115633000D02*
X154940000Y-115062000D01*
X136018000Y-108330000D02*
X136906000Y-107442000D01*
X145225000Y-115633000D02*
X146050000Y-114808000D01*
X135573000Y-115379000D02*
X136398000Y-114554000D01*
X126746000Y-108013000D02*
X126746000Y-109220000D01*
X153670000Y-115633000D02*
X154369000Y-115633000D01*
X135382000Y-115379000D02*
X135573000Y-115379000D01*
X144526000Y-108267000D02*
X144526000Y-108966000D01*
X135636000Y-108330000D02*
X136018000Y-108330000D01*
X169799000Y-84836000D02*
X169799000Y-83693000D01*
X144780000Y-115633000D02*
X145225000Y-115633000D01*
X126492000Y-115570000D02*
X127508000Y-114554000D01*
%TO.N,Net-(C11-Pad2)*%
X156193500Y-74422000D02*
X154732500Y-74422000D01*
%TO.N,Net-(C12-Pad1)*%
X154566500Y-72688000D02*
X156016500Y-72688000D01*
%TO.N,Net-(C12-Pad2)*%
X149901500Y-72763000D02*
X149901500Y-74462500D01*
X150368000Y-70866000D02*
X149860000Y-71374000D01*
X153016500Y-71736500D02*
X152146000Y-70866000D01*
X152146000Y-70866000D02*
X150368000Y-70866000D01*
X149901500Y-71415500D02*
X149901500Y-72763000D01*
X149860000Y-71374000D02*
X149901500Y-71415500D01*
X153016500Y-72688000D02*
X153016500Y-71736500D01*
X149901500Y-74462500D02*
X149606000Y-74758000D01*
X147776500Y-72738000D02*
X149876500Y-72738000D01*
X149876500Y-72738000D02*
X149901500Y-72763000D01*
%TO.N,Net-(D1-Pad2)*%
X111064000Y-94930000D02*
X111760000Y-94234000D01*
X108078000Y-96138000D02*
X109286000Y-94930000D01*
X111760000Y-91314000D02*
X111378000Y-90932000D01*
X109286000Y-94930000D02*
X110411500Y-94930000D01*
X111760000Y-94234000D02*
X111760000Y-91314000D01*
X110411500Y-94930000D02*
X111064000Y-94930000D01*
X108078000Y-96520000D02*
X108078000Y-96138000D01*
%TO.N,Net-(D2-Pad2)*%
X122936000Y-104886000D02*
X122983000Y-104839000D01*
X122936000Y-106583000D02*
X122936000Y-104886000D01*
X122983000Y-104839000D02*
X124714000Y-104839000D01*
%TO.N,CAN_H*%
X111506000Y-82550000D02*
X114428000Y-85472000D01*
X109220000Y-82550000D02*
X111506000Y-82550000D01*
X112522000Y-93980000D02*
X112522000Y-90932000D01*
X108708000Y-78744000D02*
X107950000Y-79502000D01*
X114365000Y-94615000D02*
X113157000Y-94615000D01*
X113792000Y-89662000D02*
X114428000Y-89662000D01*
X114428000Y-85472000D02*
X114428000Y-89662000D01*
X107950000Y-81280000D02*
X109220000Y-82550000D01*
X112522000Y-90932000D02*
X113792000Y-89662000D01*
X109853000Y-78744000D02*
X108708000Y-78744000D01*
X107950000Y-79502000D02*
X107950000Y-81280000D01*
X113157000Y-94615000D02*
X112522000Y-93980000D01*
%TO.N,CAN_L*%
X119664000Y-90902000D02*
X119664000Y-89662000D01*
X115951000Y-93345000D02*
X118110000Y-91186000D01*
X119664000Y-89662000D02*
X119664000Y-85759000D01*
X118110000Y-91186000D02*
X119380000Y-91186000D01*
X119664000Y-85759000D02*
X111633000Y-77728000D01*
X119380000Y-91186000D02*
X119664000Y-90902000D01*
X114365000Y-93345000D02*
X115951000Y-93345000D01*
%TO.N,AIN+*%
X159766000Y-80392000D02*
X141986000Y-80392000D01*
X147066000Y-80329000D02*
X146476500Y-79739500D01*
X146476500Y-79739500D02*
X146476500Y-72738000D01*
%TO.N,Net-(JP2-Pad2)*%
X118364000Y-89662000D02*
X116078000Y-89662000D01*
%TO.N,Net-(R10-Pad2)*%
X121920000Y-97282000D02*
X115762000Y-97282000D01*
X115762000Y-97282000D02*
X114365000Y-95885000D01*
%TO.N,Net-(R11-Pad2)*%
X158821000Y-73731000D02*
X157778000Y-72688000D01*
X157778000Y-72688000D02*
X157666500Y-72688000D01*
X159732000Y-73731000D02*
X158821000Y-73731000D01*
%TO.N,Net-(R12-Pad2)*%
X157843500Y-74422000D02*
X159691000Y-74422000D01*
X159691000Y-74422000D02*
X159732000Y-74381000D01*
%TO.N,Net-(R13-Pad2)*%
X159732000Y-72431000D02*
X159732000Y-71102500D01*
X159732000Y-71102500D02*
X159241500Y-70612000D01*
%TO.N,CAN_TX*%
X119987480Y-96557480D02*
X158660480Y-96557480D01*
X119315000Y-95885000D02*
X119987480Y-96557480D01*
X158660480Y-96557480D02*
X162179000Y-100076000D01*
%TO.N,CAN_RX*%
X163322000Y-100838000D02*
X162814000Y-101346000D01*
X119315000Y-92075000D02*
X120523000Y-92075000D01*
X162814000Y-101346000D02*
X160909000Y-101346000D01*
X120523000Y-92075000D02*
X124555960Y-96107960D01*
X160909000Y-101346000D02*
X159639000Y-100076000D01*
X160115242Y-96107960D02*
X163322000Y-99314718D01*
X124555960Y-96107960D02*
X160115242Y-96107960D01*
X163322000Y-99314718D02*
X163322000Y-100838000D01*
%TO.N,Flaps_Input1*%
X121158000Y-103124000D02*
X119634000Y-101600000D01*
X121158000Y-104839000D02*
X121158000Y-103124000D01*
%TO.N,Flaps_Input3*%
X128333000Y-112077000D02*
X128270000Y-112014000D01*
X129540000Y-112077000D02*
X128333000Y-112077000D01*
%TO.N,Flaps_Input5*%
X138938000Y-104965000D02*
X138747000Y-104965000D01*
X138747000Y-104965000D02*
X137922000Y-104140000D01*
%TO.N,Flaps_Input7*%
X149860000Y-112205000D02*
X149860000Y-111760000D01*
X149860000Y-111760000D02*
X148844000Y-110744000D01*
%TO.N,Flaps_Input2*%
X113407000Y-112268000D02*
X111633000Y-110494000D01*
X120650000Y-112268000D02*
X113407000Y-112268000D01*
%TO.N,Flaps_Input4*%
X130048000Y-103390500D02*
X129794000Y-103136500D01*
X114046000Y-106049000D02*
X111633000Y-108462000D01*
X114046000Y-106049000D02*
X114046000Y-103365500D01*
X130048000Y-104902000D02*
X130048000Y-103390500D01*
%TO.N,Flaps_Input6*%
X141017000Y-112061000D02*
X139954000Y-110998000D01*
X141017000Y-112268000D02*
X141017000Y-112061000D01*
%TO.N,Flaps_In1*%
X126302000Y-104839000D02*
X121539000Y-100076000D01*
X124968000Y-106617000D02*
X126492000Y-106617000D01*
X126364000Y-104839000D02*
X126302000Y-104839000D01*
X126746000Y-106363000D02*
X126746000Y-105221000D01*
X126492000Y-106617000D02*
X126746000Y-106363000D01*
X126746000Y-105221000D02*
X126364000Y-104839000D01*
%TO.N,Flaps_In3*%
X129794000Y-110490000D02*
X134112000Y-110490000D01*
X135382000Y-112839000D02*
X134620000Y-112077000D01*
X135256000Y-113855000D02*
X135382000Y-113729000D01*
X128778000Y-109474000D02*
X129794000Y-110490000D01*
X135382000Y-113729000D02*
X135382000Y-112839000D01*
X134620000Y-110998000D02*
X134620000Y-112077000D01*
X134112000Y-110490000D02*
X134620000Y-110998000D01*
X128778000Y-102235000D02*
X128778000Y-109474000D01*
X126619000Y-100076000D02*
X128778000Y-102235000D01*
X133604000Y-113855000D02*
X135256000Y-113855000D01*
%TO.N,Flaps_In2*%
X124714000Y-114020000D02*
X126392000Y-114020000D01*
X126492000Y-112904000D02*
X125856000Y-112268000D01*
X125856000Y-112268000D02*
X128016000Y-110108000D01*
X128016000Y-104013000D02*
X124079000Y-100076000D01*
X126492000Y-113920000D02*
X126492000Y-112904000D01*
X128016000Y-110108000D02*
X128016000Y-104013000D01*
X126392000Y-114020000D02*
X126492000Y-113920000D01*
%TO.N,Flaps_In4*%
X135636000Y-105410000D02*
X135128000Y-104902000D01*
X135128000Y-104902000D02*
X134988440Y-104902000D01*
X135636000Y-106680000D02*
X135636000Y-105410000D01*
X135610000Y-106654000D02*
X135636000Y-106680000D01*
X132715000Y-103632000D02*
X129159000Y-100076000D01*
X134988440Y-104902000D02*
X133718440Y-103632000D01*
X133858000Y-106654000D02*
X135610000Y-106654000D01*
X133718440Y-103632000D02*
X132715000Y-103632000D01*
%TO.N,Flaps_In5*%
X144526000Y-105473000D02*
X144018000Y-104965000D01*
X142874000Y-106617000D02*
X142748000Y-106743000D01*
X144526000Y-106617000D02*
X144526000Y-105473000D01*
X144018000Y-104394000D02*
X144018000Y-104965000D01*
X134747000Y-103124000D02*
X142748000Y-103124000D01*
X144526000Y-106617000D02*
X142874000Y-106617000D01*
X142748000Y-103124000D02*
X144018000Y-104394000D01*
X131699000Y-100076000D02*
X134747000Y-103124000D01*
%TO.N,Flaps_In6*%
X135636000Y-102616000D02*
X144272000Y-102616000D01*
X144780000Y-113983000D02*
X144780000Y-112776000D01*
X144717000Y-114046000D02*
X144780000Y-113983000D01*
X144272000Y-102616000D02*
X145542000Y-103886000D01*
X134239000Y-101219000D02*
X135636000Y-102616000D01*
X134239000Y-100076000D02*
X134239000Y-101219000D01*
X143002000Y-114046000D02*
X144717000Y-114046000D01*
X145542000Y-110998000D02*
X144272000Y-112268000D01*
X145542000Y-103886000D02*
X145542000Y-110998000D01*
X144780000Y-112776000D02*
X144272000Y-112268000D01*
%TO.N,Net-(D12-Pad2)*%
X131572000Y-112284000D02*
X131365000Y-112077000D01*
X132970000Y-112077000D02*
X131365000Y-112077000D01*
X131572000Y-113787000D02*
X131572000Y-112284000D01*
%TO.N,Net-(D13-Pad2)*%
X122682000Y-112475000D02*
X122475000Y-112268000D01*
X124206000Y-112268000D02*
X122475000Y-112268000D01*
X122682000Y-114012000D02*
X122682000Y-112475000D01*
%TO.N,Net-(D14-Pad2)*%
X133478000Y-104902000D02*
X131873000Y-104902000D01*
X131826000Y-104949000D02*
X131873000Y-104902000D01*
X131826000Y-106646000D02*
X131826000Y-104949000D01*
%TO.N,Net-(D15-Pad2)*%
X140716000Y-105012000D02*
X140763000Y-104965000D01*
X142368000Y-104965000D02*
X140763000Y-104965000D01*
X140716000Y-106709000D02*
X140716000Y-105012000D01*
%TO.N,Net-(D16-Pad2)*%
X140970000Y-113920000D02*
X142622000Y-112268000D01*
X139226000Y-112268000D02*
X140970000Y-114012000D01*
X140970000Y-114012000D02*
X140970000Y-113920000D01*
X139192000Y-112268000D02*
X139226000Y-112268000D01*
%TO.N,Net-(D17-Pad2)*%
X149860000Y-113949000D02*
X151384000Y-112425000D01*
X148116000Y-112205000D02*
X149860000Y-113949000D01*
X148035000Y-112205000D02*
X148116000Y-112205000D01*
X151384000Y-112425000D02*
X151384000Y-112205000D01*
%TO.N,Net-(D21-Pad2)*%
X149860000Y-104140000D02*
X148336000Y-104140000D01*
X147702000Y-104774000D02*
X147702000Y-105156000D01*
X148336000Y-104140000D02*
X147702000Y-104774000D01*
X150876000Y-106646000D02*
X150622000Y-106900000D01*
X150876000Y-105156000D02*
X149860000Y-104140000D01*
X150876000Y-105156000D02*
X150876000Y-106646000D01*
%TO.N,ADC_In2*%
X156731000Y-110490000D02*
X156972000Y-110731000D01*
X156972000Y-109474000D02*
X157480000Y-108966000D01*
X156972000Y-110731000D02*
X156972000Y-109474000D01*
X155702000Y-110490000D02*
X156731000Y-110490000D01*
%TO.N,Flaps_In7*%
X136779000Y-100076000D02*
X136779000Y-101219000D01*
X153034000Y-113347000D02*
X153670000Y-113983000D01*
X154432000Y-104394000D02*
X154432000Y-110807000D01*
X154432000Y-110807000D02*
X153034000Y-112205000D01*
X151892000Y-101854000D02*
X154432000Y-104394000D01*
X151892000Y-113983000D02*
X153670000Y-113983000D01*
X153034000Y-112205000D02*
X153034000Y-113347000D01*
X137414000Y-101854000D02*
X151892000Y-101854000D01*
X136779000Y-101219000D02*
X137414000Y-101854000D01*
%TO.N,ADC_In1*%
X147320000Y-106934000D02*
X146304000Y-105918000D01*
X148590000Y-106934000D02*
X147320000Y-106934000D01*
X146304000Y-103632000D02*
X146304000Y-105918000D01*
X146812000Y-103124000D02*
X146304000Y-103632000D01*
X148590000Y-106934000D02*
X148590000Y-105918000D01*
X148590000Y-105918000D02*
X149352000Y-105156000D01*
%TO.N,Net-(D4-Pad2)*%
X155702000Y-108838000D02*
X155830000Y-108966000D01*
X155702000Y-108204000D02*
X155702000Y-108838000D01*
X159004000Y-108966000D02*
X159004000Y-108204000D01*
X159004000Y-108204000D02*
X158496000Y-107696000D01*
X156210000Y-107696000D02*
X155702000Y-108204000D01*
X159004000Y-110710000D02*
X159004000Y-108966000D01*
X158496000Y-107696000D02*
X156210000Y-107696000D01*
%TO.N,ADC_Input1*%
X152908000Y-105363000D02*
X152701000Y-105156000D01*
X152908000Y-106426000D02*
X152908000Y-105363000D01*
%TO.N,ADC_Input2*%
X161272000Y-108966000D02*
X160829000Y-108966000D01*
X163426000Y-111120000D02*
X161272000Y-108966000D01*
%TO.N,PWM_A*%
X159639000Y-82169000D02*
X159766000Y-82042000D01*
X159639000Y-84836000D02*
X159639000Y-82169000D01*
%TO.N,PWM_B*%
X157099000Y-84836000D02*
X157099000Y-82169000D01*
X157099000Y-82169000D02*
X157226000Y-82042000D01*
%TO.N,ATTN_1*%
X154559000Y-82169000D02*
X154432000Y-82042000D01*
X154559000Y-84836000D02*
X154559000Y-82169000D01*
%TO.N,ATTN_2*%
X152019000Y-82169000D02*
X151892000Y-82042000D01*
X152019000Y-84836000D02*
X152019000Y-82169000D01*
%TO.N,ATTN_3*%
X149479000Y-82169000D02*
X149352000Y-82042000D01*
X149479000Y-84836000D02*
X149479000Y-82169000D01*
%TO.N,ATTN_4*%
X146939000Y-82106000D02*
X147066000Y-81979000D01*
X146939000Y-84836000D02*
X146939000Y-82106000D01*
%TO.N,ATTN_5*%
X144399000Y-82169000D02*
X144526000Y-82042000D01*
X144399000Y-84836000D02*
X144399000Y-82169000D01*
%TO.N,ATTN_6*%
X141859000Y-84836000D02*
X141859000Y-82169000D01*
X141859000Y-82169000D02*
X141986000Y-82042000D01*
%TO.N,Net-(JP5-Pad2)*%
X151638000Y-73199500D02*
X151201500Y-72763000D01*
X151638000Y-74738000D02*
X151638000Y-73199500D01*
%TO.N,Net-(C16-Pad1)*%
X168033500Y-70866000D02*
X168033500Y-70726500D01*
%TD*%
M02*
