%TF.GenerationSoftware,KiCad,Pcbnew,(6.0.0)*%
%TF.CreationDate,2022-01-05T18:10:34+01:00*%
%TF.ProjectId,soar_audio,736f6172-5f61-4756-9469-6f2e6b696361,rev?*%
%TF.SameCoordinates,Original*%
%TF.FileFunction,Legend,Bot*%
%TF.FilePolarity,Positive*%
%FSLAX46Y46*%
G04 Gerber Fmt 4.6, Leading zero omitted, Abs format (unit mm)*
G04 Created by KiCad (PCBNEW (6.0.0)) date 2022-01-05 18:10:34*
%MOMM*%
%LPD*%
G01*
G04 APERTURE LIST*
%ADD10C,0.150000*%
%ADD11C,0.100000*%
%ADD12R,1.500000X1.500000*%
%ADD13C,1.500000*%
%ADD14C,3.250000*%
%ADD15C,2.300000*%
%ADD16R,1.700000X1.700000*%
%ADD17O,1.700000X1.700000*%
%ADD18R,1.000000X1.000000*%
%ADD19O,1.000000X1.000000*%
%ADD20R,3.000000X3.000000*%
%ADD21C,3.000000*%
%ADD22C,1.524000*%
%ADD23R,1.520000X1.520000*%
%ADD24C,1.520000*%
G04 APERTURE END LIST*
D10*
X131214095Y-117292380D02*
X131214095Y-116292380D01*
X130880761Y-117006666D01*
X130547428Y-116292380D01*
X130547428Y-117292380D01*
X129642666Y-117292380D02*
X129642666Y-116768571D01*
X129690285Y-116673333D01*
X129785523Y-116625714D01*
X129976000Y-116625714D01*
X130071238Y-116673333D01*
X129642666Y-117244761D02*
X129737904Y-117292380D01*
X129976000Y-117292380D01*
X130071238Y-117244761D01*
X130118857Y-117149523D01*
X130118857Y-117054285D01*
X130071238Y-116959047D01*
X129976000Y-116911428D01*
X129737904Y-116911428D01*
X129642666Y-116863809D01*
X129261714Y-117292380D02*
X128737904Y-116625714D01*
X129261714Y-116625714D02*
X128737904Y-117292380D01*
X128356952Y-117292380D02*
X128356952Y-116625714D01*
X128356952Y-116292380D02*
X128404571Y-116340000D01*
X128356952Y-116387619D01*
X128309333Y-116340000D01*
X128356952Y-116292380D01*
X128356952Y-116387619D01*
X127880761Y-117292380D02*
X127880761Y-116625714D01*
X127880761Y-116720952D02*
X127833142Y-116673333D01*
X127737904Y-116625714D01*
X127595047Y-116625714D01*
X127499809Y-116673333D01*
X127452190Y-116768571D01*
X127452190Y-117292380D01*
X127452190Y-116768571D02*
X127404571Y-116673333D01*
X127309333Y-116625714D01*
X127166476Y-116625714D01*
X127071238Y-116673333D01*
X127023619Y-116768571D01*
X127023619Y-117292380D01*
X126547428Y-117292380D02*
X126547428Y-116625714D01*
X126547428Y-116292380D02*
X126595047Y-116340000D01*
X126547428Y-116387619D01*
X126499809Y-116340000D01*
X126547428Y-116292380D01*
X126547428Y-116387619D01*
X125928380Y-117292380D02*
X126023619Y-117244761D01*
X126071238Y-117149523D01*
X126071238Y-116292380D01*
X125547428Y-117292380D02*
X125547428Y-116625714D01*
X125547428Y-116292380D02*
X125595047Y-116340000D01*
X125547428Y-116387619D01*
X125499809Y-116340000D01*
X125547428Y-116292380D01*
X125547428Y-116387619D01*
X124642666Y-117292380D02*
X124642666Y-116768571D01*
X124690285Y-116673333D01*
X124785523Y-116625714D01*
X124976000Y-116625714D01*
X125071238Y-116673333D01*
X124642666Y-117244761D02*
X124737904Y-117292380D01*
X124976000Y-117292380D01*
X125071238Y-117244761D01*
X125118857Y-117149523D01*
X125118857Y-117054285D01*
X125071238Y-116959047D01*
X124976000Y-116911428D01*
X124737904Y-116911428D01*
X124642666Y-116863809D01*
X124166476Y-116625714D02*
X124166476Y-117292380D01*
X124166476Y-116720952D02*
X124118857Y-116673333D01*
X124023619Y-116625714D01*
X123880761Y-116625714D01*
X123785523Y-116673333D01*
X123737904Y-116768571D01*
X123737904Y-117292380D01*
X122166476Y-116768571D02*
X122023619Y-116816190D01*
X121976000Y-116863809D01*
X121928380Y-116959047D01*
X121928380Y-117101904D01*
X121976000Y-117197142D01*
X122023619Y-117244761D01*
X122118857Y-117292380D01*
X122499809Y-117292380D01*
X122499809Y-116292380D01*
X122166476Y-116292380D01*
X122071238Y-116340000D01*
X122023619Y-116387619D01*
X121976000Y-116482857D01*
X121976000Y-116578095D01*
X122023619Y-116673333D01*
X122071238Y-116720952D01*
X122166476Y-116768571D01*
X122499809Y-116768571D01*
X121118857Y-117244761D02*
X121214095Y-117292380D01*
X121404571Y-117292380D01*
X121499809Y-117244761D01*
X121547428Y-117149523D01*
X121547428Y-116768571D01*
X121499809Y-116673333D01*
X121404571Y-116625714D01*
X121214095Y-116625714D01*
X121118857Y-116673333D01*
X121071238Y-116768571D01*
X121071238Y-116863809D01*
X121547428Y-116959047D01*
X120785523Y-116625714D02*
X120404571Y-116625714D01*
X120642666Y-116292380D02*
X120642666Y-117149523D01*
X120595047Y-117244761D01*
X120499809Y-117292380D01*
X120404571Y-117292380D01*
X120166476Y-116625714D02*
X119642666Y-116625714D01*
X120166476Y-117292380D01*
X119642666Y-117292380D01*
D11*
X131317619Y-115144571D02*
X131317619Y-115944571D01*
X131317619Y-115182666D02*
X131241428Y-115144571D01*
X131089047Y-115144571D01*
X131012857Y-115182666D01*
X130974761Y-115220761D01*
X130936666Y-115296952D01*
X130936666Y-115525523D01*
X130974761Y-115601714D01*
X131012857Y-115639809D01*
X131089047Y-115677904D01*
X131241428Y-115677904D01*
X131317619Y-115639809D01*
X130250952Y-115639809D02*
X130327142Y-115677904D01*
X130479523Y-115677904D01*
X130555714Y-115639809D01*
X130593809Y-115601714D01*
X130631904Y-115525523D01*
X130631904Y-115296952D01*
X130593809Y-115220761D01*
X130555714Y-115182666D01*
X130479523Y-115144571D01*
X130327142Y-115144571D01*
X130250952Y-115182666D01*
X129908095Y-115677904D02*
X129908095Y-114877904D01*
X129908095Y-115182666D02*
X129831904Y-115144571D01*
X129679523Y-115144571D01*
X129603333Y-115182666D01*
X129565238Y-115220761D01*
X129527142Y-115296952D01*
X129527142Y-115525523D01*
X129565238Y-115601714D01*
X129603333Y-115639809D01*
X129679523Y-115677904D01*
X129831904Y-115677904D01*
X129908095Y-115639809D01*
X129184285Y-115677904D02*
X129184285Y-114877904D01*
X128993809Y-114877904D01*
X128879523Y-114916000D01*
X128803333Y-114992190D01*
X128765238Y-115068380D01*
X128727142Y-115220761D01*
X128727142Y-115335047D01*
X128765238Y-115487428D01*
X128803333Y-115563619D01*
X128879523Y-115639809D01*
X128993809Y-115677904D01*
X129184285Y-115677904D01*
X128079523Y-115639809D02*
X128155714Y-115677904D01*
X128308095Y-115677904D01*
X128384285Y-115639809D01*
X128422380Y-115563619D01*
X128422380Y-115258857D01*
X128384285Y-115182666D01*
X128308095Y-115144571D01*
X128155714Y-115144571D01*
X128079523Y-115182666D01*
X128041428Y-115258857D01*
X128041428Y-115335047D01*
X128422380Y-115411238D01*
X127736666Y-115639809D02*
X127660476Y-115677904D01*
X127508095Y-115677904D01*
X127431904Y-115639809D01*
X127393809Y-115563619D01*
X127393809Y-115525523D01*
X127431904Y-115449333D01*
X127508095Y-115411238D01*
X127622380Y-115411238D01*
X127698571Y-115373142D01*
X127736666Y-115296952D01*
X127736666Y-115258857D01*
X127698571Y-115182666D01*
X127622380Y-115144571D01*
X127508095Y-115144571D01*
X127431904Y-115182666D01*
X127050952Y-115677904D02*
X127050952Y-115144571D01*
X127050952Y-114877904D02*
X127089047Y-114916000D01*
X127050952Y-114954095D01*
X127012857Y-114916000D01*
X127050952Y-114877904D01*
X127050952Y-114954095D01*
X126327142Y-115144571D02*
X126327142Y-115792190D01*
X126365238Y-115868380D01*
X126403333Y-115906476D01*
X126479523Y-115944571D01*
X126593809Y-115944571D01*
X126670000Y-115906476D01*
X126327142Y-115639809D02*
X126403333Y-115677904D01*
X126555714Y-115677904D01*
X126631904Y-115639809D01*
X126670000Y-115601714D01*
X126708095Y-115525523D01*
X126708095Y-115296952D01*
X126670000Y-115220761D01*
X126631904Y-115182666D01*
X126555714Y-115144571D01*
X126403333Y-115144571D01*
X126327142Y-115182666D01*
X125946190Y-115144571D02*
X125946190Y-115677904D01*
X125946190Y-115220761D02*
X125908095Y-115182666D01*
X125831904Y-115144571D01*
X125717619Y-115144571D01*
X125641428Y-115182666D01*
X125603333Y-115258857D01*
X125603333Y-115677904D01*
X125222380Y-115601714D02*
X125184285Y-115639809D01*
X125222380Y-115677904D01*
X125260476Y-115639809D01*
X125222380Y-115601714D01*
X125222380Y-115677904D01*
X125222380Y-115182666D02*
X125184285Y-115220761D01*
X125222380Y-115258857D01*
X125260476Y-115220761D01*
X125222380Y-115182666D01*
X125222380Y-115258857D01*
%LPC*%
D12*
%TO.C,J5*%
X109853000Y-80776000D03*
D13*
X109853000Y-78744000D03*
X109853000Y-76712000D03*
X109853000Y-74680000D03*
X111633000Y-79760000D03*
X111633000Y-77728000D03*
X111633000Y-75696000D03*
X111633000Y-73664000D03*
D14*
X107313000Y-83566000D03*
X107313000Y-70866000D03*
D15*
X110743000Y-69086000D03*
X110743000Y-85346000D03*
%TD*%
D12*
%TO.C,J1*%
X109853000Y-111510000D03*
D13*
X109853000Y-109478000D03*
X109853000Y-107446000D03*
X109853000Y-105414000D03*
X111633000Y-110494000D03*
X111633000Y-108462000D03*
X111633000Y-106430000D03*
X111633000Y-104398000D03*
D14*
X107313000Y-114300000D03*
X107313000Y-101600000D03*
D15*
X110743000Y-99820000D03*
X110743000Y-116080000D03*
%TD*%
D16*
%TO.C,J9*%
X143510000Y-69860000D03*
D17*
X143510000Y-72400000D03*
X143510000Y-74940000D03*
X143510000Y-77480000D03*
%TD*%
D16*
%TO.C,J8*%
X139700000Y-69860000D03*
D17*
X139700000Y-72400000D03*
X139700000Y-74940000D03*
X139700000Y-77480000D03*
%TD*%
D18*
%TO.C,J6*%
X178816000Y-98176000D03*
D19*
X178816000Y-99446000D03*
X178816000Y-100716000D03*
X178816000Y-101986000D03*
%TD*%
D18*
%TO.C,J7*%
X105156000Y-92314000D03*
D19*
X105156000Y-93584000D03*
%TD*%
%TO.C,J3*%
X178816000Y-83820000D03*
X178816000Y-82550000D03*
X178816000Y-81280000D03*
D18*
X178816000Y-80010000D03*
%TD*%
D20*
%TO.C,J4*%
X176276000Y-75692000D03*
D21*
X176276000Y-70612000D03*
%TD*%
D22*
%TO.C,U6*%
X169799000Y-84836000D03*
X165989000Y-93726000D03*
X165989000Y-91186000D03*
X162179000Y-84836000D03*
X164719000Y-84836000D03*
X167259000Y-84836000D03*
X129159000Y-100076000D03*
X126619000Y-100076000D03*
X124079000Y-100076000D03*
X121539000Y-100076000D03*
X131699000Y-84836000D03*
X134239000Y-84836000D03*
X162179000Y-100076000D03*
X159639000Y-100076000D03*
X157099000Y-100076000D03*
X154559000Y-100076000D03*
X152019000Y-100076000D03*
X149479000Y-100076000D03*
X146939000Y-100076000D03*
X136779000Y-84836000D03*
X139319000Y-84836000D03*
X144399000Y-100076000D03*
X141859000Y-100076000D03*
X139319000Y-100076000D03*
X136779000Y-100076000D03*
X134239000Y-100076000D03*
X131699000Y-100076000D03*
X141859000Y-84836000D03*
X144399000Y-84836000D03*
X146939000Y-84836000D03*
X149479000Y-84836000D03*
X152019000Y-84836000D03*
X154559000Y-84836000D03*
X157099000Y-84836000D03*
X159639000Y-84836000D03*
X129159000Y-84836000D03*
X124079000Y-84836000D03*
X121539000Y-84836000D03*
X165989000Y-88646000D03*
X167259000Y-100076000D03*
X164719000Y-100076000D03*
X126619000Y-84836000D03*
X169799000Y-100076000D03*
X165989000Y-96266000D03*
%TD*%
D14*
%TO.C,J2*%
X172316000Y-115570000D03*
X172316000Y-105410000D03*
D23*
X163426000Y-113660000D03*
D24*
X165966000Y-112390000D03*
X163426000Y-111120000D03*
X165966000Y-109850000D03*
X163426000Y-108580000D03*
X165966000Y-107310000D03*
%TD*%
M02*
